<?xml version="1.0" encoding="UTF-8"?>
<svg version="1.1" viewBox="0 0 24 24" xmlns="http://www.w3.org/2000/svg">
   <path d="M0 0h24v24H0z" fill="none" />
   <g>
      <path d="m15.371 0.44394-10.515-0.010524c-1.1567 0-2.103 0.94636-2.103 2.103v18.927c0 1.1567 0.94636 2.103 2.103 2.103h10.515c1.1567 0 2.103-0.94636 2.103-2.103v-18.927c0-1.1567-0.94636-2.0925-2.103-2.0925zm0 18.917h-10.515v-14.721h10.515z" stroke-width="1.0515" />
   </g>
   <g>
      <rect x="15.346" y="9.2564" width="2.146" height="7.4216" fill-opacity="0" />
      <rect x="15.346" y="5.5953" width="2.2373" height="13.119" fill="#fff" stroke-width="1.1972" />
   </g>
   <g>
      <path d="m18.158 12.231c1.5396 0 2.7866-1.247 2.7866-2.7866 0-1.5396-1.247-2.7866-2.7866-2.7866-1.5396 0-2.7866 1.247-2.7866 2.7866 0 1.5396 1.247 2.7866 2.7866 2.7866zm-6.2698-1.3933v-2.0899h-1.3933v2.0899h-2.0899v1.3933h2.0899v2.0899h1.3933v-2.0899h2.0899v-1.3933zm6.2698 2.7866c-1.8601 0-5.5732 0.93351-5.5732 2.7866v1.3933h11.146v-1.3933c0-1.8531-3.7131-2.7866-5.5732-2.7866z" stroke-width=".69665" />
   </g>
</svg>