<?xml version="1.0" encoding="UTF-8"?>
<svg version="1.1" viewBox="0 0 52 24" xmlns="http://www.w3.org/2000/svg">
   <path d="m17.25 18h-10.5v-14h10.5m-3.25 17h-4v-1h4m2-19h-8a3 3 0 0 0-3 3v16a3 3 0 0 0 3 3h8a3 3 0 0 0 3-3v-16a3 3 0 0 0-3-3z" />
   <path d="m30.6 1.2h16a1 1 0 0 1 1 1v4a1 1 0 0 1-1 1h-16a1 1 0 0 1-1-1v-4a1 1 0 0 1 1-1m0 8h16a1 1 0 0 1 1 1v4a1 1 0 0 1-1 1h-16a1 1 0 0 1-1-1v-4a1 1 0 0 1 1-1m0 8h16a1 1 0 0 1 1 1v4a1 1 0 0 1-1 1h-16a1 1 0 0 1-1-1v-4a1 1 0 0 1 1-1m5-12h1v-2h-1v2m0 8h1v-2h-1v2m0 8h1v-2h-1v2m-4-18v2h2v-2h-2m0 8v2h2v-2h-2m0 8v2h2v-2z" />
   <rect x="20.4" y="10.2" width="8.4" height="1.7" fill="#008000" />
   <rect x="20" y="9" width="2" height="4" fill="#008000" />
   <rect x="26.8" y="9" width="2" height="4" fill="#008000" />
</svg>