<?xml version="1.0" encoding="UTF-8"?>
<svg version="1.1" viewBox="0 0 24 24" xmlns="http://www.w3.org/2000/svg">
   <path d="M0 0h24v24H0z" fill="none" />
   <path d="M17 1.01L7 1c-1.1 0-2 .9-2 2v18c0 1.1.9 2 2 2h10c1.1 0 2-.9 2-2V3c0-1.1-.9-1.99-2-1.99zM17 19H7V5h10v14z" />
   <path d="m12.004 10.52c0.97252 0 1.7618 0.7893 1.7618 1.7618 0 0.22904-0.04581 0.44398-0.12685 0.64483l1.0289 1.0289c0.53207-0.44398 0.95138-1.0183 1.2086-1.6737-0.60959-1.5469-2.1142-2.6427-3.876-2.6427-0.49331 0-0.96548 0.08809-1.4024 0.24666l0.76111 0.76111c0.20085-0.08104 0.41579-0.12685 0.64483-0.12685zm-3.5236-0.96195 0.80339 0.80339 0.16209 0.16209c-0.58492 0.45455-1.043 1.0606-1.3178 1.7583 0.60959 1.5469 2.1142 2.6427 3.876 2.6427 0.54616 0 1.0677-0.10571 1.5434-0.29599l0.14799 0.14799 1.0324 1.0289 0.4475-0.4475-6.2474-6.2474zm1.9486 1.9486 0.54616 0.54616c-0.01762 0.074-0.02819 0.15152-0.02819 0.22904 0 0.58492 0.47217 1.0571 1.0571 1.0571 0.07752 0 0.15504-0.01057 0.22904-0.02819l0.54616 0.54616c-0.23608 0.11628-0.49683 0.18675-0.7752 0.18675-0.97252 0-1.7618-0.7893-1.7618-1.7618 0-0.27837 0.07047-0.53912 0.18675-0.7752zm1.5187-0.27484 1.1099 1.1099 7e-3 -0.05638c0-0.58492-0.47217-1.0571-1.0571-1.0571z" stroke-width=".35236" />
</svg>