<?xml version="1.0" encoding="UTF-8" standalone="no"?>
<svg
   xmlns:dc="http://purl.org/dc/elements/1.1/"
   xmlns:cc="http://creativecommons.org/ns#"
   xmlns:rdf="http://www.w3.org/1999/02/22-rdf-syntax-ns#"
   xmlns:svg="http://www.w3.org/2000/svg"
   xmlns="http://www.w3.org/2000/svg"
   xmlns:sodipodi="http://sodipodi.sourceforge.net/DTD/sodipodi-0.dtd"
   xmlns:inkscape="http://www.inkscape.org/namespaces/inkscape"
   version="1.1"
   width="52"
   height="24"
   viewBox="0 0 52 24"
   id="svg4"
   sodipodi:docname="disconnected.svg"
   inkscape:version="0.92.4 (5da689c313, 2019-01-14)">
  <metadata
     id="metadata10">
    <rdf:RDF>
      <cc:Work
         rdf:about="">
        <dc:format>image/svg+xml</dc:format>
        <dc:type
           rdf:resource="http://purl.org/dc/dcmitype/StillImage" />
        <dc:title></dc:title>
      </cc:Work>
    </rdf:RDF>
  </metadata>
  <defs
     id="defs8" />
  <sodipodi:namedview
     pagecolor="#ffffff"
     bordercolor="#666666"
     borderopacity="1"
     objecttolerance="10"
     gridtolerance="10"
     guidetolerance="10"
     inkscape:pageopacity="0"
     inkscape:pageshadow="2"
     inkscape:window-width="1920"
     inkscape:window-height="1001"
     id="namedview6"
     showgrid="false"
     inkscape:zoom="10"
     inkscape:cx="1.1"
     inkscape:cy="15.865118"
     inkscape:window-x="-9"
     inkscape:window-y="1341"
     inkscape:window-maximized="1"
     inkscape:current-layer="svg4" />
  <path
     d="M 17.25,18 H 6.75 V 4 h 10.5 M 14,21 h -4 v -1 h 4 M 16,1 H 8 A 3,3 0 0 0 5,4 v 16 a 3,3 0 0 0 3,3 h 8 a 3,3 0 0 0 3,-3 V 4 A 3,3 0 0 0 16,1 Z"
     id="path2"
     inkscape:connector-curvature="0" />
  <path
     inkscape:connector-curvature="0"
     d="m 30.6,1.2 h 16 a 1,1 0 0 1 1,1 v 4 a 1,1 0 0 1 -1,1 h -16 a 1,1 0 0 1 -1,-1 v -4 a 1,1 0 0 1 1,-1 m 0,8 h 16 a 1,1 0 0 1 1,1 v 4 a 1,1 0 0 1 -1,1 h -16 a 1,1 0 0 1 -1,-1 v -4 a 1,1 0 0 1 1,-1 m 0,8 h 16 a 1,1 0 0 1 1,1 v 4 a 1,1 0 0 1 -1,1 h -16 a 1,1 0 0 1 -1,-1 v -4 a 1,1 0 0 1 1,-1 m 5,-12 h 1 v -2 h -1 v 2 m 0,8 h 1 v -2 h -1 v 2 m 0,8 h 1 v -2 h -1 v 2 m -4,-18 v 2 h 2 v -2 h -2 m 0,8 v 2 h 2 v -2 h -2 m 0,8 v 2 h 2 v -2 z"
     id="path2-1" />
  <rect
     style="fill:#ff0000;fill-opacity:1"
     id="rect33"
     width="8.3999996"
     height="1.7"
     x="5.3812966"
     y="24.358356"
     transform="rotate(-45)" />
  <rect
     style="fill:#ff0000;fill-opacity:1"
     id="rect33-3"
     width="8.3999996"
     height="1.7"
     x="20.973003"
     y="-10.325231"
     transform="rotate(45)" />
</svg>
