<?xml version="1.0" encoding="UTF-8"?>
<svg version="1.1" viewBox="0 0 24 24" xmlns="http://www.w3.org/2000/svg">
   <path d="M0 0h24v24H0z" fill="none" />
   <path d="M17 1.01L7 1c-1.1 0-2 .9-2 2v18c0 1.1.9 2 2 2h10c1.1 0 2-.9 2-2V3c0-1.1-.9-1.99-2-1.99zM17 19H7V5h10v14z" />
   <path d="m14.184 10.669h-0.36562v-0.73123c0-1.0091-0.81898-1.8281-1.8281-1.8281-1.0091 0-1.8281 0.81898-1.8281 1.8281v0.73123h-0.36562c-0.40218 0-0.73124 0.32906-0.73124 0.73123v3.6562c0 0.40218 0.32906 0.73124 0.73124 0.73124h4.3874c0.40218 0 0.73124-0.32906 0.73124-0.73124v-3.6562c0-0.40218-0.32906-0.73123-0.73124-0.73123zm-2.1937 3.2906c-0.40218 0-0.73123-0.32906-0.73123-0.73124s0.32906-0.73124 0.73123-0.73124c0.40218 0 0.73124 0.32906 0.73124 0.73124s-0.32906 0.73124-0.73124 0.73124zm1.1334-3.2906h-2.2668v-0.73123c0-0.62521 0.50821-1.1334 1.1334-1.1334 0.62521 0 1.1334 0.50821 1.1334 1.1334z" stroke-width=".36562" />
</svg>