<?xml version="1.0" encoding="UTF-8" standalone="no"?>
<svg
   xmlns:dc="http://purl.org/dc/elements/1.1/"
   xmlns:cc="http://creativecommons.org/ns#"
   xmlns:rdf="http://www.w3.org/1999/02/22-rdf-syntax-ns#"
   xmlns:svg="http://www.w3.org/2000/svg"
   xmlns="http://www.w3.org/2000/svg"
   xmlns:sodipodi="http://sodipodi.sourceforge.net/DTD/sodipodi-0.dtd"
   xmlns:inkscape="http://www.inkscape.org/namespaces/inkscape"
   width="24"
   height="24"
   viewBox="0 0 24 24"
   version="1.1"
   id="svg6"
   sodipodi:docname="lockdevice.svg"
   inkscape:version="0.92.4 (5da689c313, 2019-01-14)">
  <metadata
     id="metadata12">
    <rdf:RDF>
      <cc:Work
         rdf:about="">
        <dc:format>image/svg+xml</dc:format>
        <dc:type
           rdf:resource="http://purl.org/dc/dcmitype/StillImage" />
        <dc:title></dc:title>
      </cc:Work>
    </rdf:RDF>
  </metadata>
  <defs
     id="defs10" />
  <sodipodi:namedview
     pagecolor="#ffffff"
     bordercolor="#666666"
     borderopacity="1"
     objecttolerance="10"
     gridtolerance="10"
     guidetolerance="10"
     inkscape:pageopacity="0"
     inkscape:pageshadow="2"
     inkscape:window-width="640"
     inkscape:window-height="480"
     id="namedview8"
     showgrid="false"
     inkscape:zoom="9.8333333"
     inkscape:cx="12"
     inkscape:cy="12"
     inkscape:window-x="927"
     inkscape:window-y="141"
     inkscape:window-maximized="0"
     inkscape:current-layer="svg6" />
  <path
     d="M0 0h24v24H0z"
     fill="none"
     id="path2" />
  <path
     d="M17 1.01L7 1c-1.1 0-2 .9-2 2v18c0 1.1.9 2 2 2h10c1.1 0 2-.9 2-2V3c0-1.1-.9-1.99-2-1.99zM17 19H7V5h10v14z"
     id="path4" />
  <path
     inkscape:connector-curvature="0"
     d="M 14.184019,10.669492 H 13.818402 V 9.9382571 c 0,-1.009105 -0.818983,-1.828088 -1.828088,-1.828088 -1.009104,0 -1.828087,0.818983 -1.828087,1.828088 V 10.669492 H 9.7966099 c -0.402179,0 -0.731235,0.329055 -0.731235,0.731234 v 3.656175 c 0,0.402179 0.329056,0.731235 0.731235,0.731235 h 4.3874091 c 0.402179,0 0.731235,-0.329056 0.731235,-0.731235 v -3.656175 c 0,-0.402179 -0.329056,-0.731234 -0.731235,-0.731234 z m -2.193705,3.290557 c -0.402179,0 -0.731234,-0.329056 -0.731234,-0.731235 0,-0.402179 0.329055,-0.731235 0.731234,-0.731235 0.40218,0 0.731235,0.329056 0.731235,0.731235 0,0.402179 -0.329055,0.731235 -0.731235,0.731235 z m 1.133415,-3.290557 H 10.8569 V 9.9382571 c 0,-0.625206 0.508209,-1.133414 1.133414,-1.133414 0.625206,0 1.133415,0.508208 1.133415,1.133414 z"
     id="path4-4"
     style="stroke-width:0.36561745" />
</svg>
