<?xml version="1.0" encoding="UTF-8" standalone="no"?>
<svg
   xmlns:dc="http://purl.org/dc/elements/1.1/"
   xmlns:cc="http://creativecommons.org/ns#"
   xmlns:rdf="http://www.w3.org/1999/02/22-rdf-syntax-ns#"
   xmlns:svg="http://www.w3.org/2000/svg"
   xmlns="http://www.w3.org/2000/svg"
   id="svg8"
   version="1.1"
   viewBox="0 0 635 423.33334"
   height="423.33334mm"
   width="635mm">
  <defs
     id="defs2" />
  <metadata
     id="metadata5">
    <rdf:RDF>
      <cc:Work
         rdf:about="">
        <dc:format>image/svg+xml</dc:format>
        <dc:type
           rdf:resource="http://purl.org/dc/dcmitype/StillImage" />
        <dc:title></dc:title>
      </cc:Work>
    </rdf:RDF>
  </metadata>
  <g
     transform="translate(133.04762,-12.7619)"
     id="layer1">
    <g
       id="g165">
      <path
         id="path179"
         d="m 24.263392,360.09798 c -5.595165,-0.98435 -9.121891,-2.40315 -11.649293,-4.68651 -1.687414,-1.52447 -2.433941,-2.84892 -2.433941,-4.31816 0,-0.83362 0.155797,-1.07585 0.691959,-1.07585 0.501918,0 0.790462,0.36582 1.050625,1.33199 0.422649,1.5696 2.377539,3.56327 4.570491,4.66116 3.355654,1.67998 7.900013,2.54375 14.390091,2.7352 6.440971,0.19 10.039918,-0.14305 14.507344,-1.34255 5.112812,-1.37279 8.218632,-3.41005 9.452705,-6.20051 0.828375,-1.8731 1.715477,-2.4384 2.130263,-1.35749 0.336395,0.87663 -1.568567,4.29132 -3.047446,5.46261 -2.011564,1.59319 -6.062511,3.33597 -9.879366,4.25027 -2.772254,0.66407 -4.54014,0.82072 -10.230555,0.90651 -4.604022,0.0694 -7.763443,-0.0519 -9.552877,-0.36667 z m -52.006845,-0.0784 c -10.47435,-1.21424 -17.179153,-3.88294 -19.437615,-7.73672 -3.294415,-5.62149 2.882505,-10.91134 15.204281,-13.02079 6.845551,-1.17193 17.626655,-0.58962 23.7430031,1.28242 9.07081979,2.77632 12.7175225,8.24723 8.52734798,12.79303 l -1.37607678,1.49287 1.83897414,1.20949 c 1.09883576,0.72271 1.88197776,1.51089 1.94581996,1.95834 0.1719862,1.20539 -0.8703734,1.28164 -2.39752015,0.17538 -2.67581235,-1.93835 -3.15416845,-2.00127 -6.24273795,-0.82114 -1.5155121,0.57907 -3.904869,1.31025 -5.3096793,1.62485 -4.200165,0.9406 -12.72595,1.4793 -16.495797,1.04227 z m 11.035118,-2.24539 c 4.104615,-0.4324 8.2606478,-1.36188 7.9969923,-1.78848 -0.1100772,-0.17811 -0.6273341,-0.32424 -1.1494594,-0.32472 -1.9486599,-0.002 -7.7532089,-1.85529 -15.4974179,-4.9485 -8.74655,-3.49357 -12.003137,-4.48046 -15.881925,-4.81294 -2.898444,-0.24844 -3.643115,0.12635 -4.560786,2.29544 -0.451668,1.06762 -0.42975,1.31632 0.237487,2.69465 1.189432,2.45704 4.597816,4.37605 10.313165,5.80659 5.596365,1.40075 11.963859,1.77093 18.541944,1.07796 z m 13.4480898,-4.03457 c 0.5436447,-0.28113 1.4882601,-1.08041 2.0991478,-1.77616 4.2211272,-4.8076 -3.632574,-9.88272 -17.2402116,-11.14076 -7.046954,-0.65149 -15.170915,0.22883 -20.306601,2.20046 -1.69273,0.64985 -1.921256,0.82442 -1.206377,0.92156 3.175671,0.43151 7.815513,1.90963 15.102466,4.81122 8.335144,3.31897 12.131245,4.51993 16.1254761,5.10159 3.2028765,0.46641 4.3440985,0.44161 5.4260997,-0.11791 z m 303.2229352,5.6324 c -5.48559,-1.73268 -30.66217,-4.766 -39.57489,-4.76805 -2.14062,-3.5e-4 -2.20896,0.16143 -1.11344,2.63803 1.27829,2.88984 -0.45593,3.12216 -1.82217,0.2441 -1.04327,-2.19775 -1.0995,-5.09832 -0.13095,-6.7567 0.93497,-1.60087 0.94093,-1.60172 15.1492,-2.13766 17.76853,-0.67023 29.1266,-0.11417 30.74603,1.50525 1.15668,1.1567 -0.55429,2.63502 -3.93492,3.3998 -2.17841,0.4928 -8.6239,1.09538 -12.17084,1.13782 -2.51901,0.0302 -2.31609,0.0887 4.23334,1.22098 10.06563,1.7402 11.91521,2.33071 10.94853,3.4955 -0.51629,0.62207 -0.42919,0.62129 -2.32989,0.0209 z m -2.14489,-7.36366 c 4.53672,-0.87366 4.29729,-1.13174 -1.55561,-1.6767 -2.96866,-0.27642 -8.09925,-0.33117 -15.85425,-0.1692 -14.85936,0.31036 -21.16519,0.69286 -21.54464,1.30686 -0.15906,0.25738 -0.20591,0.55193 -0.1041,0.65456 0.81001,0.81645 34.74025,0.7161 39.0586,-0.11552 z m -238.577486,7.20362 c -0.783339,-0.49571 0.05883,-2.79136 1.713731,-4.67143 2.317129,-2.6324 6.810255,-4.59397 13.255279,-5.78689 4.237422,-0.78431 13.30753,-0.79676 17.686631,-0.0243 8.325255,1.46858 13.886985,5.07968 13.886985,9.01652 0,0.98051 -0.11109,1.12429 -0.79375,1.02734 -0.52383,-0.0744 -0.83393,-0.39669 -0.9119,-0.94778 -0.10676,-0.7546 -0.24271,-0.81337 -1.41111,-0.61003 -9.180566,1.59774 -17.395103,2.1132 -25.767518,1.6169 -5.411068,-0.32076 -11.458218,-0.99154 -14.580524,-1.61734 -0.834168,-0.16719 -1.021694,-0.032 -1.481303,1.06802 -0.552838,1.32312 -0.77209,1.4507 -1.596521,0.92899 z m 29.159645,-2.13702 c 5.306282,-0.29457 12.341601,-1.11714 13.815021,-1.61526 0.72742,-0.24592 -0.48319,-1.4584 -2.429267,-2.43301 -4.125323,-2.06599 -9.377863,-3.00926 -16.756944,-3.00926 -5.906774,0 -10.066207,0.57123 -14.155822,1.94407 -2.544283,0.85409 -6.1289,2.80293 -6.1289,3.33208 0,0.39511 8.525227,1.48015 13.934722,1.77353 2.522361,0.1368 4.824236,0.27042 5.115278,0.29695 0.291041,0.0265 3.263702,-0.10357 6.605912,-0.2891 z m 19.966561,0.439 c -1.25821,-2.56228 -1.33223,-5.43775 -0.20434,-7.9375 0.78145,-1.73193 0.98266,-1.8816 1.81822,-1.35255 0.41836,0.26489 0.40497,0.53309 -0.0882,1.76562 -0.94788,2.36899 -0.80743,2.46545 1.79976,1.23605 2.86369,-1.35034 5.89949,-2.11763 11.15217,-2.8187 4.99358,-0.66649 17.39447,-1.03856 23.24367,-0.69741 4.28549,0.24995 4.49792,0.29815 4.49796,1.02057 l 5e-5,0.75822 h -11.20075 c -11.56412,0 -15.73341,0.30775 -21.73853,1.60457 -2.86065,0.61777 -6.92471,2.14491 -6.92471,2.60208 0,0.1038 0.63409,0.51222 1.40908,0.90759 1.97731,1.00875 6.52515,2.01847 11.29092,2.50683 4.71555,0.48322 18.15144,0.58585 23.9007,0.18257 l 3.96875,-0.27838 v 0.91168 c 0,0.50142 -0.19844,0.92138 -0.44097,0.93325 -21.5668,1.05517 -33.76747,0.16324 -39.89808,-2.91677 -0.7464,-0.37499 -1.42207,-0.61683 -1.50148,-0.53743 -0.0794,0.0794 0.25542,0.89627 0.74404,1.81524 0.94056,1.76896 0.89921,2.32294 -0.17339,2.32294 -0.45133,0 -0.97246,-0.63878 -1.65487,-2.02847 z m 66.03169,1.64449 c -9.39081,-0.3959 -15.94667,-1.6089 -19.36895,-3.58375 -2.77263,-1.59996 -2.56717,-2.43201 1.0237,-4.14577 2.67517,-1.27674 6.7177,-2.26061 12.34803,-3.00524 4.98248,-0.65896 22.12967,-1.06673 26.81111,-0.63759 2.8428,0.2606 3.175,0.36488 3.175,0.99661 0,0.6908 -0.19553,0.70307 -9.34861,0.58659 -13.04314,-0.16599 -24.88248,0.85762 -29.45694,2.54679 -1.27557,0.47102 0.42305,0.52346 17.68389,0.54593 16.75601,0.0218 19.15031,0.0915 19.54657,0.56897 0.28494,0.34333 0.32801,0.66769 0.11672,0.87898 -0.20118,0.20118 -8.28578,0.37125 -20.25213,0.42602 -21.41667,0.098 -21.86971,0.14958 -14.802,1.68444 6.41289,1.39266 16.01371,1.74282 35.10139,1.28024 1.89858,-0.046 2.11667,0.0214 2.11667,0.65426 0,0.60273 -0.3085,0.73761 -2.11667,0.92549 -3.6966,0.38408 -16.3625,0.54006 -22.57778,0.27803 z m 152.91686,-2.1585 c -0.23587,-1.39836 -0.33556,-3.54149 -0.22155,-4.7625 l 0.2073,-2.22002 -4.30823,0.004 c -2.36954,0.002 -6.21327,0.16481 -8.5416,0.3618 -7.08349,0.59928 -6.68888,0.61417 -6.81288,-0.25715 -0.0902,-0.63356 0.1015,-0.80829 1.05833,-0.96495 5.98058,-0.97912 25.42505,-1.28932 34.68233,-0.55328 7.41211,0.58934 8.08951,0.72792 8.22664,1.68299 0.1356,0.94479 0.42806,0.93306 -6.46275,0.25903 -2.91042,-0.28468 -7.70118,-0.52086 -10.64613,-0.52484 l -5.3545,-0.007 -0.25594,2.02847 c -0.14986,1.1879 -0.0873,3.01795 0.15103,4.41627 0.5335,3.13061 0.54077,3.08026 -0.44313,3.08026 -0.77995,0 -0.88547,-0.20975 -1.27892,-2.54248 z m 40.75814,1.80501 c -10.28428,-0.48343 -11.62466,-0.73013 -10.8241,-1.99213 0.21819,-0.34394 1.50788,-0.35374 6.0797,-0.0462 3.19151,0.21468 10.80336,0.39947 16.91524,0.41062 10.81299,0.0198 14.40391,-0.23884 16.83625,-1.21238 l 0.97902,-0.39186 -1.05833,-0.35018 c -0.59136,-0.19567 -8.84142,-0.47765 -18.69722,-0.63907 -9.70139,-0.15889 -18.27389,-0.42977 -19.05,-0.60195 -3.50972,-0.77866 -4.0229,-2.26574 -1.14921,-3.33021 6.83648,-2.53235 21.03557,-3.33725 35.89782,-2.03494 5.33083,0.46711 5.64444,0.54823 5.64444,1.45989 0,0.72683 -0.10025,0.74373 -3.0868,0.52012 -17.37889,-1.30119 -25.35749,-1.13475 -34.05911,0.71048 -1.85804,0.394 -2.63408,0.69916 -2.3925,0.94075 0.22482,0.22482 6.94348,0.45615 18.09591,0.62307 18.48718,0.27669 20.65161,0.45861 21.60214,1.81569 1.08779,1.55307 -0.74168,2.87217 -5.06956,3.65523 -3.52873,0.63846 -17.69763,0.88453 -26.66369,0.46307 z m -162.71589,-3.464 c 0.59541,-6.56625 6.84256,-12.72157 15.44084,-15.21387 3.64751,-1.05727 11.10915,-1.33475 14.807,-0.55064 8.04284,1.70545 14.33833,7.44768 16.0069,14.60019 0.52987,2.27139 0.47428,2.54357 -0.51971,2.54357 -0.63119,0 -0.78246,-0.30153 -1.20685,-2.40614 -0.18331,-0.90893 -0.36707,-1.1182 -0.82011,-0.93391 -10.64986,4.33218 -27.86722,4.87978 -38.49424,1.22432 -1.64196,-0.5648 -3.04197,-0.97033 -3.11111,-0.90118 -0.0691,0.0691 -0.23527,0.8953 -0.36916,1.8359 -0.20632,1.4495 -0.37183,1.72839 -1.08586,1.8297 -0.82639,0.11725 -0.83872,0.0786 -0.6477,-2.02794 z m 33.77562,-1.04187 c 3.66694,-0.64563 8.9076,-2.13555 9.46213,-2.69008 0.44475,-0.44474 -1.49564,-3.38867 -3.48287,-5.28416 -2.42132,-2.30954 -6.02527,-4.14796 -9.76058,-4.97899 -3.21067,-0.7143 -10.45641,-0.53275 -13.68118,0.34278 -5.2523,1.42603 -10.89939,5.23404 -12.81084,8.63875 l -0.81639,1.45418 0.99278,0.38987 c 3.82051,1.50032 7.1639,2.28501 12.45806,2.92387 3.08112,0.37181 13.73678,-0.10919 17.63889,-0.79622 z M 182.33571,302.7442 c -25.92621,-1.65735 -50.75506,-7.47104 -75.51924,-17.68288 -6.923265,-2.8549 -21.260616,-9.9683 -27.668257,-13.72745 C 50.544303,254.5529 27.780012,233.62266 11.629129,209.25459 -0.75422119,190.57088 -8.1356305,171.62957 -10.846604,151.57996 -11.71612,145.14927 -11.730641,131.05511 -10.87405,124.94524 -8.4038863,107.32619 -1.8448796,91.837206 9.1439648,77.673012 12.46923,73.386868 19.925866,65.743186 24.399152,62.035153 44.745494,45.169478 71.850031,34.57912 103.1371,31.270446 c 11.57637,-1.224225 30.4642,-1.052724 43.03889,0.390793 52.19541,5.991798 102.39813,30.102892 137.4145,65.99673 31.29925,32.083541 47.394,70.440191 44.41521,105.849301 -3.32027,39.46858 -29.1918,71.84752 -70.35193,88.04744 -14.34151,5.64457 -28.83186,9.00778 -46.00305,10.6773 -6.67025,0.64854 -22.77921,0.92999 -29.31501,0.51219 z m 8.30631,-160.67321 c 1.2585,-1.25849 1.11766,-2.49313 -0.46496,-4.07574 -3.8707,-3.87071 -9.95742,-1.22154 -6.53592,2.84468 1.86183,2.21265 5.39756,2.83439 7.00088,1.23106 z"
         style="fill:#9bb9dc;stroke-width:0.35277778" />
      <path
         id="path177"
         d="m 25.764564,360.22182 c -5.377099,-0.69782 -10.273982,-2.45547 -12.921883,-4.63809 -2.187332,-1.80299 -3.5663963,-5.56627 -2.039772,-5.56627 0.429109,0 0.818787,0.55195 1.253198,1.77506 1.340463,3.77416 6.904947,6.18936 16.293729,7.07211 12.404803,1.1663 25.108119,-2.55979 26.686387,-7.82758 0.453083,-1.51226 1.710601,-1.99412 1.710601,-0.65548 0,3.41792 -4.776657,7.06041 -11.497828,8.76778 -5.430467,1.3795 -13.637616,1.83124 -19.484432,1.07247 z m -58.094128,-0.89895 c -8.474986,-1.52865 -14.734858,-5.01501 -15.533497,-8.65118 -0.820639,-3.73635 2.284892,-7.17005 8.554085,-9.45802 4.045391,-1.47639 8.004153,-2.14664 14.064124,-2.38116 14.387114,-0.55679 25.94665406,3.56887 27.1724792,9.698 0.2993425,1.49671 -0.6112474,3.88166 -1.98428678,5.19712 -0.57864023,0.55437 -1.05207152,1.11774 -1.05207152,1.25192 0,0.13419 0.45759863,0.43352 1.01688899,0.66519 0.55929036,0.23166 1.47210281,0.89772 2.02847221,1.48011 0.9624942,1.00752 0.9800978,1.08204 0.3627931,1.53555 -0.570932,0.41944 -0.8364996,0.33336 -2.21292203,-0.71729 -1.91197447,-1.45944 -3.55687847,-1.83098 -4.94473797,-1.11686 -1.7760068,0.91383 -5.8469742,2.03258 -9.3032722,2.55666 -4.324198,0.65568 -14.384397,0.62243 -18.168055,-0.06 z m 16.756944,-1.54789 c 3.605467,-0.45593 7.4461405,-1.41372 7.2088093,-1.79773 -0.1071915,-0.17344 -0.5620456,-0.31534 -1.0107824,-0.31534 -1.9462719,0 -8.2367399,-1.96155 -15.1485459,-4.72374 -10.707917,-4.27925 -13.25946,-5.02483 -17.824013,-5.20832 -1.723855,-0.0693 -1.981178,0.0206 -2.723832,0.95202 -3.519826,4.41428 1.876753,8.79672 13.446975,10.91998 2.948566,0.54109 12.34052,0.6424 16.051389,0.17313 z m 12.9166302,-4.25461 c 3.32027041,-2.05204 3.60191408,-5.11055 0.7048395,-7.65421 -6.4101134,-5.62816 -25.8877117,-7.14008 -37.0811917,-2.87836 l -2.116667,0.80587 2.293056,0.42902 c 3.721283,0.69622 6.094761,1.48312 14.343062,4.75531 8.167046,3.23994 11.705301,4.3797 15.1651654,4.88507 3.6752319,0.53683 5.4125848,0.44786 6.6917358,-0.3427 z m 111.6096198,4.87556 c -1.39591,-2.28801 -1.84896,-4.30837 -1.42455,-6.35274 0.2132,-1.02696 0.7127,-2.40172 1.11,-3.05503 0.63213,-1.03946 0.78647,-1.12372 1.23559,-0.67459 0.44913,0.44912 0.42025,0.72345 -0.23122,2.19621 -0.40946,0.92564 -0.67792,1.74953 -0.59658,1.83087 0.0813,0.0813 1.08818,-0.32199 2.23744,-0.89628 4.35304,-2.17523 12.3095,-3.41809 23.95557,-3.74203 3.88056,-0.10794 8.88118,-0.0678 11.1125,0.0893 3.5409,0.24923 4.05694,0.3651 4.05694,0.91089 0,0.58437 -0.7975,0.63265 -12.17083,0.73684 -12.37988,0.1134 -15.67326,0.37361 -21.16667,1.67233 -3.12374,0.7385 -6.0523,1.97723 -6.25578,2.64609 -0.17858,0.58703 3.14062,1.83158 6.93392,2.59991 5.45683,1.10527 13.29733,1.53291 22.95798,1.25219 4.75368,-0.13813 9.03993,-0.27575 9.525,-0.30581 0.66497,-0.0412 0.88194,0.11891 0.88194,0.65089 0,0.64253 -0.33091,0.73121 -3.70417,0.99272 -5.84473,0.4531 -23.91601,0.0538 -27.86944,-0.61579 -3.8169,-0.64647 -7.40637,-1.70705 -9.08403,-2.68405 -1.33658,-0.77838 -1.41805,-0.49006 -0.41635,1.47343 1.17602,2.30519 0.22306,3.4224 -1.08726,1.27466 z m 149.82028,0.74054 c -1.75048,-0.99022 -2.57845,-6.02277 -1.38416,-8.41345 0.6011,-1.20334 0.68308,-1.24064 3.22375,-1.46742 5.81763,-0.51929 25.96843,-1.06681 31.08332,-0.84457 8.75658,0.38045 11.64167,1.00111 11.64167,2.50443 0,1.76918 -3.65686,2.82494 -11.55777,3.33677 -2.85955,0.18524 -5.91355,0.35925 -6.78667,0.38667 -1.57156,0.0494 -1.56623,0.0531 0.52916,0.37232 5.4301,0.82725 10.85346,1.803 13.67014,2.45948 2.64125,0.61559 3.08681,0.82369 3.08681,1.44176 0,0.82769 0.31422,0.85519 -6.58185,-0.57597 -5.21441,-1.08216 -12.62972,-2.07997 -21.11121,-2.84073 -7.41295,-0.66491 -15.76486,-1.17935 -16.12886,-0.99346 -0.13959,0.0713 0.0665,0.94244 0.45812,1.93586 0.86349,2.19071 0.80832,3.23613 -0.14245,2.69831 z m 35.92153,-6.65265 c 3.73009,-0.41128 6.52638,-1.01249 6.52638,-1.40317 0,-0.5418 -2.40615,-0.73716 -11.64166,-0.94517 -10.24227,-0.23069 -29.87827,0.42215 -30.60347,1.01748 -0.24254,0.1991 -0.44098,0.57451 -0.44098,0.83424 0,0.60105 2.15329,0.68651 19.57917,0.77705 7.37306,0.0383 14.83431,-0.0879 16.58056,-0.28043 z m 33.19547,6.76145 c -0.52151,-0.84379 -0.93342,-5.78168 -0.62424,-7.48283 0.25848,-1.42215 0.2263,-1.83896 -0.15332,-1.98463 -0.2643,-0.10141 -3.85643,0.0238 -7.98255,0.27833 -10.08366,0.62196 -11.38259,0.6192 -11.38259,-0.0242 0,-0.71586 1.45133,-0.9533 8.82844,-1.44435 11.75819,-0.78267 34.51642,0.085 34.99581,1.33422 0.38618,1.00642 -0.48966,1.10913 -5.37147,0.62989 -2.71639,-0.26667 -7.59389,-0.59638 -10.83885,-0.73269 l -5.9,-0.24784 -0.39415,1.01691 c -0.34354,0.88632 -0.29909,4.3728 0.10057,7.88506 0.10111,0.88853 -0.85037,1.46354 -1.27765,0.77215 z M 59.130918,358.98674 c -0.649259,-0.64926 1.293188,-4.22845 3.001243,-5.53015 4.833944,-3.68391 13.014342,-5.46957 23.315348,-5.08937 6.842495,0.25254 11.511057,1.22848 15.334331,3.20557 2.67437,1.38297 5.18603,4.58672 4.93389,6.29343 -0.16379,1.10866 -0.92411,1.15098 -1.4127,0.0786 -0.4867,-1.06817 -0.0787,-1.07235 -6.986761,0.0716 -5.348492,0.88569 -23.084395,0.89444 -29.104167,0.0144 -2.328333,-0.3404 -4.907816,-0.71603 -5.73218,-0.83472 -1.458641,-0.21003 -1.504774,-0.18619 -1.719792,0.8889 -0.204579,1.0229 -1.043657,1.48733 -1.629212,0.90178 z m 31.835351,-1.91507 c 5.138907,-0.44093 11.600321,-1.41024 11.825101,-1.77395 0.27472,-0.4445 -2.61719,-2.39313 -4.752665,-3.20245 -4.06532,-1.5407 -8.292867,-2.18735 -14.480769,-2.21497 -6.026006,-0.0269 -9.223217,0.35396 -13.581945,1.61788 -3.625314,1.05125 -7.80735,3.34932 -7.201958,3.95756 0.313023,0.31449 6.990923,1.25636 11.215529,1.58186 5.440764,0.41921 12.326891,0.43303 16.976707,0.0341 z m 78.180371,1.71362 c -4.26791,-0.37618 -9.7326,-1.4629 -12.30338,-2.44668 -2.17635,-0.83284 -3.85421,-2.21061 -3.57577,-2.93622 0.29545,-0.76991 3.96496,-2.56942 6.85561,-3.36195 6.31063,-1.73017 20.41798,-2.77309 31.49245,-2.32815 6.39867,0.25708 6.63019,0.29199 6.52639,0.98416 -0.10568,0.70473 -0.29463,0.71643 -10.51456,0.65162 -10.58154,-0.0671 -16.6983,0.26574 -22.40139,1.21894 -3.90622,0.65289 -7.23194,1.55716 -7.23194,1.96638 0,0.16949 8.66602,0.30629 19.40277,0.30629 19.1676,0 19.40278,0.009 19.40278,0.70556 0,0.69699 -0.24509,0.70591 -20.19653,0.73528 -19.87458,0.0292 -20.17403,0.04 -18.78541,0.67651 1.73442,0.79498 5.64968,1.61709 10.27012,2.15647 3.6509,0.42621 18.68323,0.60935 26.24238,0.31972 4.25589,-0.16306 4.4134,-0.14344 4.51526,0.56247 0.0998,0.69193 -0.10973,0.74383 -3.88056,0.96111 -5.42955,0.31285 -21.53693,0.20585 -25.81822,-0.17151 z m 195.3988,-0.30028 c -2.13431,-0.14514 -4.64566,-0.2841 -5.58081,-0.30878 -1.55084,-0.0409 -1.6903,-0.11461 -1.58732,-0.83863 0.0743,-0.5221 0.33595,-0.77501 0.76457,-0.73901 0.35843,0.0301 4.94715,0.25127 10.19719,0.49147 14.53659,0.66506 27.34729,0.1058 29.61005,-1.29266 1.45824,-0.90126 -8.70296,-1.51744 -25.31318,-1.53501 -6.32161,-0.007 -11.84537,-0.17397 -13.05278,-0.39528 -2.08859,-0.38282 -3.328,-1.10001 -3.328,-1.92574 0,-0.94494 4.9065,-2.3418 11.04237,-3.1437 6.76123,-0.88364 23.52682,-0.67666 30.86763,0.38106 1.14825,0.16545 1.48946,0.35825 1.40377,0.79324 -0.13882,0.705 -0.96488,0.71059 -9.61002,0.0651 -6.85197,-0.51161 -19.08796,-0.34125 -23.12042,0.32192 -3.4678,0.5703 -7.40833,1.52169 -7.40833,1.78865 0,0.48676 5.12321,0.68712 17.63889,0.68985 18.12216,0.004 22.93055,0.55374 22.93055,2.62191 0,1.10855 -0.92738,1.74267 -3.70416,2.53286 -1.79466,0.5107 -4.07561,0.61408 -14.99306,0.6795 -7.08201,0.0424 -14.62264,-0.0416 -16.75694,-0.18673 z m -159.14818,-3.00029 c 0.83268,-7.08483 6.72096,-12.78145 15.9204,-15.4022 3.7465,-1.06732 11.79138,-1.16022 15.34583,-0.17721 7.13818,1.97411 12.13563,6.31829 14.28884,12.42102 1.07904,3.05823 1.1417,4.39391 0.20606,4.39391 -0.50521,0 -0.73096,-0.33392 -0.89927,-1.33014 -0.3823,-2.26286 -0.47522,-2.29872 -3.38687,-1.30709 -5.93881,2.02263 -15.58541,3.24684 -22.37959,2.84011 -6.65212,-0.39822 -13.12999,-1.70153 -16.13162,-3.24559 -1.06755,-0.54915 -1.00967,-0.64256 -1.50293,2.42535 -0.16712,1.03943 -0.37088,1.32291 -0.95084,1.32291 -0.68721,0 -0.7224,-0.13393 -0.51001,-1.94107 z m 33.73568,-1.04875 c 3.76565,-0.68544 9.87777,-2.53172 9.87777,-2.98376 0,-0.79393 -3.0722,-4.74911 -4.69385,-6.04288 -4.70595,-3.75451 -11.47416,-5.43607 -18.39274,-4.56966 -7.50676,0.94006 -13.9777,4.48095 -17.04565,9.32735 -0.84749,1.33876 -0.85458,1.40018 -0.21578,1.8678 1.02425,0.74978 5.96751,2.17752 9.47997,2.73806 4.35109,0.69436 16.38596,0.5012 20.99028,-0.33691 z M 183.92321,302.66793 C 152.67896,301.34623 117.74022,291.72385 88.496824,276.38682 67.146332,265.18932 49.518457,252.20835 33.440864,235.84423 20.24326,222.41142 10.942401,209.77982 3.0859272,194.61885 -14.663212,160.36759 -16.348064,125.05505 -1.6606837,95.135512 4.3446524,82.902096 12.642624,72.237902 23.229602,63.147602 54.399088,36.384536 102.11377,25.24672 153.65985,32.701879 c 61.47104,8.890615 119.90815,44.067563 150.89354,90.832241 4.93314,7.44534 6.75795,10.56853 10.09988,17.28612 13.39903,26.93342 16.97934,54.42544 10.37174,79.64111 -7.53953,28.77203 -28.12037,52.48136 -58.08779,66.91777 -15.76052,7.59241 -32.52202,12.24086 -52.19032,14.4739 -5.17364,0.58738 -19.71095,1.32887 -22.88619,1.16732 -1.06715,-0.0543 -4.63902,-0.21288 -7.9375,-0.35241 z m 27.86945,-20.23511 c 29.22196,-2.52971 54.82713,-12.43485 73.3601,-28.37873 13.87863,-11.93975 23.53614,-27.25588 27.87964,-44.21525 1.75888,-6.86754 2.33518,-11.22961 2.55108,-19.30972 0.33796,-12.64798 -1.3159,-23.39573 -5.48242,-35.62791 -3.81963,-11.21376 -8.11978,-19.81201 -15.42266,-30.83792 -6.51842,-9.84151 -13.20691,-17.83088 -22.47181,-26.842505 C 238.81254,64.739632 191.35516,43.671855 143.88294,40.254001 136.35314,39.711879 118.26023,40.00666 111.78016,40.777039 75.374807,45.105064 46.50286,59.972369 28.924306,83.442785 20.375312,94.857181 15.185171,107.4578 12.79373,122.60461 c -0.681976,4.31948 -0.943371,15.61538 -0.474582,20.50868 2.102016,21.94123 11.04905,43.45896 26.476533,63.67639 23.554355,30.86754 59.448178,54.94945 100.501139,67.42829 14.09021,4.28299 29.9269,7.26759 44.45,8.37709 5.97595,0.45654 21.96659,0.36404 28.04584,-0.16224 z m -19.40278,-48.2089 c -31.70674,-1.94299 -65.28505,-16.27015 -88.85109,-37.9109 -3.683082,-3.38219 -6.118078,-5.92185 -10.249437,-10.69001 -12.418896,-14.33311 -19.907934,-29.9118 -22.470484,-46.74305 -0.682103,-4.48018 -0.509722,-14.08323 0.338935,-18.88123 6.482993,-36.65255 45.238346,-58.700809 93.891796,-53.415863 38.59392,4.192235 76.21877,24.824208 97.85132,53.657773 9.43179,12.57143 15.19424,25.31733 17.53686,38.78954 1.09008,6.26893 1.09516,15.4054 0.012,21.44171 -3.47952,19.38979 -15.89712,34.95363 -35.49594,44.48955 -7.99592,3.89048 -15.26995,6.21465 -24.69444,7.89027 -7.93195,1.41027 -18.64266,1.93763 -27.86945,1.37221 z m -2.79337,-91.28702 c 0.91049,0 1.91143,-1.36061 1.91143,-2.59826 0,-3.18304 -5.34725,-5.7262 -7.86908,-3.74253 -0.49977,0.39311 -1.00682,1.02401 -1.12679,1.40199 -0.29724,0.93653 0.7552,3.03659 1.9471,3.8853 1.05249,0.74944 3.40173,1.42245 4.1672,1.19383 0.25841,-0.0772 0.69497,-0.14033 0.97014,-0.14033 z"
         style="fill:#9c9fa3;stroke-width:0.35277778" />
      <path
         id="path175"
         d="m 27.048517,360.24508 c -8.286489,-0.95482 -14.916828,-3.95184 -16.198085,-7.3218 -0.767013,-2.0174 -0.776887,-2.55304 -0.04706,-2.55304 0.490859,0 0.761154,0.30726 0.905588,1.02943 0.885236,4.42616 9.97451,7.79001 21.048977,7.79001 11.360654,0 21.315327,-3.62286 22.498254,-8.18793 0.166765,-0.64356 0.565298,-1.2106 0.895558,-1.2742 1.524304,-0.29356 -0.185106,3.6123 -2.348551,5.36625 -2.71666,2.20244 -6.504989,3.6796 -11.873039,4.62959 -3.767843,0.66679 -11.323602,0.93167 -14.881641,0.52169 z m -57.359907,-0.7271 c -6.312849,-0.82016 -12.986177,-3.3588 -15.538446,-5.91107 -4.918911,-4.91891 -0.596276,-10.61362 10.11979,-13.33198 12.181561,-3.0901 28.6483814,-1.06708 34.89514806,4.28703 1.86251494,1.59636 2.54838904,2.87477 2.54838904,4.74995 0,1.71447 -0.5987415,2.97432 -2.08517066,4.38752 -1.26802794,1.20557 -1.33408204,1.48463 -0.42007013,1.77472 0.36836702,0.11692 1.3400158,0.69811 2.15922229,1.29154 1.3335987,0.96605 1.433269,1.13515 0.9524823,1.61594 -0.4807832,0.48079 -0.6975087,0.42861 -2.07102426,-0.49864 -2.82659664,-1.90821 -3.42355314,-2.01403 -5.63936444,-0.9996 -5.4758342,2.50693 -16.7387482,3.69761 -24.9209562,2.63459 z m 11.777123,-1.40014 c 4.56196,-0.36732 10.7227581,-1.56648 10.7227581,-2.0871 0,-0.15287 -0.775469,-0.38081 -1.723263,-0.50653 -3.4454391,-0.45706 -7.4367281,-1.73156 -15.5628481,-4.96954 -8.616971,-3.43356 -12.264697,-4.53724 -16.342251,-4.94459 -2.055258,-0.20532 -2.512208,-0.14578 -3.122923,0.40691 -4.215161,3.81466 -0.293366,8.4795 9.146519,10.87947 5.842364,1.48534 9.930441,1.78111 16.882008,1.22138 z m 16.2757449,-4.78985 c 3.6585948,-2.79055 3.2977385,-5.81819 -1.0265727,-8.61312 -7.1402792,-4.61499 -23.6166762,-5.70303 -34.4652632,-2.27596 -1.562725,0.49367 -2.931439,1.0434 -3.041594,1.22163 -0.110151,0.17823 0.39945,0.42403 1.132445,0.54624 3.597871,0.59983 7.503227,1.86075 14.818702,4.78449 6.96008,2.7817 12.151773,4.48699 15.2654072,5.01412 0.4850695,0.0821 2.0575835,0.17094 3.4944791,0.19736 2.314448,0.0426 2.7505766,-0.0572 3.8223966,-0.87476 z M 108.59046,357.3376 c -0.70558,-1.49145 -1.04317,-2.75443 -1.04336,-3.90335 -3.1e-4,-1.92582 1.24582,-5.18068 1.98344,-5.18068 0.62756,0 0.61468,0.66354 -0.0434,2.23865 -0.94463,2.26082 -0.74883,2.379 1.85209,1.11782 5.44977,-2.64259 10.77486,-3.38586 25.87749,-3.61193 11.84169,-0.17725 13.80185,-0.0247 13.15389,1.02373 -0.16285,0.2635 -2.19476,0.30615 -6.62447,0.13905 -11.13289,-0.41996 -23.35536,0.62328 -29.03897,2.4786 -3.36332,1.0979 -4.55265,1.8464 -3.91827,2.46597 0.85956,0.83949 4.24653,1.93461 8.36135,2.7035 3.74933,0.70059 5.26474,0.76641 17.94179,0.77922 10.55657,0.0107 13.84656,0.11498 13.84653,0.43899 -7e-5,0.77198 -2.52589,0.94969 -13.75837,0.96801 -14.881,0.0243 -21.23647,-0.77789 -26.19375,-3.30601 -2.27583,-1.16063 -2.44837,-0.9531 -1.128,1.3568 0.8665,1.51589 0.92697,2.49649 0.15395,2.49649 -0.20835,0 -0.84821,-0.99219 -1.4219,-2.20486 z m 189.80914,1.45847 c -6.16507,-1.55841 -18.10723,-3.09991 -31.04444,-4.00723 -9.19505,-0.64486 -9.17222,-0.6446 -9.17222,-0.10389 0,0.23878 0.34589,1.26871 0.76866,2.28873 0.78074,1.88361 0.72881,2.46 -0.18986,2.10748 -0.67293,-0.25823 -1.98992,-3.82157 -1.98992,-5.3841 0,-1.71522 0.86699,-3.61373 1.83374,-4.01554 2.1583,-0.89704 33.76581,-1.45737 39.76631,-0.70498 3.28765,0.41224 5.06903,1.13713 4.90037,1.99408 -0.34904,1.77339 -4.70472,2.85346 -12.63375,3.13276 -8.78392,0.30941 -9.12692,0.48218 -2.82222,1.42155 6.06838,0.90415 13.7686,2.50321 14.23913,2.95695 0.38107,0.36749 -0.0268,1.07379 -0.58981,1.0218 -0.2311,-0.0213 -1.61078,-0.33975 -3.06599,-0.70761 z m -2.29305,-6.31963 c 1.74625,-0.22683 3.73062,-0.6536 4.40972,-0.94837 l 1.23472,-0.53595 -1.05833,-0.31504 c -2.68944,-0.80058 -12.47528,-1.05862 -24.80039,-0.65396 -6.84925,0.22487 -13.51675,0.51403 -14.81666,0.64257 -2.09843,0.2075 -2.37614,0.32274 -2.47626,1.02747 -0.0964,0.67915 0.0564,0.80049 1.05834,0.84044 0.6441,0.0257 3.6317,0.16701 6.63913,0.31407 7.45335,0.36446 25.91605,0.13454 29.80973,-0.37123 z m 31.67482,6.12094 c -0.15268,-0.54736 -0.2776,-2.78122 -0.2776,-4.96413 v -3.96893 l -2.99861,0.001 c -2.92527,10e-4 -10.48604,0.47354 -14.55209,0.90946 -1.85144,0.19849 -2.02847,0.15732 -2.02847,-0.47171 0,-0.59341 0.33091,-0.72048 2.38125,-0.9144 10.87847,-1.02889 25.23317,-1.12136 34.84958,-0.22448 5.54133,0.51682 6.16084,0.64666 6.16084,1.29116 0,0.48162 -0.37733,0.52682 -2.73403,0.32753 -7.8353,-0.66262 -11.92812,-0.90299 -15.49844,-0.91023 -3.78206,-0.008 -3.95574,0.0248 -4.2055,0.78574 -0.22825,0.69553 -0.24102,3.87866 -0.0307,7.63934 0.0837,1.49594 -0.6876,1.85732 -1.06631,0.49961 z M 59.216269,358.49594 c 0,-1.17253 1.250509,-3.32549 2.640323,-4.54576 4.270128,-3.74923 14.143863,-6.05929 23.81801,-5.57249 9.520167,0.47906 16.735428,3.04692 18.855418,6.7105 1.08474,1.87454 1.27351,3.16293 0.4864,3.31967 -0.39293,0.0782 -0.62869,-0.1546 -0.70555,-0.69686 -0.13828,-0.97552 0.0471,-0.97778 -6.641823,0.0807 -7.339958,1.16148 -21.618889,1.18673 -29.633334,0.0524 -3.00743,-0.42566 -5.816497,-0.86889 -6.242374,-0.98495 -0.651147,-0.17746 -0.823041,-0.023 -1.080619,0.97102 -0.351409,1.35614 -1.496451,1.86557 -1.496451,0.66578 z m 37.923611,-1.92083 c 6.76322,-1.08438 6.63555,-0.99467 4.13619,-2.90646 -2.90707,-2.22365 -8.743048,-3.64899 -16.014743,-3.91133 -7.869227,-0.2839 -15.024457,0.89198 -19.630503,3.22604 -1.959247,0.99282 -3.500134,2.18045 -3.208796,2.47315 0.314871,0.31634 3.73454,0.89421 8.530537,1.44151 5.780066,0.6596 21.249089,0.46886 26.187315,-0.32291 z m 73.90694,2.24616 c -7.92037,-0.6314 -13.55277,-1.91468 -16.31597,-3.71741 -0.7276,-0.47469 -1.32291,-1.0967 -1.32291,-1.38223 0,-0.28554 0.59531,-0.90962 1.32291,-1.38685 2.84365,-1.86515 9.37621,-3.36932 17.72709,-4.08181 4.40365,-0.37572 23.66757,-0.47592 24.95902,-0.12982 0.43657,0.11699 0.79375,0.45409 0.79375,0.74911 0,0.47016 -0.86048,0.50624 -6.96736,0.29218 -7.70646,-0.27013 -19.10494,0.20951 -24.59064,1.03476 -3.93645,0.59218 -8.91769,1.85062 -9.21233,2.32734 -0.11181,0.18092 8.1682,0.31314 19.60871,0.31314 18.66936,0 19.79545,0.0353 19.68342,0.61736 -0.11104,0.57697 -1.44571,0.6289 -20.39878,0.79375 -19.55813,0.17011 -20.22762,0.19786 -18.80948,0.77936 0.80876,0.33164 2.47563,0.83245 3.70417,1.11292 5.46975,1.24874 8.83077,1.45911 23.31216,1.45911 10.47678,0 14.37569,0.10845 14.37569,0.39985 0,0.21992 -0.43656,0.4953 -0.97014,0.61196 -1.73056,0.37837 -22.72384,0.54014 -26.89931,0.20728 z m 194.20417,-0.37025 c -7.24037,-0.3694 -7.9375,-0.47754 -7.9375,-1.23121 0,-0.481 0.65543,-0.51142 5.55625,-0.25787 9.18655,0.47528 29.53597,0.3607 32.21528,-0.1814 2.46119,-0.49796 3.45913,-0.92778 3.06627,-1.32065 -0.68996,-0.68995 -4.82088,-0.92266 -20.90585,-1.17771 -18.8316,-0.29859 -20.34364,-0.44535 -20.56547,-1.99616 -0.12227,-0.85484 0.63497,-1.26743 3.88606,-2.11737 4.50818,-1.17859 8.05586,-1.57568 15.97385,-1.78798 7.33026,-0.19655 14.7846,0.0917 20.87125,0.80708 1.54612,0.18171 1.88292,0.34268 1.88292,0.8999 0,0.59558 -0.18341,0.65332 -1.49931,0.47196 -10.81303,-1.49031 -29.00359,-1.13557 -36.33611,0.70862 -5.09316,1.28096 -3.04408,1.48638 17.19792,1.72408 15.07627,0.17704 19.00985,0.45949 20.57089,1.47709 1.72625,1.12529 0.13191,2.66593 -3.63756,3.51509 -3.05033,0.68716 -20.6961,0.9585 -30.33889,0.46653 z m -159.78477,-1.33989 c -0.43486,-0.70361 0.8577,-5.47095 1.99856,-7.37125 2.66205,-4.43414 8.15259,-8.073 14.55843,-9.64865 4.03966,-0.99363 10.4254,-1.07233 14.10138,-0.17378 7.77938,1.90159 13.80447,7.58837 15.35095,14.48906 0.2444,1.09068 0.26253,1.84414 0.0495,2.05719 -0.55051,0.55051 -1.02669,-0.0104 -1.27959,-1.50735 -0.13078,-0.77408 -0.38069,-1.49573 -0.55535,-1.60367 -0.17462,-0.10794 -1.78802,0.27189 -3.58524,0.84406 -5.18647,1.65115 -9.26497,2.23901 -16.85703,2.42972 -8.07067,0.20272 -13.19429,-0.38262 -17.98433,-2.05461 -4.2041,-1.46746 -3.99995,-1.50035 -4.42413,0.71268 -0.35162,1.83449 -0.90957,2.57668 -1.37314,1.8266 z m 27.31672,-1.80735 c 7.16918,-0.62219 15.6791,-2.60148 16.11951,-3.74916 0.27887,-0.72672 -1.84729,-3.78857 -3.99186,-5.74859 -5.81621,-5.31568 -15.85348,-6.76598 -25.27523,-3.65207 -4.6288,1.52983 -9.39127,5.07111 -10.99775,8.17768 -0.30201,0.58405 -0.54912,1.21712 -0.54912,1.40684 0,0.4591 3.37601,1.70076 6.87562,2.52878 5.20265,1.23096 11.41467,1.59232 17.81883,1.03652 z M 179.3371,302.38061 C 129.61873,298.46529 82.380981,278.93171 45.105158,246.87352 40.121269,242.58724 29.118221,231.54542 24.848249,226.54524 6.2006445,204.70866 -5.8466496,180.38232 -9.9187352,156.34246 -12.051958,143.74881 -11.919888,130.68237 -9.5341722,118.29611 -5.7821124,98.815983 5.1585496,79.680956 20.587102,65.614521 33.247394,54.071949 49.316037,44.895057 67.14084,39.02742 c 23.980725,-7.894068 51.02621,-10.354469 79.03448,-7.18998 46.67348,5.273362 92.21936,25.346454 126.74625,55.859919 5.27614,4.662812 15.9881,15.565581 19.78572,20.138151 20.7707,25.00913 32.50656,51.00775 34.99298,77.52035 0.54313,5.79139 0.24549,19.63228 -0.52406,24.37002 -2.87425,17.69524 -9.07108,32.00431 -19.9645,46.09991 -3.14713,4.07225 -12.48544,13.45265 -16.51258,16.58698 -21.44599,16.69155 -45.97403,26.07235 -77.14258,29.50337 -5.77673,0.6359 -28.18101,0.94 -34.21945,0.46447 z m 32.45556,-19.94779 c 29.22196,-2.52971 54.82713,-12.43485 73.3601,-28.37873 13.87863,-11.93975 23.53614,-27.25588 27.87964,-44.21525 1.75888,-6.86754 2.33518,-11.22961 2.55108,-19.30972 0.33796,-12.64798 -1.3159,-23.39573 -5.48242,-35.62791 -3.81963,-11.21376 -8.11978,-19.81201 -15.42266,-30.83792 -6.51842,-9.84151 -13.20691,-17.83088 -22.47181,-26.842505 C 238.81254,64.739632 191.35516,43.671855 143.88294,40.254001 136.35314,39.711879 118.26023,40.00666 111.78016,40.777039 75.374807,45.105064 46.50286,59.972369 28.924306,83.442785 20.375312,94.857181 15.185171,107.4578 12.79373,122.60461 c -0.681976,4.31948 -0.943371,15.61538 -0.474582,20.50868 2.102016,21.94123 11.04905,43.45896 26.476533,63.67639 23.554355,30.86754 59.448178,54.94945 100.501139,67.42829 14.09021,4.28299 29.9269,7.26759 44.45,8.37709 5.97595,0.45654 21.96659,0.36404 28.04584,-0.16224 z m -13.93472,-48.0288 c -28.30055,-0.7429 -57.18076,-10.50357 -80.87377,-27.33296 -22.61518,-16.0638 -38.685329,-37.5539 -44.31992,-59.26762 -4.145259,-15.97438 -2.57077,-31.99175 4.431629,-45.08321 15.239817,-28.49185 53.320881,-42.24807 96.596781,-34.894156 29.37027,4.990917 58.03508,19.663259 78.49305,40.177346 22.4438,22.50537 32.77944,49.998 27.86412,74.11791 -5.16911,25.36526 -26.79047,44.27315 -57.43758,50.22916 -7.21607,1.40239 -9.08379,1.59262 -20.34459,2.07215 -0.77611,0.0331 -2.76049,0.0247 -4.40972,-0.0186 z m -8.26143,-91.46712 c 0.91049,0 1.91143,-1.36061 1.91143,-2.59826 0,-3.18304 -5.34725,-5.7262 -7.86908,-3.74253 -0.49977,0.39311 -1.00682,1.02401 -1.12679,1.40199 -0.29724,0.93653 0.7552,3.03659 1.9471,3.8853 1.05249,0.74944 3.40173,1.42245 4.1672,1.19383 0.25841,-0.0772 0.69497,-0.14033 0.97014,-0.14033 z"
         style="fill:#6997cc;stroke-width:0.35277778" />
      <path
         id="path173"
         d="m 27.048517,360.24508 c -8.286489,-0.95482 -14.916828,-3.95184 -16.198085,-7.3218 -0.767013,-2.0174 -0.776887,-2.55304 -0.04706,-2.55304 0.490859,0 0.761154,0.30726 0.905588,1.02943 0.885236,4.42616 9.97451,7.79001 21.048977,7.79001 11.360654,0 21.315327,-3.62286 22.498254,-8.18793 0.166765,-0.64356 0.565298,-1.2106 0.895558,-1.2742 1.524304,-0.29356 -0.185106,3.6123 -2.348551,5.36625 -2.71666,2.20244 -6.504989,3.6796 -11.873039,4.62959 -3.767843,0.66679 -11.323602,0.93167 -14.881641,0.52169 z m -57.359907,-0.7271 c -6.312849,-0.82016 -12.986177,-3.3588 -15.538446,-5.91107 -4.918911,-4.91891 -0.596276,-10.61362 10.11979,-13.33198 12.181561,-3.0901 28.6483814,-1.06708 34.89514806,4.28703 1.86251494,1.59636 2.54838904,2.87477 2.54838904,4.74995 0,1.71447 -0.5987415,2.97432 -2.08517066,4.38752 -1.26802794,1.20557 -1.33408204,1.48463 -0.42007013,1.77472 0.36836702,0.11692 1.3400158,0.69811 2.15922229,1.29154 1.3335987,0.96605 1.433269,1.13515 0.9524823,1.61594 -0.4807832,0.48079 -0.6975087,0.42861 -2.07102426,-0.49864 -2.82659664,-1.90821 -3.42355314,-2.01403 -5.63936444,-0.9996 -5.4758342,2.50693 -16.7387482,3.69761 -24.9209562,2.63459 z m 11.777123,-1.40014 c 4.56196,-0.36732 10.7227581,-1.56648 10.7227581,-2.0871 0,-0.15287 -0.775469,-0.38081 -1.723263,-0.50653 -3.4454391,-0.45706 -7.4367281,-1.73156 -15.5628481,-4.96954 -8.616971,-3.43356 -12.264697,-4.53724 -16.342251,-4.94459 -2.055258,-0.20532 -2.512208,-0.14578 -3.122923,0.40691 -4.215161,3.81466 -0.293366,8.4795 9.146519,10.87947 5.842364,1.48534 9.930441,1.78111 16.882008,1.22138 z m 16.2757449,-4.78985 c 3.6585948,-2.79055 3.2977385,-5.81819 -1.0265727,-8.61312 -7.1402792,-4.61499 -23.6166762,-5.70303 -34.4652632,-2.27596 -1.562725,0.49367 -2.931439,1.0434 -3.041594,1.22163 -0.110151,0.17823 0.39945,0.42403 1.132445,0.54624 3.597871,0.59983 7.503227,1.86075 14.818702,4.78449 6.96008,2.7817 12.151773,4.48699 15.2654072,5.01412 0.4850695,0.0821 2.0575835,0.17094 3.4944791,0.19736 2.314448,0.0426 2.7505766,-0.0572 3.8223966,-0.87476 z M 108.59046,357.3376 c -0.70558,-1.49145 -1.04317,-2.75443 -1.04336,-3.90335 -3.1e-4,-1.92582 1.24582,-5.18068 1.98344,-5.18068 0.62756,0 0.61468,0.66354 -0.0434,2.23865 -0.94463,2.26082 -0.74883,2.379 1.85209,1.11782 5.44977,-2.64259 10.77486,-3.38586 25.87749,-3.61193 11.84169,-0.17725 13.80185,-0.0247 13.15389,1.02373 -0.16285,0.2635 -2.19476,0.30615 -6.62447,0.13905 -11.13289,-0.41996 -23.35536,0.62328 -29.03897,2.4786 -3.36332,1.0979 -4.55265,1.8464 -3.91827,2.46597 0.85956,0.83949 4.24653,1.93461 8.36135,2.7035 3.74933,0.70059 5.26474,0.76641 17.94179,0.77922 10.55657,0.0107 13.84656,0.11498 13.84653,0.43899 -7e-5,0.77198 -2.52589,0.94969 -13.75837,0.96801 -14.881,0.0243 -21.23647,-0.77789 -26.19375,-3.30601 -2.27583,-1.16063 -2.44837,-0.9531 -1.128,1.3568 0.8665,1.51589 0.92697,2.49649 0.15395,2.49649 -0.20835,0 -0.84821,-0.99219 -1.4219,-2.20486 z m 189.80914,1.45847 c -6.16507,-1.55841 -18.10723,-3.09991 -31.04444,-4.00723 -9.19505,-0.64486 -9.17222,-0.6446 -9.17222,-0.10389 0,0.23878 0.34589,1.26871 0.76866,2.28873 0.78074,1.88361 0.72881,2.46 -0.18986,2.10748 -0.67293,-0.25823 -1.98992,-3.82157 -1.98992,-5.3841 0,-1.71522 0.86699,-3.61373 1.83374,-4.01554 2.1583,-0.89704 33.76581,-1.45737 39.76631,-0.70498 3.28765,0.41224 5.06903,1.13713 4.90037,1.99408 -0.34904,1.77339 -4.70472,2.85346 -12.63375,3.13276 -8.78392,0.30941 -9.12692,0.48218 -2.82222,1.42155 6.06838,0.90415 13.7686,2.50321 14.23913,2.95695 0.38107,0.36749 -0.0268,1.07379 -0.58981,1.0218 -0.2311,-0.0213 -1.61078,-0.33975 -3.06599,-0.70761 z m -2.29305,-6.31963 c 1.74625,-0.22683 3.73062,-0.6536 4.40972,-0.94837 l 1.23472,-0.53595 -1.05833,-0.31504 c -2.68944,-0.80058 -12.47528,-1.05862 -24.80039,-0.65396 -6.84925,0.22487 -13.51675,0.51403 -14.81666,0.64257 -2.09843,0.2075 -2.37614,0.32274 -2.47626,1.02747 -0.0964,0.67915 0.0564,0.80049 1.05834,0.84044 0.6441,0.0257 3.6317,0.16701 6.63913,0.31407 7.45335,0.36446 25.91605,0.13454 29.80973,-0.37123 z m 31.67482,6.12094 c -0.15268,-0.54736 -0.2776,-2.78122 -0.2776,-4.96413 v -3.96893 l -2.99861,0.001 c -2.92527,10e-4 -10.48604,0.47354 -14.55209,0.90946 -1.85144,0.19849 -2.02847,0.15732 -2.02847,-0.47171 0,-0.59341 0.33091,-0.72048 2.38125,-0.9144 10.87847,-1.02889 25.23317,-1.12136 34.84958,-0.22448 5.54133,0.51682 6.16084,0.64666 6.16084,1.29116 0,0.48162 -0.37733,0.52682 -2.73403,0.32753 -7.8353,-0.66262 -11.92812,-0.90299 -15.49844,-0.91023 -3.78206,-0.008 -3.95574,0.0248 -4.2055,0.78574 -0.22825,0.69553 -0.24102,3.87866 -0.0307,7.63934 0.0837,1.49594 -0.6876,1.85732 -1.06631,0.49961 z M 59.216269,358.49594 c 0,-1.17253 1.250509,-3.32549 2.640323,-4.54576 4.270128,-3.74923 14.143863,-6.05929 23.81801,-5.57249 9.520167,0.47906 16.735428,3.04692 18.855418,6.7105 1.08474,1.87454 1.27351,3.16293 0.4864,3.31967 -0.39293,0.0782 -0.62869,-0.1546 -0.70555,-0.69686 -0.13828,-0.97552 0.0471,-0.97778 -6.641823,0.0807 -7.339958,1.16148 -21.618889,1.18673 -29.633334,0.0524 -3.00743,-0.42566 -5.816497,-0.86889 -6.242374,-0.98495 -0.651147,-0.17746 -0.823041,-0.023 -1.080619,0.97102 -0.351409,1.35614 -1.496451,1.86557 -1.496451,0.66578 z m 37.923611,-1.92083 c 6.76322,-1.08438 6.63555,-0.99467 4.13619,-2.90646 -2.90707,-2.22365 -8.743048,-3.64899 -16.014743,-3.91133 -7.869227,-0.2839 -15.024457,0.89198 -19.630503,3.22604 -1.959247,0.99282 -3.500134,2.18045 -3.208796,2.47315 0.314871,0.31634 3.73454,0.89421 8.530537,1.44151 5.780066,0.6596 21.249089,0.46886 26.187315,-0.32291 z m 73.90694,2.24616 c -7.92037,-0.6314 -13.55277,-1.91468 -16.31597,-3.71741 -0.7276,-0.47469 -1.32291,-1.0967 -1.32291,-1.38223 0,-0.28554 0.59531,-0.90962 1.32291,-1.38685 2.84365,-1.86515 9.37621,-3.36932 17.72709,-4.08181 4.40365,-0.37572 23.66757,-0.47592 24.95902,-0.12982 0.43657,0.11699 0.79375,0.45409 0.79375,0.74911 0,0.47016 -0.86048,0.50624 -6.96736,0.29218 -7.70646,-0.27013 -19.10494,0.20951 -24.59064,1.03476 -3.93645,0.59218 -8.91769,1.85062 -9.21233,2.32734 -0.11181,0.18092 8.1682,0.31314 19.60871,0.31314 18.66936,0 19.79545,0.0353 19.68342,0.61736 -0.11104,0.57697 -1.44571,0.6289 -20.39878,0.79375 -19.55813,0.17011 -20.22762,0.19786 -18.80948,0.77936 0.80876,0.33164 2.47563,0.83245 3.70417,1.11292 5.46975,1.24874 8.83077,1.45911 23.31216,1.45911 10.47678,0 14.37569,0.10845 14.37569,0.39985 0,0.21992 -0.43656,0.4953 -0.97014,0.61196 -1.73056,0.37837 -22.72384,0.54014 -26.89931,0.20728 z m 194.20417,-0.37025 c -7.24037,-0.3694 -7.9375,-0.47754 -7.9375,-1.23121 0,-0.481 0.65543,-0.51142 5.55625,-0.25787 9.18655,0.47528 29.53597,0.3607 32.21528,-0.1814 2.46119,-0.49796 3.45913,-0.92778 3.06627,-1.32065 -0.68996,-0.68995 -4.82088,-0.92266 -20.90585,-1.17771 -18.8316,-0.29859 -20.34364,-0.44535 -20.56547,-1.99616 -0.12227,-0.85484 0.63497,-1.26743 3.88606,-2.11737 4.50818,-1.17859 8.05586,-1.57568 15.97385,-1.78798 7.33026,-0.19655 14.7846,0.0917 20.87125,0.80708 1.54612,0.18171 1.88292,0.34268 1.88292,0.8999 0,0.59558 -0.18341,0.65332 -1.49931,0.47196 -10.81303,-1.49031 -29.00359,-1.13557 -36.33611,0.70862 -5.09316,1.28096 -3.04408,1.48638 17.19792,1.72408 15.07627,0.17704 19.00985,0.45949 20.57089,1.47709 1.72625,1.12529 0.13191,2.66593 -3.63756,3.51509 -3.05033,0.68716 -20.6961,0.9585 -30.33889,0.46653 z m -159.78477,-1.33989 c -0.43486,-0.70361 0.8577,-5.47095 1.99856,-7.37125 2.66205,-4.43414 8.15259,-8.073 14.55843,-9.64865 4.03966,-0.99363 10.4254,-1.07233 14.10138,-0.17378 7.77938,1.90159 13.80447,7.58837 15.35095,14.48906 0.2444,1.09068 0.26253,1.84414 0.0495,2.05719 -0.55051,0.55051 -1.02669,-0.0104 -1.27959,-1.50735 -0.13078,-0.77408 -0.38069,-1.49573 -0.55535,-1.60367 -0.17462,-0.10794 -1.78802,0.27189 -3.58524,0.84406 -5.18647,1.65115 -9.26497,2.23901 -16.85703,2.42972 -8.07067,0.20272 -13.19429,-0.38262 -17.98433,-2.05461 -4.2041,-1.46746 -3.99995,-1.50035 -4.42413,0.71268 -0.35162,1.83449 -0.90957,2.57668 -1.37314,1.8266 z m 27.31672,-1.80735 c 7.16918,-0.62219 15.6791,-2.60148 16.11951,-3.74916 0.27887,-0.72672 -1.84729,-3.78857 -3.99186,-5.74859 -5.81621,-5.31568 -15.85348,-6.76598 -25.27523,-3.65207 -4.6288,1.52983 -9.39127,5.07111 -10.99775,8.17768 -0.30201,0.58405 -0.54912,1.21712 -0.54912,1.40684 0,0.4591 3.37601,1.70076 6.87562,2.52878 5.20265,1.23096 11.41467,1.59232 17.81883,1.03652 z M 179.3371,302.38061 C 129.61873,298.46529 82.380981,278.93171 45.105158,246.87352 40.121269,242.58724 29.118221,231.54542 24.848249,226.54524 6.2006445,204.70866 -5.8466496,180.38232 -9.9187352,156.34246 -12.051958,143.74881 -11.919888,130.68237 -9.5341722,118.29611 -5.7821124,98.815983 5.1585496,79.680956 20.587102,65.614521 33.247394,54.071949 49.316037,44.895057 67.14084,39.02742 c 23.980725,-7.894068 51.02621,-10.354469 79.03448,-7.18998 46.67348,5.273362 92.21936,25.346454 126.74625,55.859919 5.27614,4.662812 15.9881,15.565581 19.78572,20.138151 20.7707,25.00913 32.50656,51.00775 34.99298,77.52035 0.54313,5.79139 0.24549,19.63228 -0.52406,24.37002 -2.87425,17.69524 -9.07108,32.00431 -19.9645,46.09991 -3.14713,4.07225 -12.48544,13.45265 -16.51258,16.58698 -21.44599,16.69155 -45.97403,26.07235 -77.14258,29.50337 -5.77673,0.6359 -28.18101,0.94 -34.21945,0.46447 z m 32.45556,-19.86376 c 0.58208,-0.088 2.09021,-0.26016 3.35139,-0.38258 18.52284,-1.79787 37.89651,-7.65773 52.56209,-15.89818 25.97696,-14.59623 42.15743,-36.58773 46.98283,-63.85613 1.01414,-5.73086 1.27307,-18.86105 0.49742,-25.22361 -1.65005,-13.53535 -5.27533,-25.25406 -11.84113,-38.27639 -7.23554,-14.35066 -15.66135,-25.94563 -28.03944,-38.58569 -33.30974,-34.014763 -81.55036,-56.167504 -130.71733,-60.027159 -6.07312,-0.476745 -21.78106,-0.474767 -27.51667,0.0035 -24.913451,2.077276 -46.79734,9.17457 -64.378236,20.878894 -6.352388,4.229044 -9.80931,7.071254 -15.358833,12.62772 -13.322332,13.338997 -21.4206,29.179025 -24.407153,47.739845 -0.678832,4.2188 -0.805536,6.33287 -0.797479,13.30597 0.01369,11.84547 1.154353,19.16841 4.808203,30.86806 12.772675,40.89818 50.846418,79.33463 99.075168,100.01899 22.85457,9.80187 44.12495,15.03449 69.32083,17.05324 2.2419,0.17963 25.04504,-0.0328 26.45834,-0.24645 z m -13.93472,-48.11283 c -28.30055,-0.7429 -57.18076,-10.50357 -80.87377,-27.33296 -22.61518,-16.0638 -38.685329,-37.5539 -44.31992,-59.26762 -4.145259,-15.97438 -2.57077,-31.99175 4.431629,-45.08321 15.239817,-28.49185 53.320881,-42.24807 96.596781,-34.894156 29.37027,4.990917 58.03508,19.663259 78.49305,40.177346 22.4438,22.50537 32.77944,49.998 27.86412,74.11791 -5.16911,25.36526 -26.79047,44.27315 -57.43758,50.22916 -7.21607,1.40239 -9.08379,1.59262 -20.34459,2.07215 -0.77611,0.0331 -2.76049,0.0247 -4.40972,-0.0186 z m 8.99583,-35.57241 c 3.97668,-0.3325 9.56235,-1.51828 14.11817,-2.99715 12.353,-4.00993 21.53733,-11.52103 26.45117,-21.63218 2.99737,-6.16773 3.51049,-8.59736 3.51088,-16.6251 2.8e-4,-5.84422 -0.10566,-7.13206 -0.82695,-10.05417 -4.04005,-16.36689 -16.3279,-32.00827 -33.98679,-43.26219 -4.37865,-2.79049 -13.62764,-7.381181 -18.37762,-9.121635 -19.29654,-7.070503 -38.53387,-8.007096 -54.60486,-2.658502 -15.49407,5.156592 -25.89496,15.684137 -29.11144,29.465937 -0.51862,2.22215 -0.65525,4.17239 -0.64257,9.17223 0.0145,5.73099 0.1085,6.7015 0.96403,9.95595 5.4443,20.7102 22.89615,39.21831 46.99765,49.84216 14.97554,6.60116 29.98907,9.21226 45.50833,7.91465 z M 190.4496,178.00522 c -24.55978,-2.50717 -47.28049,-20.30369 -51.1825,-40.08989 -0.60585,-3.07211 -0.43669,-8.92182 0.34593,-11.9624 2.75418,-10.70034 12.14605,-18.22856 25.68706,-20.58992 4.44594,-0.77531 12.81214,-0.69231 17.81697,0.17677 22.51824,3.91021 42.24043,19.64818 46.86454,37.39712 5.63418,21.62589 -12.61663,37.81595 -39.532,35.06832 z m -0.3201,-35.2616 c 3.46273,-1.79065 0.44027,-6.86227 -4.08962,-6.86227 -3.62514,0 -4.79526,2.61699 -2.37385,5.30916 0.9759,1.08502 3.11647,2.05544 4.59623,2.08369 0.4462,0.008 1.28646,-0.23025 1.86724,-0.53058 z"
         style="fill:#6f8aa9;stroke-width:0.35277778" />
      <path
         id="path171"
         d="m 29.053769,360.38774 c -4.32555,-0.42628 -7.389417,-1.00656 -10.1346,-1.91942 -4.635796,-1.54154 -7.05038,-3.32741 -8.19113,-6.05828 -0.710349,-1.70052 -0.690654,-2.0398 0.118414,-2.0398 0.478306,0 0.729713,0.33806 0.891081,1.19821 0.23882,1.27302 2.448959,3.60278 4.311308,4.54466 8.273228,4.18416 25.860996,4.01719 34.448224,-0.32704 2.180269,-1.10298 4.377591,-3.31194 4.759124,-4.78432 0.179243,-0.69172 0.561263,-1.20982 0.946803,-1.28407 0.557576,-0.10738 0.614013,0.0371 0.411021,1.05202 -0.828022,4.14012 -6.320134,7.45294 -14.799941,8.92726 -3.040476,0.52863 -10.376112,0.92574 -12.760304,0.69078 z m -58.031945,-0.70721 c -15.092443,-1.8783 -22.58442,-8.254 -16.9201,-14.39907 7.591132,-8.2354 35.814691,-8.63432 45.15631031,-0.63824 1.77260959,1.51729 2.45545679,2.8172 2.45545679,4.67436 0,1.74906 -0.3869337,2.56397 -2.07018113,4.35995 -0.70917857,0.75668 -1.10569727,1.43208 -0.88811097,1.51275 1.17947367,0.43725 3.6638477,2.29254 3.6638477,2.73609 0,0.9396 -0.6861105,0.96128 -1.86899553,0.059 -0.6421755,-0.48981 -1.76956857,-1.14208 -2.50531137,-1.4495 -1.2975907,-0.54217 -1.4136899,-0.52731 -3.8702862,0.49538 -4.1012745,1.70736 -9.0244686,2.53647 -15.9058536,2.67867 -3.306629,0.0683 -6.567678,0.0551 -7.246776,-0.0294 z m 11.288889,-1.56362 c 2.23132,-0.20064 5.319522,-0.67686 6.862675,-1.05827 2.9339395,-0.72516 4.1908868,-1.3919 2.6446864,-1.40286 -2.9589874,-0.0209 -8.1236074,-1.60725 -17.7976384,-5.46642 -8.116733,-3.23794 -11.356263,-4.20259 -15.379355,-4.57958 l -2.653919,-0.24869 -1.125724,1.28213 c -3.397568,3.86961 0.866598,8.20024 10.273668,10.4338 5.772186,1.37052 10.389726,1.65008 17.175607,1.03989 z m 16.0501333,-5.31374 c 6.5477708,-6.03552 -4.7429596,-12.43364 -21.8709663,-12.39362 -6.470946,0.0151 -10.863012,0.74198 -16.043522,2.65509 -1.591451,0.58771 -1.809309,0.76172 -1.234722,0.98621 0.38373,0.14992 1.116492,0.28373 1.628362,0.29737 1.739053,0.0463 7.163869,1.81347 14.062382,4.58083 10.79409,4.33008 14.040714,5.22687 19.1460755,5.28859 2.7375203,0.0331 2.7444241,0.0308 4.3123908,-1.41447 z m 110.2175037,4.44526 c -0.99109,-2.01319 -1.10655,-2.54224 -0.94319,-4.32153 0.18504,-2.01547 1.18144,-4.67333 1.75196,-4.67333 0.6031,0 0.66524,1.02358 0.12551,2.06731 -0.30508,0.58996 -0.55469,1.39563 -0.55469,1.79037 0,0.68765 0.085,0.67532 2.02847,-0.29424 5.68584,-2.83653 13.48182,-3.91295 28.35451,-3.91501 8.98401,-10e-4 10.89202,0.14819 10.89202,0.85308 0,0.30686 -2.74881,0.41264 -10.67153,0.41067 -13.51822,-0.004 -20.7037,0.7988 -26.4262,2.95009 -3.6017,1.354 -3.34403,2.18999 1.09964,3.56768 5.41771,1.67968 8.16251,1.90955 22.85716,1.91424 10.01895,0.003 13.84656,0.11413 13.84653,0.4013 -8e-5,0.63102 -1.51258,0.78701 -10.09753,1.04139 -14.618,0.43314 -25.59214,-0.87058 -30.38377,-3.60959 -0.82462,-0.47136 -1.4993,-0.68631 -1.4993,-0.47765 0,0.20865 0.40256,1.1738 0.89459,2.14476 0.83789,1.6535 0.89129,2.44449 0.16503,2.44449 -0.17042,0 -0.81806,-1.03231 -1.43921,-2.29403 z m 191.6679,1.93246 c -1.33374,-0.54284 -9.80489,-2.05623 -15.60498,-2.78787 -5.57865,-0.70371 -15.36397,-1.56797 -22.48958,-1.98633 -4.51824,-0.26527 -4.40997,-0.35212 -3.20009,2.56699 0.42277,1.02001 0.65649,1.96676 0.5194,2.10388 -0.67286,0.67283 -2.69918,-3.12401 -2.69918,-5.05756 0,-1.55787 0.80021,-3.6962 1.56577,-4.18407 1.93591,-1.23374 38.25046,-1.60142 42.46877,-0.43 2.2867,0.63502 2.83986,1.09951 2.31528,1.94416 -1.03925,1.67331 -5.20718,2.50378 -13.98245,2.78602 -3.83205,0.12326 -6.96737,0.33367 -6.96737,0.46758 0,0.13392 1.62719,0.43841 3.61598,0.67665 3.9479,0.47293 11.75413,1.87257 14.55208,2.60915 1.07125,0.28201 1.76389,0.6612 1.76389,0.96564 0,0.61806 -0.79626,0.7577 -1.85752,0.32576 z m -4.02572,-6.66913 c 2.92696,-0.41327 5.35407,-1.07088 5.35407,-1.45066 0,-0.46666 -1.53098,-0.6924 -7.40833,-1.09232 -4.38644,-0.29847 -8.99926,-0.29031 -18.71906,0.0332 -15.57659,0.51835 -16.55173,0.61565 -16.94864,1.69123 -0.25665,0.69548 -0.17421,0.79939 0.66586,0.8393 0.52734,0.025 3.34003,0.16626 6.25045,0.31381 6.95886,0.3528 27.51899,0.12954 30.80565,-0.33451 z m 31.77981,6.46237 c -0.36781,-0.4431 -0.49657,-1.72774 -0.49657,-4.9537 v -4.35545 l -3.35139,7e-4 c -3.35714,7.1e-4 -11.37708,0.50324 -14.58521,0.91391 -1.53508,0.1965 -1.69605,0.15214 -1.58323,-0.43628 0.15561,-0.81166 1.47585,-0.98306 11.93511,-1.54948 7.63111,-0.41326 17.63102,-0.26024 24.69444,0.37787 5.88666,0.5318 6.70278,0.68324 6.70278,1.24376 0,0.61533 0.50098,0.61666 -7.23195,-0.0192 -3.4925,-0.28717 -8.28399,-0.52426 -10.64775,-0.52687 -4.7952,-0.005 -4.45953,-0.19915 -4.87821,2.81749 -0.12121,0.87312 -0.0439,2.68381 0.17184,4.02375 0.41335,2.56773 0.1354,3.50587 -0.72986,2.46347 z M 59.346617,358.66774 c -0.309859,-0.80748 1.185291,-3.55447 2.620542,-4.81464 7.035419,-6.17718 28.554864,-7.40344 38.616241,-2.20049 1.43105,0.74002 3.74396,2.90001 4.34043,4.05346 0.67247,1.30041 0.66032,2.77806 -0.0228,2.77806 -0.29105,0 -0.52917,-0.30813 -0.52917,-0.68474 0,-0.3766 -0.14346,-0.7734 -0.3188,-0.88176 -0.17533,-0.10836 -2.19939,0.12465 -4.497913,0.51781 -6.829707,1.16821 -15.597131,1.59074 -23.111523,1.11382 -5.646554,-0.35838 -11.421587,-1.02587 -14.459158,-1.67122 -0.826636,-0.17563 -0.984409,-0.0522 -1.350275,1.05639 -0.435106,1.31838 -0.950408,1.61187 -1.28754,0.73331 z m 38.146041,-2.08656 c 4.861922,-0.77539 5.468052,-0.92301 5.468052,-1.33173 0,-1.14326 -4.551811,-3.47088 -8.916141,-4.55937 -3.69001,-0.9203 -13.153376,-1.30183 -17.597289,-0.70944 -5.792065,0.7721 -10.896244,2.52179 -13.351528,4.57686 -1.435552,1.20156 -1.257367,1.25455 7.938572,2.3609 5.321382,0.64021 21.633205,0.43231 26.458334,-0.33722 z m 74.083332,2.24128 c -10.31581,-0.78428 -18.48248,-3.14258 -18.09854,-5.22635 0.15066,-0.81769 4.17424,-2.73853 7.50389,-3.58233 5.43294,-1.37681 10.17474,-1.81103 21.94484,-2.00956 12.23028,-0.20629 15.28453,-0.0398 15.28453,0.83321 0,0.46653 -0.93613,0.50268 -7.49652,0.28951 -8.7348,-0.28381 -19.28398,0.24482 -25.30264,1.26797 -3.70038,0.62905 -7.03833,1.49046 -7.94667,2.05077 -0.19403,0.11969 8.53722,0.29699 19.40278,0.394 17.24691,0.15399 19.75555,0.24359 19.75555,0.70556 0,0.46219 -2.56744,0.55149 -20.28472,0.70555 -21.7655,0.18927 -21.78162,0.19107 -15.69861,1.75576 5.32995,1.37098 8.67015,1.59563 23.72435,1.59563 10.49917,0 14.55211,0.10996 14.55208,0.39482 -2e-5,0.21714 -0.59535,0.49484 -1.32296,0.61709 -2.31212,0.38849 -21.61481,0.54308 -26.01736,0.20837 z m 194.55695,-0.38356 c -7.74605,-0.34678 -8.81945,-0.49834 -8.81945,-1.24529 0,-0.47038 0.38209,-0.52198 2.55764,-0.34539 5.93136,0.48146 29.74393,0.66795 32.89653,0.25763 3.77871,-0.4918 5.5542,-1.00908 5.36917,-1.56425 -0.26656,-0.79963 -3.14138,-0.97686 -20.53862,-1.26617 -18.97126,-0.31549 -20.69743,-0.4842 -20.92371,-2.04497 -0.0959,-0.66132 0.24018,-0.86796 2.64584,-1.62701 5.44488,-1.71802 9.61266,-2.15676 20.57093,-2.16548 6.08785,-0.005 11.89817,0.18331 14.72847,0.47696 4.23764,0.43966 4.67431,0.54939 4.67431,1.17456 0,0.56328 -0.1777,0.65469 -0.97014,0.49907 -2.65963,-0.52232 -11.32283,-1.00524 -18.25625,-1.01767 -8.2012,-0.0147 -12.84418,0.38901 -17.90347,1.55677 -6.30097,1.45435 -4.02749,1.72277 17.3743,2.05135 17.81507,0.27351 19.34175,0.4127 20.23548,1.84488 0.55209,0.88472 -0.59274,1.96058 -2.74687,2.58138 -4.08753,1.178 -16.01354,1.4998 -30.89416,0.83363 z m -160.62088,-1.25907 c -0.35962,-0.59333 0.52469,-4.51715 1.43871,-6.38382 4.52286,-9.23689 19.68565,-14.13994 31.43498,-10.16485 7.07694,2.39429 11.7753,7.5635 13.26085,14.58977 0.20595,0.97417 0.14231,1.14653 -0.42344,1.14653 -0.49601,0 -0.75057,-0.38239 -0.99815,-1.4993 -0.39892,-1.79965 -0.65948,-1.82458 -5.0129,-0.47964 -5.72661,1.76917 -8.76106,2.13461 -17.72084,2.13412 -7.29982,-3.6e-4 -8.72791,-0.0959 -11.95329,-0.79964 -2.01466,-0.43955 -4.62483,-1.19 -5.80038,-1.66767 -1.17556,-0.47767 -2.25612,-0.74817 -2.40125,-0.6011 -0.14514,0.14707 -0.39401,1.04843 -0.55306,2.00304 -0.2668,1.60134 -0.85864,2.40331 -1.27123,1.72256 z m 27.97643,-1.89757 c 2.23132,-0.20748 5.24757,-0.60306 6.70278,-0.87908 3.63851,-0.69012 8.49023,-2.27273 8.70811,-2.84055 0.45032,-1.17352 -3.22591,-5.5499 -6.3874,-7.60386 -8.42327,-5.47247 -22.93857,-4.274 -30.64046,2.52986 -1.82186,1.60943 -3.78303,4.22651 -3.78303,5.04826 0,1.16653 6.88183,3.14403 12.99683,3.73464 4.47463,0.43218 7.83946,0.43509 12.40317,0.0107 z M 179.86627,302.38301 C 117.07696,297.65983 57.352636,267.22066 20.50578,221.16313 3.9299516,200.44382 -6.719898,177.15172 -10.341938,153.69662 c -0.903429,-5.8503 -1.286725,-20.37035 -0.672405,-25.4721 C -9.2235937,113.3529 -5.4411844,101.39215 1.0455523,90.088638 32.397975,35.455267 112.97972,15.502315 193.6246,42.403883 c 27.73825,9.252939 54.04799,23.937529 75.84722,42.333557 6.06404,5.117342 16.21579,15.094554 21.23888,20.87373 17.24421,19.83978 28.78071,41.15971 34.13344,63.08003 3.82605,15.66828 4.26011,31.90156 1.25046,46.76575 -6.03173,29.78959 -26.48172,55.26557 -56.59339,70.50226 -16.81893,8.51049 -34.87113,13.64729 -55.94466,15.9192 -6.164,0.66454 -27.34647,0.9818 -33.69028,0.5046 z m 32.98472,-19.92759 c 32.01642,-2.97331 58.88235,-14.45096 77.60889,-33.15602 14.07428,-14.05814 22.30416,-30.88542 24.93151,-50.97639 0.71974,-5.50356 0.52656,-17.60371 -0.37737,-23.63611 C 310.09877,141.88403 290.34427,110.39054 258.93439,85.282203 239.63765,69.856861 218.51824,58.458935 194.15377,50.320796 177.96129,44.912238 163.65612,41.920108 145.82321,40.211777 139.0284,39.560858 121.01873,39.671186 114.07321,40.40628 69.481351,45.125756 36.134097,65.273265 20.56832,96.899401 6.5863718,125.30757 9.6151171,160.17012 28.872219,192.48193 c 10.64775,17.86602 26.059966,34.68245 44.63155,48.69795 32.480031,24.51185 73.635931,39.60366 113.947221,41.7843 6.93598,0.3752 18.34158,0.14675 25.4,-0.50876 z m -24.69444,-48.70651 c -17.51246,-1.75966 -35.4706,-7.01765 -51.63819,-15.11924 -36.90005,-18.49065 -61.955616,-49.44322 -65.695939,-81.15795 -0.575334,-4.87834 -0.227577,-13.82548 0.724084,-18.62935 4.211824,-21.260728 19.461684,-37.994471 42.477335,-46.610585 18.52676,-6.935657 41.52956,-8.130177 64.6272,-3.356049 22.69903,4.691736 44.02968,14.735461 62.77495,29.558143 5.43902,4.300881 16.04977,14.956701 20.03732,20.122461 13.15339,17.0399 19.66729,34.12912 19.64373,51.5352 -0.0215,15.86012 -5.51427,29.37725 -16.54059,40.70462 -11.80663,12.12895 -27.25939,19.3627 -48.01129,22.47502 -6.58244,0.98722 -20.92659,1.22852 -28.39861,0.47773 z m 23.28333,-35.40314 c 12.1443,-2.17026 21.77817,-6.78477 28.75432,-13.77296 8.36178,-8.37622 12.22943,-19.35429 10.96207,-31.11513 -3.22622,-29.9391 -35.0499,-57.565184 -73.29269,-63.6253 -4.79909,-0.760483 -16.00726,-1.069276 -20.40165,-0.56208 -17.10513,1.974257 -29.91449,8.632677 -37.76092,19.62845 -4.61071,6.46134 -7.31977,16.23125 -6.6961,24.14867 1.24918,15.85791 10.23,31.3483 25.51231,44.00436 13.71972,11.362 32.95426,19.64211 50.16849,21.59659 1.84327,0.20928 3.82764,0.4394 4.40973,0.51138 3.19043,0.39453 14.35364,-0.10081 18.34444,-0.81398 z M 190.4496,177.97175 c -3.32963,-0.3506 -9.36086,-1.70554 -13.19387,-2.96404 -10.29825,-3.38127 -18.93741,-8.75095 -26.1672,-16.26429 -21.20343,-22.03498 -13.54282,-49.10197 15.10077,-53.35514 23.02856,-3.41941 50.46746,10.14571 60.67053,29.99402 4.73435,9.20991 5.30282,18.01773 1.66734,25.83375 -4.14289,8.90691 -12.787,14.59931 -25.02479,16.47956 -3.02742,0.46513 -9.88094,0.61013 -13.05278,0.27614 z m -0.3201,-35.22813 c 3.46273,-1.79065 0.44027,-6.86227 -4.08962,-6.86227 -3.62514,0 -4.79526,2.61699 -2.37385,5.30916 0.9759,1.08502 3.11647,2.05544 4.59623,2.08369 0.4462,0.008 1.28646,-0.23025 1.86724,-0.53058 z"
         style="fill:#3772b5;stroke-width:0.35277778" />
      <path
         id="path169"
         d="m 29.053769,360.38774 c -4.32555,-0.42628 -7.389417,-1.00656 -10.1346,-1.91942 -4.635796,-1.54154 -7.05038,-3.32741 -8.19113,-6.05828 -0.710349,-1.70052 -0.690654,-2.0398 0.118414,-2.0398 0.478306,0 0.729713,0.33806 0.891081,1.19821 0.23882,1.27302 2.448959,3.60278 4.311308,4.54466 8.273228,4.18416 25.860996,4.01719 34.448224,-0.32704 2.180269,-1.10298 4.377591,-3.31194 4.759124,-4.78432 0.179243,-0.69172 0.561263,-1.20982 0.946803,-1.28407 0.557576,-0.10738 0.614013,0.0371 0.411021,1.05202 -0.828022,4.14012 -6.320134,7.45294 -14.799941,8.92726 -3.040476,0.52863 -10.376112,0.92574 -12.760304,0.69078 z m -58.031945,-0.70721 c -15.092443,-1.8783 -22.58442,-8.254 -16.9201,-14.39907 7.591132,-8.2354 35.814691,-8.63432 45.15631031,-0.63824 1.77260959,1.51729 2.45545679,2.8172 2.45545679,4.67436 0,1.74906 -0.3869337,2.56397 -2.07018113,4.35995 -0.70917857,0.75668 -1.10569727,1.43208 -0.88811097,1.51275 1.17947367,0.43725 3.6638477,2.29254 3.6638477,2.73609 0,0.9396 -0.6861105,0.96128 -1.86899553,0.059 -0.6421755,-0.48981 -1.76956857,-1.14208 -2.50531137,-1.4495 -1.2975907,-0.54217 -1.4136899,-0.52731 -3.8702862,0.49538 -4.1012745,1.70736 -9.0244686,2.53647 -15.9058536,2.67867 -3.306629,0.0683 -6.567678,0.0551 -7.246776,-0.0294 z m 11.288889,-1.56362 c 2.23132,-0.20064 5.319522,-0.67686 6.862675,-1.05827 2.9339395,-0.72516 4.1908868,-1.3919 2.6446864,-1.40286 -2.9589874,-0.0209 -8.1236074,-1.60725 -17.7976384,-5.46642 -8.116733,-3.23794 -11.356263,-4.20259 -15.379355,-4.57958 l -2.653919,-0.24869 -1.125724,1.28213 c -3.397568,3.86961 0.866598,8.20024 10.273668,10.4338 5.772186,1.37052 10.389726,1.65008 17.175607,1.03989 z m 16.0501333,-5.31374 c 6.5477708,-6.03552 -4.7429596,-12.43364 -21.8709663,-12.39362 -6.470946,0.0151 -10.863012,0.74198 -16.043522,2.65509 -1.591451,0.58771 -1.809309,0.76172 -1.234722,0.98621 0.38373,0.14992 1.116492,0.28373 1.628362,0.29737 1.739053,0.0463 7.163869,1.81347 14.062382,4.58083 10.79409,4.33008 14.040714,5.22687 19.1460755,5.28859 2.7375203,0.0331 2.7444241,0.0308 4.3123908,-1.41447 z m 110.2175037,4.44526 c -0.99109,-2.01319 -1.10655,-2.54224 -0.94319,-4.32153 0.18504,-2.01547 1.18144,-4.67333 1.75196,-4.67333 0.6031,0 0.66524,1.02358 0.12551,2.06731 -0.30508,0.58996 -0.55469,1.39563 -0.55469,1.79037 0,0.68765 0.085,0.67532 2.02847,-0.29424 5.68584,-2.83653 13.48182,-3.91295 28.35451,-3.91501 8.98401,-10e-4 10.89202,0.14819 10.89202,0.85308 0,0.30686 -2.74881,0.41264 -10.67153,0.41067 -13.51822,-0.004 -20.7037,0.7988 -26.4262,2.95009 -3.6017,1.354 -3.34403,2.18999 1.09964,3.56768 5.41771,1.67968 8.16251,1.90955 22.85716,1.91424 10.01895,0.003 13.84656,0.11413 13.84653,0.4013 -8e-5,0.63102 -1.51258,0.78701 -10.09753,1.04139 -14.618,0.43314 -25.59214,-0.87058 -30.38377,-3.60959 -0.82462,-0.47136 -1.4993,-0.68631 -1.4993,-0.47765 0,0.20865 0.40256,1.1738 0.89459,2.14476 0.83789,1.6535 0.89129,2.44449 0.16503,2.44449 -0.17042,0 -0.81806,-1.03231 -1.43921,-2.29403 z m 191.6679,1.93246 c -1.33374,-0.54284 -9.80489,-2.05623 -15.60498,-2.78787 -5.57865,-0.70371 -15.36397,-1.56797 -22.48958,-1.98633 -4.51824,-0.26527 -4.40997,-0.35212 -3.20009,2.56699 0.42277,1.02001 0.65649,1.96676 0.5194,2.10388 -0.67286,0.67283 -2.69918,-3.12401 -2.69918,-5.05756 0,-1.55787 0.80021,-3.6962 1.56577,-4.18407 1.93591,-1.23374 38.25046,-1.60142 42.46877,-0.43 2.2867,0.63502 2.83986,1.09951 2.31528,1.94416 -1.03925,1.67331 -5.20718,2.50378 -13.98245,2.78602 -3.83205,0.12326 -6.96737,0.33367 -6.96737,0.46758 0,0.13392 1.62719,0.43841 3.61598,0.67665 3.9479,0.47293 11.75413,1.87257 14.55208,2.60915 1.07125,0.28201 1.76389,0.6612 1.76389,0.96564 0,0.61806 -0.79626,0.7577 -1.85752,0.32576 z m -4.02572,-6.66913 c 2.92696,-0.41327 5.35407,-1.07088 5.35407,-1.45066 0,-0.46666 -1.53098,-0.6924 -7.40833,-1.09232 -4.38644,-0.29847 -8.99926,-0.29031 -18.71906,0.0332 -15.57659,0.51835 -16.55173,0.61565 -16.94864,1.69123 -0.25665,0.69548 -0.17421,0.79939 0.66586,0.8393 0.52734,0.025 3.34003,0.16626 6.25045,0.31381 6.95886,0.3528 27.51899,0.12954 30.80565,-0.33451 z m 31.77981,6.46237 c -0.36781,-0.4431 -0.49657,-1.72774 -0.49657,-4.9537 v -4.35545 l -3.35139,7e-4 c -3.35714,7.1e-4 -11.37708,0.50324 -14.58521,0.91391 -1.53508,0.1965 -1.69605,0.15214 -1.58323,-0.43628 0.15561,-0.81166 1.47585,-0.98306 11.93511,-1.54948 7.63111,-0.41326 17.63102,-0.26024 24.69444,0.37787 5.88666,0.5318 6.70278,0.68324 6.70278,1.24376 0,0.61533 0.50098,0.61666 -7.23195,-0.0192 -3.4925,-0.28717 -8.28399,-0.52426 -10.64775,-0.52687 -4.7952,-0.005 -4.45953,-0.19915 -4.87821,2.81749 -0.12121,0.87312 -0.0439,2.68381 0.17184,4.02375 0.41335,2.56773 0.1354,3.50587 -0.72986,2.46347 z M 59.346617,358.66774 c -0.309859,-0.80748 1.185291,-3.55447 2.620542,-4.81464 7.035419,-6.17718 28.554864,-7.40344 38.616241,-2.20049 1.43105,0.74002 3.74396,2.90001 4.34043,4.05346 0.67247,1.30041 0.66032,2.77806 -0.0228,2.77806 -0.29105,0 -0.52917,-0.30813 -0.52917,-0.68474 0,-0.3766 -0.14346,-0.7734 -0.3188,-0.88176 -0.17533,-0.10836 -2.19939,0.12465 -4.497913,0.51781 -6.829707,1.16821 -15.597131,1.59074 -23.111523,1.11382 -5.646554,-0.35838 -11.421587,-1.02587 -14.459158,-1.67122 -0.826636,-0.17563 -0.984409,-0.0522 -1.350275,1.05639 -0.435106,1.31838 -0.950408,1.61187 -1.28754,0.73331 z m 38.146041,-2.08656 c 4.861922,-0.77539 5.468052,-0.92301 5.468052,-1.33173 0,-1.14326 -4.551811,-3.47088 -8.916141,-4.55937 -3.69001,-0.9203 -13.153376,-1.30183 -17.597289,-0.70944 -5.792065,0.7721 -10.896244,2.52179 -13.351528,4.57686 -1.435552,1.20156 -1.257367,1.25455 7.938572,2.3609 5.321382,0.64021 21.633205,0.43231 26.458334,-0.33722 z m 74.083332,2.24128 c -10.31581,-0.78428 -18.48248,-3.14258 -18.09854,-5.22635 0.15066,-0.81769 4.17424,-2.73853 7.50389,-3.58233 5.43294,-1.37681 10.17474,-1.81103 21.94484,-2.00956 12.23028,-0.20629 15.28453,-0.0398 15.28453,0.83321 0,0.46653 -0.93613,0.50268 -7.49652,0.28951 -8.7348,-0.28381 -19.28398,0.24482 -25.30264,1.26797 -3.70038,0.62905 -7.03833,1.49046 -7.94667,2.05077 -0.19403,0.11969 8.53722,0.29699 19.40278,0.394 17.24691,0.15399 19.75555,0.24359 19.75555,0.70556 0,0.46219 -2.56744,0.55149 -20.28472,0.70555 -21.7655,0.18927 -21.78162,0.19107 -15.69861,1.75576 5.32995,1.37098 8.67015,1.59563 23.72435,1.59563 10.49917,0 14.55211,0.10996 14.55208,0.39482 -2e-5,0.21714 -0.59535,0.49484 -1.32296,0.61709 -2.31212,0.38849 -21.61481,0.54308 -26.01736,0.20837 z m 194.55695,-0.38356 c -7.74605,-0.34678 -8.81945,-0.49834 -8.81945,-1.24529 0,-0.47038 0.38209,-0.52198 2.55764,-0.34539 5.93136,0.48146 29.74393,0.66795 32.89653,0.25763 3.77871,-0.4918 5.5542,-1.00908 5.36917,-1.56425 -0.26656,-0.79963 -3.14138,-0.97686 -20.53862,-1.26617 -18.97126,-0.31549 -20.69743,-0.4842 -20.92371,-2.04497 -0.0959,-0.66132 0.24018,-0.86796 2.64584,-1.62701 5.44488,-1.71802 9.61266,-2.15676 20.57093,-2.16548 6.08785,-0.005 11.89817,0.18331 14.72847,0.47696 4.23764,0.43966 4.67431,0.54939 4.67431,1.17456 0,0.56328 -0.1777,0.65469 -0.97014,0.49907 -2.65963,-0.52232 -11.32283,-1.00524 -18.25625,-1.01767 -8.2012,-0.0147 -12.84418,0.38901 -17.90347,1.55677 -6.30097,1.45435 -4.02749,1.72277 17.3743,2.05135 17.81507,0.27351 19.34175,0.4127 20.23548,1.84488 0.55209,0.88472 -0.59274,1.96058 -2.74687,2.58138 -4.08753,1.178 -16.01354,1.4998 -30.89416,0.83363 z m -160.62088,-1.25907 c -0.35962,-0.59333 0.52469,-4.51715 1.43871,-6.38382 4.52286,-9.23689 19.68565,-14.13994 31.43498,-10.16485 7.07694,2.39429 11.7753,7.5635 13.26085,14.58977 0.20595,0.97417 0.14231,1.14653 -0.42344,1.14653 -0.49601,0 -0.75057,-0.38239 -0.99815,-1.4993 -0.39892,-1.79965 -0.65948,-1.82458 -5.0129,-0.47964 -5.72661,1.76917 -8.76106,2.13461 -17.72084,2.13412 -7.29982,-3.6e-4 -8.72791,-0.0959 -11.95329,-0.79964 -2.01466,-0.43955 -4.62483,-1.19 -5.80038,-1.66767 -1.17556,-0.47767 -2.25612,-0.74817 -2.40125,-0.6011 -0.14514,0.14707 -0.39401,1.04843 -0.55306,2.00304 -0.2668,1.60134 -0.85864,2.40331 -1.27123,1.72256 z m 27.97643,-1.89757 c 2.23132,-0.20748 5.24757,-0.60306 6.70278,-0.87908 3.63851,-0.69012 8.49023,-2.27273 8.70811,-2.84055 0.45032,-1.17352 -3.22591,-5.5499 -6.3874,-7.60386 -8.42327,-5.47247 -22.93857,-4.274 -30.64046,2.52986 -1.82186,1.60943 -3.78303,4.22651 -3.78303,5.04826 0,1.16653 6.88183,3.14403 12.99683,3.73464 4.47463,0.43218 7.83946,0.43509 12.40317,0.0107 z M 179.86627,302.38301 C 117.07696,297.65983 57.352636,267.22066 20.50578,221.16313 3.9299516,200.44382 -6.719898,177.15172 -10.341938,153.69662 c -0.903429,-5.8503 -1.286725,-20.37035 -0.672405,-25.4721 C -9.2235937,113.3529 -5.4411844,101.39215 1.0455523,90.088638 32.397975,35.455267 112.97972,15.502315 193.6246,42.403883 c 27.73825,9.252939 54.04799,23.937529 75.84722,42.333557 6.06404,5.117342 16.21579,15.094554 21.23888,20.87373 17.24421,19.83978 28.78071,41.15971 34.13344,63.08003 3.82605,15.66828 4.26011,31.90156 1.25046,46.76575 -6.03173,29.78959 -26.48172,55.26557 -56.59339,70.50226 -16.81893,8.51049 -34.87113,13.64729 -55.94466,15.9192 -6.164,0.66454 -27.34647,0.9818 -33.69028,0.5046 z m 32.98472,-19.92759 c 32.01642,-2.97331 58.88235,-14.45096 77.60889,-33.15602 14.07428,-14.05814 22.30416,-30.88542 24.93151,-50.97639 0.71974,-5.50356 0.52656,-17.60371 -0.37737,-23.63611 C 310.09877,141.88403 290.34427,110.39054 258.93439,85.282203 239.63765,69.856861 218.51824,58.458935 194.15377,50.320796 177.96129,44.912238 163.65612,41.920108 145.82321,40.211777 139.0284,39.560858 121.01873,39.671186 114.07321,40.40628 69.481351,45.125756 36.134097,65.273265 20.56832,96.899401 6.5863718,125.30757 9.6151171,160.17012 28.872219,192.48193 c 10.64775,17.86602 26.059966,34.68245 44.63155,48.69795 32.480031,24.51185 73.635931,39.60366 113.947221,41.7843 6.93598,0.3752 18.34158,0.14675 25.4,-0.50876 z m -24.69444,-48.70651 c -17.51246,-1.75966 -35.4706,-7.01765 -51.63819,-15.11924 -36.90005,-18.49065 -61.955616,-49.44322 -65.695939,-81.15795 -0.575334,-4.87834 -0.227577,-13.82548 0.724084,-18.62935 4.211824,-21.260728 19.461684,-37.994471 42.477335,-46.610585 18.52676,-6.935657 41.52956,-8.130177 64.6272,-3.356049 22.69903,4.691736 44.02968,14.735461 62.77495,29.558143 5.43902,4.300881 16.04977,14.956701 20.03732,20.122461 13.15339,17.0399 19.66729,34.12912 19.64373,51.5352 -0.0215,15.86012 -5.51427,29.37725 -16.54059,40.70462 -11.80663,12.12895 -27.25939,19.3627 -48.01129,22.47502 -6.58244,0.98722 -20.92659,1.22852 -28.39861,0.47773 z m 23.45972,-35.41356 c 11.29721,-2.09834 19.56544,-5.79493 26.70404,-11.93893 5.19667,-4.47265 9.99797,-12.00206 11.74098,-18.4123 7.15168,-26.30136 -14.83145,-57.93642 -50.0868,-72.077933 -28.96348,-11.617741 -59.46937,-8.523256 -75.69284,7.678213 -3.71221,3.70716 -5.64453,6.4273 -7.75064,10.91064 -5.41491,11.52683 -4.68917,24.65856 2.1197,38.35437 12.01708,24.17194 41.53213,42.96772 72.50445,46.17232 5.12341,0.5301 15.84881,0.17031 20.46111,-0.68638 z m -21.16667,-20.3636 c -3.32372,-0.34998 -9.35728,-1.70437 -13.17002,-2.95637 -10.29393,-3.38022 -18.97663,-8.77461 -26.19105,-16.27196 -7.90756,-8.21768 -12.14448,-17.42576 -12.14448,-26.39353 0,-9.94058 5.63161,-18.51805 15.34583,-23.37316 18.14402,-9.068258 46.48543,-2.66639 63.53539,14.35163 14.05593,14.02959 17.04234,31.13824 7.52347,43.10075 -5.96756,7.49955 -16.97862,11.88699 -29.43108,11.72703 -2.32834,-0.0299 -4.78896,-0.11288 -5.46806,-0.18439 z m 11.20034,-17.19083 c 3.47785,-1.12479 6.76199,-3.27629 8.78019,-5.75207 7.73419,-9.48772 1.03109,-24.82398 -14.15394,-32.3833 -15.83858,-7.88466 -32.76862,-4.40043 -36.68895,7.55066 -0.97403,2.96933 -0.6263,8.25333 0.75884,11.53099 3.02939,7.16846 9.80496,13.57033 18.10071,17.10238 5.88905,2.50736 9.28542,3.15661 15.70698,3.00253 3.80775,-0.0914 5.08001,-0.26977 7.49617,-1.05119 z m -16.03221,-8.85935 c -6.08868,-1.64037 -11.53174,-5.87101 -13.82887,-10.74856 -1.22261,-2.59598 -1.28453,-6.50957 -0.13728,-8.67645 3.4874,-6.5869 14.79513,-7.44045 23.33737,-1.76158 4.88271,3.24602 7.52657,7.25127 7.75461,11.74769 0.10522,2.07468 -0.0137,2.83915 -0.64395,4.14117 -1.1194,2.31237 -3.53328,4.28876 -6.27082,5.1343 -2.71073,0.83726 -7.4296,0.91279 -10.21106,0.16343 z m 7.78472,-6.29336 c 1.65705,-0.9711 2.69682,-2.64944 2.68385,-4.33212 -0.0208,-2.70506 -2.64736,-5.90949 -6.23278,-7.60421 -4.1191,-1.94698 -7.98368,-1.661 -10.41544,0.77075 -1.21728,1.21729 -1.3357,1.50529 -1.3357,3.24842 0,6.3304 9.5634,11.27906 15.30007,7.91716 z"
         style="fill:#585c61;stroke-width:0.35277778" />
      <path
         id="path167"
         d="m 26.055158,359.86933 c -7.753498,-0.97792 -13.58113,-3.7989 -15.045186,-7.2829 -0.542032,-1.28986 -0.617308,-2.21619 -0.1801,-2.21619 0.163315,0 0.481965,0.61756 0.70811,1.37237 1.157086,3.862 7.451682,6.65421 16.898426,7.49593 12.515966,1.1152 24.990449,-2.57468 26.941067,-7.96901 0.465593,-1.28758 1.016572,-1.67177 1.016572,-0.70885 0,0.97337 -1.353563,3.22609 -2.54217,4.2309 -1.632821,1.38034 -5.626093,3.20763 -8.746719,4.00242 -5.327753,1.35693 -13.265062,1.80497 -19.05,1.07533 z m -58.319148,-0.88066 c -12.792167,-2.4211 -18.49525,-8.0809 -13.549366,-13.44655 7.95473,-8.62987 38.1071654,-8.54809 45.74068736,0.12405 2.32867904,2.64552 2.19833124,5.10509 -0.41423519,7.81632 -0.96943687,1.00605 -1.34413977,1.61926 -1.05452337,1.72576 0.90681531,0.33344 3.744969,2.40711 3.8800405,2.83491 0.2252028,0.71326 -0.4114659,0.51815 -2.59010147,-0.79375 -1.12775293,-0.6791 -2.38961433,-1.23473 -2.80413883,-1.23473 -0.4145245,0 -1.7635502,0.41035 -2.9978315,0.91188 -4.4522675,1.80912 -7.6555955,2.30353 -15.8691615,2.44926 -5.691318,0.10099 -8.272875,0.004 -10.34137,-0.38715 z m 16.930426,-0.87639 c 3.300494,-0.44475 8.2276107,-1.70726 8.2276107,-2.10821 0,-0.29119 -0.697357,-0.46869 -3.5277777,-0.89792 -2.738081,-0.41522 -6.736729,-1.75524 -15.08366,-5.05478 -8.170753,-3.2299 -12.219696,-4.41058 -16.218725,-4.72942 -2.149828,-0.17141 -2.221548,-0.1487 -3.258097,1.03187 -1.916038,2.18225 -1.855011,3.85111 0.225016,6.15345 2.096608,2.32069 6.849082,4.29453 13.025575,5.40989 3.350129,0.60497 12.749128,0.71538 16.610058,0.19512 z m 12.4260966,-4.01985 c 1.3833581,-0.71537 3.09804507,-2.76284 3.37684887,-4.03223 0.65281533,-2.97224 -3.01533987,-6.12665 -9.42308607,-8.10332 -8.4333534,-2.60153 -22.3051474,-2.26603 -30.2349994,0.73127 -1.250167,0.47253 -2.327889,1.02373 -2.394941,1.22489 -0.07012,0.21035 0.816331,0.47189 2.086469,0.61559 2.914117,0.3297 7.528108,1.83046 15.2815,4.97051 7.045273,2.85327 10.20687,3.8854 14.017573,4.57616 3.4610811,0.62739 6.0985325,0.63359 7.2906356,0.0171 z m 111.6471174,3.10293 c -1.1556,-2.36197 -1.26568,-4.55049 -0.34955,-6.94937 0.9721,-2.54539 1.69334,-2.12865 0.78809,0.45537 -0.40366,1.15226 -0.6411,2.18785 -0.52763,2.30131 0.11346,0.11347 0.90372,-0.19535 1.75614,-0.68625 3.82775,-2.20439 10.3869,-3.50943 20.59985,-4.09867 6.29523,-0.3632 19.32794,-0.0798 19.1524,0.41645 -0.0563,0.15924 -5.65865,0.35626 -12.44963,0.43783 -12.89823,0.15493 -16.26137,0.46353 -22.03787,2.0222 -2.80813,0.75771 -5.50158,2.06281 -5.44556,2.63862 0.11793,1.21226 5.86663,2.98578 12.1376,3.74456 3.66224,0.44313 18.04139,0.62694 24.87083,0.31793 2.13959,-0.0968 3.49609,-0.0274 3.44724,0.17639 -0.14928,0.62279 -6.56032,0.90188 -17.02918,0.74134 -13.18741,-0.20224 -18.1626,-0.93538 -22.75417,-3.35307 -0.97014,-0.51082 -1.88295,-0.9826 -2.02847,-1.04839 -0.49965,-0.22588 -0.26344,0.72094 0.61736,2.47457 0.94916,1.88974 1.06782,2.4035 0.55512,2.4035 -0.17976,0 -0.76592,-0.89744 -1.30257,-1.99432 z m 188.43916,1.08431 c -6.9519,-1.62549 -20.55071,-3.24077 -33.52782,-3.98246 -2.91303,-0.16649 -5.44054,-0.1674 -5.62282,-0.002 -0.20246,0.18366 -0.0152,1.06293 0.48204,2.2624 0.78221,1.88718 0.80906,2.58719 0.082,2.13785 -0.58864,-0.36382 -1.46766,-3.436 -1.46628,-5.12484 0,-0.95845 0.27178,-2.05635 0.66788,-2.70592 0.64304,-1.05454 0.77664,-1.10114 3.79102,-1.3221 8.21831,-0.60241 26.34819,-0.94216 32.23672,-0.60411 6.35406,0.36478 8.90376,0.89668 9.10005,1.89841 0.16319,0.8329 -1.78978,1.88516 -4.30474,2.31938 -3.01071,0.51981 -10.93928,1.08838 -15.56307,1.11605 -4.48783,0.0268 -4.1094,0.38762 1.05833,1.00894 5.87643,0.70653 14.33559,2.21496 17.19792,3.06672 0.33955,0.10104 0.61736,0.33176 0.61736,0.51272 0,0.45238 -0.68993,0.36797 -4.74857,-0.58101 z m -2.43109,-5.46785 c 3.75352,-0.35817 7.17966,-1.18522 7.17966,-1.73311 0,-0.83492 -3.14448,-1.14973 -13.1783,-1.31932 -9.41098,-0.15907 -28.01757,0.35775 -29.57794,0.82157 -0.71134,0.21144 -1.19426,1.48822 -0.73618,1.9463 0.85863,0.85864 28.06266,1.07182 36.31276,0.28456 z m 33.06819,4.7233 c -0.24727,-1.57371 -0.27856,-5.70662 -0.0556,-7.34127 0.0929,-0.68091 -0.0824,-0.70254 -5.01904,-0.61922 -2.8134,0.0475 -7.15218,0.25954 -9.64174,0.47124 -4.10174,0.3488 -5.26746,0.29931 -4.76581,-0.20235 1.03452,-1.03453 29.29745,-1.4725 37.86727,-0.5868 4.26046,0.44032 5.60998,0.77494 4.88142,1.21041 -0.16242,0.0971 -2.27968,-0.0285 -4.70503,-0.27908 -2.42535,-0.25058 -7.30416,-0.57038 -10.84181,-0.71067 -6.0911,-0.24154 -6.44642,-0.21996 -6.70278,0.40709 -0.30177,0.7382 -0.36869,6.44132 -0.0943,8.03971 0.10612,0.61817 0.0106,1.08337 -0.23978,1.16766 -0.26014,0.0876 -0.51619,-0.49623 -0.6828,-1.55672 z m -268.111644,0.18472 c 0.714651,-3.57326 5.685589,-6.60014 13.623114,-8.29532 4.591315,-0.98054 15.879889,-0.883 20.461111,0.17681 6.051928,1.40004 10.335359,4.05329 11.309659,7.00546 0.22128,0.67048 0.2854,1.32748 0.14248,1.46 -0.14291,0.13252 -0.32321,0.065 -0.40066,-0.15 -0.46915,-1.30252 -0.9763,-1.53171 -2.57831,-1.16521 -9.193269,2.10323 -26.181107,2.25953 -37.400947,0.34412 -2.037291,-0.3478 -3.811016,-0.57274 -3.941607,-0.49987 -0.130595,0.0729 -0.341644,0.60693 -0.469004,1.18679 -0.31665,1.4417 -1.034644,1.38126 -0.745836,-0.0628 z m 36.55367,-0.79146 c 4.036834,-0.55596 6.638094,-1.0842 6.969114,-1.41522 0.44658,-0.44657 -1.84082,-2.29156 -4.174903,-3.3674 -8.312312,-3.83139 -24.62652,-3.65485 -32.956711,0.35664 -2.72475,1.31213 -4.356647,2.62777 -3.873363,3.12273 0.417417,0.42749 6.110697,1.31325 11.458085,1.78263 4.936066,0.43328 17.958678,0.15678 22.577778,-0.47938 z m 73.025004,1.51046 c -7.98756,-0.72011 -15.34584,-2.97253 -15.34584,-4.69744 0,-1.67213 6.12851,-3.76849 13.95059,-4.77203 7.99758,-1.02606 29.97025,-1.25789 29.97025,-0.31621 0,0.16828 -4.88157,0.30651 -10.84792,0.30717 -11.00688,10e-4 -16.46451,0.31394 -22.06941,1.26455 -3.65228,0.61944 -8.03702,1.93588 -8.12178,2.43841 -0.0389,0.23082 6.80091,0.38429 19.78424,0.44392 12.71186,0.0584 19.84375,0.21584 19.84375,0.43812 0,0.22247 -7.37484,0.37967 -20.5493,0.43804 -19.79135,0.0877 -20.51538,0.11409 -19.6296,0.71592 1.31262,0.89186 6.8664,2.22179 11.6039,2.77874 4.35285,0.51172 26.45452,0.6585 29.19237,0.19387 1.15359,-0.19577 1.4993,-0.14383 1.4993,0.22528 0,0.36004 -0.9378,0.53711 -3.75904,0.70972 -5.0982,0.31194 -21.38714,0.20468 -25.52151,-0.16806 z m 194.21933,-0.37393 c -3.09612,-0.17315 -5.70226,-0.38779 -5.79145,-0.47697 -0.5268,-0.52679 1.16883,-0.56524 9.02621,-0.20466 17.51196,0.80363 28.9004,0.31411 31.49572,-1.35382 0.85781,-0.55128 -0.005,-1.05673 -2.48476,-1.45614 -1.24103,-0.19986 -9.95993,-0.48469 -19.37533,-0.63296 -14.78774,-0.23287 -17.30329,-0.3495 -18.47289,-0.8565 -0.76006,-0.32946 -1.28975,-0.77954 -1.20759,-1.02604 0.21135,-0.63412 4.18239,-1.87515 8.17788,-2.55576 4.80748,-0.81892 13.77015,-1.17245 21.43312,-0.84542 6.52491,0.27846 12.57589,0.82827 12.92172,1.17409 0.51097,0.51096 -0.56113,0.56223 -4.04636,0.19349 -6.22642,-0.65875 -19.53158,-0.86689 -24.66051,-0.38578 -5.90035,0.55347 -12.14621,1.84437 -12.14621,2.51038 0,0.63429 2.65822,0.77979 19.05,1.04276 10.34747,0.16599 18.25054,0.44146 19.39661,0.67609 5.15768,1.05593 2.89874,3.48016 -3.94868,4.23755 -3.98177,0.44042 -21.19408,0.4168 -29.36748,-0.0403 z m -157.74369,-2.84398 c 0.62832,-5.05007 4.66958,-9.9394 10.54137,-12.7535 4.80428,-2.30249 7.26279,-2.83208 13.1316,-2.82867 5.75296,0.003 8.06153,0.50735 12.22272,2.66847 4.77683,2.48087 8.96155,7.90909 9.6834,12.56093 0.33052,2.12979 -0.39148,1.92121 -0.91585,-0.26459 -0.23272,-0.97014 -0.58656,-1.76389 -0.78627,-1.76389 -0.1997,0 -1.45644,0.3944 -2.79276,0.87644 -6.07939,2.19295 -16.46661,3.32768 -24.35444,2.66054 -5.45278,-0.46118 -9.82554,-1.34215 -12.9366,-2.60628 l -2.20058,-0.89418 -0.31444,0.77549 c -0.17294,0.42652 -0.41111,1.37081 -0.52927,2.09841 -0.34354,2.1155 -1.01857,1.63851 -0.74888,-0.52917 z m 29.85582,0.0695 c 5.55872,-0.69066 11.76433,-2.22475 13.1765,-3.25736 0.63006,-0.46072 0.6253,-0.52937 -0.14185,-2.03312 -2.00449,-3.92905 -7.09662,-7.55544 -12.69111,-9.03798 -3.35732,-0.88969 -10.20777,-0.79608 -13.93473,0.19041 -3.68815,0.97622 -8.01256,3.1374 -10.28278,5.13897 -1.83188,1.61508 -4.00472,4.52192 -4.00472,5.35753 0,0.97006 6.19298,2.97483 11.16005,3.6127 3.48076,0.447 13.21799,0.4638 16.71864,0.0289 z M 182.1955,302.38745 C 141.31084,299.82476 100.86333,286.04345 66.479649,262.96065 54.834878,255.14317 45.439104,247.37793 35.032647,236.97093 26.72516,228.66301 22.805058,224.16001 16.673812,215.88226 -3.829632,188.20069 -13.784178,156.32045 -10.799325,127.89729 -5.3275653,75.792692 38.54704,38.658345 102.96071,31.6137 c 11.20502,-1.225444 30.56509,-1.049199 43.39167,0.395016 68.3859,7.699943 133.21291,47.658524 163.82785,100.981494 14.2083,24.74705 20.14911,51.13784 16.9703,75.38697 -1.99718,15.23542 -7.97172,30.47059 -16.87784,43.03889 -4.94517,6.97862 -13.26021,15.71665 -20.16495,21.19079 -20.64403,16.36676 -47.02609,26.22349 -78.31508,29.25965 -6.82035,0.66183 -22.8487,0.94394 -29.59716,0.52094 z m 31.18466,-19.73407 c 32.54382,-3.30383 59.00141,-14.7968 77.69242,-33.74895 12.95185,-13.13281 20.88043,-28.60837 23.92624,-46.70086 1.07329,-6.37535 1.32031,-17.86362 0.531,-24.69445 -2.10361,-18.20511 -8.8259,-35.9344 -20.13087,-53.09305 C 268.10037,82.982353 217.2069,51.385603 163.07525,42.264073 150.76636,40.189947 145.77599,39.795579 131.53571,39.77164 c -13.5631,-0.0228 -16.98839,0.186222 -26.28194,1.603811 -35.042808,5.345244 -63.105726,21.50573 -79.265238,45.646172 -10.480752,15.657037 -15.48911,34.933647 -14.069349,54.151387 1.086263,14.70362 4.645469,27.46269 11.661468,41.80417 10.420862,21.30139 26.864391,40.72491 48.688396,57.512 30.419033,23.39841 70.764333,39.06907 108.479163,42.13477 2.52236,0.20503 5.30049,0.4334 6.17361,0.50748 3.00103,0.25463 22.75733,-0.10233 26.45834,-0.47805 z M 192.38988,233.89733 C 174.05552,232.7063 155.84629,227.76799 138.0621,219.16372 123.26032,212.00238 111.14098,203.40479 99.775702,192.00293 90.500285,182.69765 84.167927,174.08675 79.129135,163.92718 70.104014,145.7301 68.237284,127.7736 73.676983,111.48171 78.017599,98.481571 87.164224,87.243828 99.766356,79.427736 124.72413,63.948432 160.89635,61.832947 195.89836,73.805583 c 40.80531,13.957685 72.44708,43.490507 82.23508,76.754047 2.35091,7.98932 3.35135,17.3236 2.64272,24.65644 -1.7914,18.53681 -10.92468,33.54266 -26.98467,44.33546 -11.24935,7.55989 -25.17902,12.29497 -41.29328,14.03671 -4.81276,0.5202 -14.55367,0.66993 -20.10833,0.30909 z m 13.46422,-34.68806 c 18.66738,-1.24592 34.92648,-10.75122 41.71097,-24.3848 3.07375,-6.1768 4.07154,-11.09996 3.8173,-18.83479 -0.14267,-4.34048 -0.36943,-6.19423 -1.09975,-8.98955 -3.03075,-11.6003 -8.95505,-21.3051 -18.9641,-31.06565 -7.5021,-7.31585 -14.3474,-12.12153 -24.11197,-16.927605 -6.57608,-3.236708 -10.70745,-4.850818 -17.19623,-6.718484 -28.38897,-8.171201 -56.61208,-1.974437 -69.55565,15.271879 -3.79514,5.05673 -6.04492,10.25707 -7.13955,16.50302 -0.66778,3.81031 -0.48994,11.70046 0.34987,15.52222 2.92185,13.29673 11.37391,26.40289 23.80059,36.90631 13.53406,11.43942 30.80442,19.27181 48.55441,22.02023 4.13286,0.63993 12.29512,1.17627 15.18933,0.99809 0.97014,-0.0597 3.06029,-0.19512 4.64478,-0.30087 z m -14.42792,-21.398 c -20.34363,-1.88987 -40.19889,-14.36226 -48.37641,-30.38839 -6.0001,-11.75886 -4.99484,-23.65436 2.69354,-31.87326 6.48282,-6.93015 15.67072,-10.37429 27.77296,-10.41087 10.11825,-0.0306 18.97123,2.21279 28.92778,7.33042 13.55052,6.96491 24.03291,18.65282 27.16703,30.29134 1.16046,4.3093 1.32013,9.80981 0.39673,13.66764 -2.40908,10.06493 -10.24015,17.1913 -22.25426,20.25166 -3.07014,0.78207 -4.7259,0.97666 -11.13034,1.30808 -1.16416,0.0602 -3.50283,-0.0192 -5.19703,-0.17662 z m 9.10935,-16.53804 c 5.50945,-1.40909 9.84409,-4.73158 11.905,-9.12516 0.93019,-1.98304 1.11458,-2.83947 1.23223,-5.72323 0.10141,-2.48577 -0.0219,-3.94575 -0.46196,-5.46806 -3.49936,-12.10635 -17.5355,-21.9325 -32.30682,-22.61673 -18.57649,-0.86049 -27.88807,13.26293 -18.36354,27.85304 5.22414,8.0026 15.70529,14.33267 26.12946,15.78088 3.17357,0.44089 8.67134,0.11622 11.86563,-0.70074 z m -13.1329,-9.17456 c -6.36253,-1.14122 -12.76963,-5.55871 -15.16581,-10.45633 -1.16102,-2.37303 -1.5287,-5.95885 -0.82854,-8.08035 0.64338,-1.94947 2.85569,-4.14766 5.26037,-5.22682 5.94277,-2.66696 14.94145,-0.70578 20.70591,4.51266 4.89186,4.42851 6.53283,9.71824 4.34508,14.00658 -0.94643,1.85516 -3.53037,3.98219 -5.68163,4.67697 -2.29328,0.74065 -6.22784,0.99913 -8.63538,0.56729 z m 5.92764,-6.22128 c 4.8115,-2.81007 2.9288,-9.43256 -3.52103,-12.38539 -2.25223,-1.0311 -5.62198,-1.38404 -7.74063,-0.81072 -1.90621,0.51582 -3.79955,2.37736 -4.11201,4.04293 -0.41776,2.22683 0.3464,4.01063 2.73406,6.38224 1.7339,1.72224 2.6386,2.31797 4.46728,2.94163 2.82208,0.96246 6.3586,0.88859 8.17233,-0.17069 z"
         style="fill:#010101;stroke-width:0.35277778" />
    </g>
  </g>
</svg>
