<?xml version="1.0" encoding="UTF-8"?>
<svg width="635mm" height="423.33mm" version="1.1" viewBox="0 0 635 423.33" xmlns="http://www.w3.org/2000/svg">
   <g transform="translate(133.05 -12.762)">
      <g stroke-width=".35278">
         <path d="m24.263 360.1c-5.5952-0.98435-9.1219-2.4032-11.649-4.6865-1.6874-1.5245-2.4339-2.8489-2.4339-4.3182 0-0.83362 0.1558-1.0758 0.69196-1.0758 0.50192 0 0.79046 0.36582 1.0506 1.332 0.42265 1.5696 2.3775 3.5633 4.5705 4.6612 3.3557 1.68 7.9 2.5438 14.39 2.7352 6.441 0.19 10.04-0.14305 14.507-1.3426 5.1128-1.3728 8.2186-3.41 9.4527-6.2005 0.82838-1.8731 1.7155-2.4384 2.1303-1.3575 0.3364 0.87663-1.5686 4.2913-3.0474 5.4626-2.0116 1.5932-6.0625 3.336-9.8794 4.2503-2.7723 0.66407-4.5401 0.82072-10.231 0.90651-4.604 0.0694-7.7634-0.0519-9.5529-0.36667zm-52.007-0.0784c-10.474-1.2142-17.179-3.8829-19.438-7.7367-3.2944-5.6215 2.8825-10.911 15.204-13.021 6.8456-1.1719 17.627-0.58962 23.743 1.2824 9.0708 2.7763 12.718 8.2472 8.5273 12.793l-1.3761 1.4929 1.839 1.2095c1.0988 0.72271 1.882 1.5109 1.9458 1.9583 0.17199 1.2054-0.87037 1.2816-2.3975 0.17538-2.6758-1.9384-3.1542-2.0013-6.2427-0.82114-1.5155 0.57907-3.9049 1.3102-5.3097 1.6248-4.2002 0.9406-12.726 1.4793-16.496 1.0423zm11.035-2.2454c4.1046-0.4324 8.2606-1.3619 7.997-1.7885-0.11008-0.17811-0.62733-0.32424-1.1495-0.32472-1.9487-2e-3 -7.7532-1.8553-15.497-4.9485-8.7466-3.4936-12.003-4.4805-15.882-4.8129-2.8984-0.24844-3.6431 0.12635-4.5608 2.2954-0.45167 1.0676-0.42975 1.3163 0.23749 2.6946 1.1894 2.457 4.5978 4.376 10.313 5.8066 5.5964 1.4008 11.964 1.7709 18.542 1.078zm13.448-4.0346c0.54364-0.28113 1.4883-1.0804 2.0991-1.7762 4.2211-4.8076-3.6326-9.8827-17.24-11.141-7.047-0.65149-15.171 0.22883-20.307 2.2005-1.6927 0.64985-1.9213 0.82442-1.2064 0.92156 3.1757 0.43151 7.8155 1.9096 15.102 4.8112 8.3351 3.319 12.131 4.5199 16.125 5.1016 3.2029 0.46641 4.3441 0.44161 5.4261-0.11791zm303.22 5.6324c-5.4856-1.7327-30.662-4.766-39.575-4.768-2.1406-3.5e-4 -2.209 0.16143-1.1134 2.638 1.2783 2.8898-0.45593 3.1222-1.8222 0.2441-1.0433-2.1978-1.0995-5.0983-0.13095-6.7567 0.93497-1.6009 0.94093-1.6017 15.149-2.1377 17.769-0.67023 29.127-0.11417 30.746 1.5052 1.1567 1.1567-0.55429 2.635-3.9349 3.3998-2.1784 0.4928-8.6239 1.0954-12.171 1.1378-2.519 0.0302-2.3161 0.0887 4.2333 1.221 10.066 1.7402 11.915 2.3307 10.949 3.4955-0.51629 0.62207-0.42919 0.62129-2.3299 0.0209zm-2.1449-7.3637c4.5367-0.87366 4.2973-1.1317-1.5556-1.6767-2.9687-0.27642-8.0992-0.33117-15.854-0.1692-14.859 0.31036-21.165 0.69286-21.545 1.3069-0.15906 0.25738-0.20591 0.55193-0.1041 0.65456 0.81001 0.81645 34.74 0.7161 39.059-0.11552zm-238.58 7.2036c-0.78334-0.49571 0.05883-2.7914 1.7137-4.6714 2.3171-2.6324 6.8103-4.594 13.255-5.7869 4.2374-0.78431 13.308-0.79676 17.687-0.0243 8.3253 1.4686 13.887 5.0797 13.887 9.0165 0 0.98051-0.11109 1.1243-0.79375 1.0273-0.52383-0.0744-0.83393-0.39669-0.9119-0.94778-0.10676-0.7546-0.24271-0.81337-1.4111-0.61003-9.1806 1.5977-17.395 2.1132-25.768 1.6169-5.4111-0.32076-11.458-0.99154-14.581-1.6173-0.83417-0.16719-1.0217-0.032-1.4813 1.068-0.55284 1.3231-0.77209 1.4507-1.5965 0.92899zm29.16-2.137c5.3063-0.29457 12.342-1.1171 13.815-1.6153 0.72742-0.24592-0.48319-1.4584-2.4293-2.433-4.1253-2.066-9.3779-3.0093-16.757-3.0093-5.9068 0-10.066 0.57123-14.156 1.9441-2.5443 0.85409-6.1289 2.8029-6.1289 3.3321 0 0.39511 8.5252 1.4802 13.935 1.7735 2.5224 0.1368 4.8242 0.27042 5.1153 0.29695 0.29104 0.0265 3.2637-0.10357 6.6059-0.2891zm19.967 0.439c-1.2582-2.5623-1.3322-5.4378-0.20434-7.9375 0.78145-1.7319 0.98266-1.8816 1.8182-1.3526 0.41836 0.26489 0.40497 0.53309-0.0882 1.7656-0.94788 2.369-0.80743 2.4654 1.7998 1.236 2.8637-1.3503 5.8995-2.1176 11.152-2.8187 4.9936-0.66649 17.394-1.0386 23.244-0.69741 4.2855 0.24995 4.4979 0.29815 4.498 1.0206l5e-5 0.75822h-11.201c-11.564 0-15.733 0.30775-21.739 1.6046-2.8606 0.61777-6.9247 2.1449-6.9247 2.6021 0 0.1038 0.63409 0.51222 1.4091 0.90759 1.9773 1.0088 6.5252 2.0185 11.291 2.5068 4.7156 0.48322 18.151 0.58585 23.901 0.18257l3.9688-0.27838v0.91168c0 0.50142-0.19844 0.92138-0.44097 0.93325-21.567 1.0552-33.767 0.16324-39.898-2.9168-0.7464-0.37499-1.4221-0.61683-1.5015-0.53743-0.0794 0.0794 0.25542 0.89627 0.74404 1.8152 0.94056 1.769 0.89921 2.3229-0.17339 2.3229-0.45133 0-0.97246-0.63878-1.6549-2.0285zm66.032 1.6445c-9.3908-0.3959-15.947-1.6089-19.369-3.5838-2.7726-1.6-2.5672-2.432 1.0237-4.1458 2.6752-1.2767 6.7177-2.2606 12.348-3.0052 4.9825-0.65896 22.13-1.0667 26.811-0.63759 2.8428 0.2606 3.175 0.36488 3.175 0.99661 0 0.6908-0.19553 0.70307-9.3486 0.58659-13.043-0.16599-24.882 0.85762-29.457 2.5468-1.2756 0.47102 0.42305 0.52346 17.684 0.54593 16.756 0.0218 19.15 0.0915 19.547 0.56897 0.28494 0.34333 0.32801 0.66769 0.11672 0.87898-0.20118 0.20118-8.2858 0.37125-20.252 0.42602-21.417 0.098-21.87 0.14958-14.802 1.6844 6.4129 1.3927 16.014 1.7428 35.101 1.2802 1.8986-0.046 2.1167 0.0214 2.1167 0.65426 0 0.60273-0.3085 0.73761-2.1167 0.92549-3.6966 0.38408-16.362 0.54006-22.578 0.27803zm152.92-2.1585c-0.23587-1.3984-0.33556-3.5415-0.22155-4.7625l0.2073-2.22-4.3082 4e-3c-2.3695 2e-3 -6.2133 0.16481-8.5416 0.3618-7.0835 0.59928-6.6889 0.61417-6.8129-0.25715-0.0902-0.63356 0.1015-0.80829 1.0583-0.96495 5.9806-0.97912 25.425-1.2893 34.682-0.55328 7.4121 0.58934 8.0895 0.72792 8.2266 1.683 0.1356 0.94479 0.42806 0.93306-6.4628 0.25903-2.9104-0.28468-7.7012-0.52086-10.646-0.52484l-5.3545-7e-3 -0.25594 2.0285c-0.14986 1.1879-0.0873 3.018 0.15103 4.4163 0.5335 3.1306 0.54077 3.0803-0.44313 3.0803-0.77995 0-0.88547-0.20975-1.2789-2.5425zm40.758 1.805c-10.284-0.48343-11.625-0.73013-10.824-1.9921 0.21819-0.34394 1.5079-0.35374 6.0797-0.0462 3.1915 0.21468 10.803 0.39947 16.915 0.41062 10.813 0.0198 14.404-0.23884 16.836-1.2124l0.97902-0.39186-1.0583-0.35018c-0.59136-0.19567-8.8414-0.47765-18.697-0.63907-9.7014-0.15889-18.274-0.42977-19.05-0.60195-3.5097-0.77866-4.0229-2.2657-1.1492-3.3302 6.8365-2.5324 21.036-3.3372 35.898-2.0349 5.3308 0.46711 5.6444 0.54823 5.6444 1.4599 0 0.72683-0.10025 0.74373-3.0868 0.52012-17.379-1.3012-25.357-1.1348-34.059 0.71048-1.858 0.394-2.6341 0.69916-2.3925 0.94075 0.22482 0.22482 6.9435 0.45615 18.096 0.62307 18.487 0.27669 20.652 0.45861 21.602 1.8157 1.0878 1.5531-0.74168 2.8722-5.0696 3.6552-3.5287 0.63846-17.698 0.88453-26.664 0.46307zm-162.72-3.464c0.59541-6.5662 6.8426-12.722 15.441-15.214 3.6475-1.0573 11.109-1.3348 14.807-0.55064 8.0428 1.7054 14.338 7.4477 16.007 14.6 0.52987 2.2714 0.47428 2.5436-0.51971 2.5436-0.63119 0-0.78246-0.30153-1.2068-2.4061-0.18331-0.90893-0.36707-1.1182-0.82011-0.93391-10.65 4.3322-27.867 4.8798-38.494 1.2243-1.642-0.5648-3.042-0.97033-3.1111-0.90118-0.0691 0.0691-0.23527 0.8953-0.36916 1.8359-0.20632 1.4495-0.37183 1.7284-1.0859 1.8297-0.82639 0.11725-0.83872 0.0786-0.6477-2.0279zm33.776-1.0419c3.6669-0.64563 8.9076-2.1356 9.4621-2.6901 0.44475-0.44474-1.4956-3.3887-3.4829-5.2842-2.4213-2.3095-6.0253-4.148-9.7606-4.979-3.2107-0.7143-10.456-0.53275-13.681 0.34278-5.2523 1.426-10.899 5.234-12.811 8.6388l-0.81639 1.4542 0.99278 0.38987c3.8205 1.5003 7.1639 2.285 12.458 2.9239 3.0811 0.37181 13.737-0.10919 17.639-0.79622zm-56.797-51.555c-25.926-1.6574-50.755-7.471-75.519-17.683-6.9233-2.8549-21.261-9.9683-27.668-13.727-28.604-16.781-51.368-37.711-67.519-62.079-12.383-18.684-19.765-37.625-22.476-57.675-0.86952-6.4307-0.88404-20.525-0.027446-26.635 2.4702-17.619 9.0292-33.108 20.018-47.272 3.3253-4.2861 10.782-11.93 15.255-15.638 20.346-16.866 47.451-27.456 78.738-30.765 11.576-1.2242 30.464-1.0527 43.039 0.39079 52.195 5.9918 102.4 30.103 137.41 65.997 31.299 32.084 47.394 70.44 44.415 105.85-3.3203 39.469-29.192 71.848-70.352 88.047-14.342 5.6446-28.832 9.0078-46.003 10.677-6.6702 0.64854-22.779 0.92999-29.315 0.51219zm8.3063-160.67c1.2585-1.2585 1.1177-2.4931-0.46496-4.0757-3.8707-3.8707-9.9574-1.2215-6.5359 2.8447 1.8618 2.2126 5.3976 2.8344 7.0009 1.2311z" fill="#9bb9dc" />
         <path d="m25.765 360.22c-5.3771-0.69782-10.274-2.4555-12.922-4.6381-2.1873-1.803-3.5664-5.5663-2.0398-5.5663 0.42911 0 0.81879 0.55195 1.2532 1.7751 1.3405 3.7742 6.9049 6.1894 16.294 7.0721 12.405 1.1663 25.108-2.5598 26.686-7.8276 0.45308-1.5123 1.7106-1.9941 1.7106-0.65548 0 3.4179-4.7767 7.0604-11.498 8.7678-5.4305 1.3795-13.638 1.8312-19.484 1.0725zm-58.094-0.89895c-8.475-1.5286-14.735-5.015-15.533-8.6512-0.82064-3.7364 2.2849-7.17 8.5541-9.458 4.0454-1.4764 8.0042-2.1466 14.064-2.3812 14.387-0.55679 25.947 3.5689 27.172 9.698 0.29934 1.4967-0.61125 3.8817-1.9843 5.1971-0.57864 0.55437-1.0521 1.1177-1.0521 1.2519 0 0.13419 0.4576 0.43352 1.0169 0.66519 0.55929 0.23166 1.4721 0.89772 2.0285 1.4801 0.96249 1.0075 0.9801 1.082 0.36279 1.5356-0.57093 0.41944-0.8365 0.33336-2.2129-0.71729-1.912-1.4594-3.5569-1.831-4.9447-1.1169-1.776 0.91383-5.847 2.0326-9.3033 2.5567-4.3242 0.65568-14.384 0.62243-18.168-0.06zm16.757-1.5479c3.6055-0.45593 7.4461-1.4137 7.2088-1.7977-0.10719-0.17344-0.56205-0.31534-1.0108-0.31534-1.9463 0-8.2367-1.9616-15.149-4.7237-10.708-4.2792-13.259-5.0248-17.824-5.2083-1.7239-0.0693-1.9812 0.0206-2.7238 0.95202-3.5198 4.4143 1.8768 8.7967 13.447 10.92 2.9486 0.54109 12.341 0.6424 16.051 0.17313zm12.917-4.2546c3.3203-2.052 3.6019-5.1106 0.70484-7.6542-6.4101-5.6282-25.888-7.1401-37.081-2.8784l-2.1167 0.80587 2.2931 0.42902c3.7213 0.69622 6.0948 1.4831 14.343 4.7553 8.167 3.2399 11.705 4.3797 15.165 4.8851 3.6752 0.53683 5.4126 0.44786 6.6917-0.3427zm111.61 4.8756c-1.3959-2.288-1.849-4.3084-1.4246-6.3527 0.2132-1.027 0.7127-2.4017 1.11-3.055 0.63213-1.0395 0.78647-1.1237 1.2356-0.67459 0.44913 0.44912 0.42025 0.72345-0.23122 2.1962-0.40946 0.92564-0.67792 1.7495-0.59658 1.8309 0.0813 0.0813 1.0882-0.32199 2.2374-0.89628 4.353-2.1752 12.31-3.4181 23.956-3.742 3.8806-0.10794 8.8812-0.0678 11.112 0.0893 3.5409 0.24923 4.0569 0.3651 4.0569 0.91089 0 0.58437-0.7975 0.63265-12.171 0.73684-12.38 0.1134-15.673 0.37361-21.167 1.6723-3.1237 0.7385-6.0523 1.9772-6.2558 2.6461-0.17858 0.58703 3.1406 1.8316 6.9339 2.5999 5.4568 1.1053 13.297 1.5329 22.958 1.2522 4.7537-0.13813 9.0399-0.27575 9.525-0.30581 0.66497-0.0412 0.88194 0.11891 0.88194 0.65089 0 0.64253-0.33091 0.73121-3.7042 0.99272-5.8447 0.4531-23.916 0.0538-27.869-0.61579-3.8169-0.64647-7.4064-1.707-9.084-2.684-1.3366-0.77838-1.418-0.49006-0.41635 1.4734 1.176 2.3052 0.22306 3.4224-1.0873 1.2747zm149.82 0.74054c-1.7505-0.99022-2.5784-6.0228-1.3842-8.4134 0.6011-1.2033 0.68308-1.2406 3.2238-1.4674 5.8176-0.51929 25.968-1.0668 31.083-0.84457 8.7566 0.38045 11.642 1.0011 11.642 2.5044 0 1.7692-3.6569 2.8249-11.558 3.3368-2.8596 0.18524-5.9136 0.35925-6.7867 0.38667-1.5716 0.0494-1.5662 0.0531 0.52916 0.37232 5.4301 0.82725 10.853 1.803 13.67 2.4595 2.6412 0.61559 3.0868 0.82369 3.0868 1.4418 0 0.82769 0.31422 0.85519-6.5818-0.57597-5.2144-1.0822-12.63-2.08-21.111-2.8407-7.413-0.66491-15.765-1.1794-16.129-0.99346-0.13959 0.0713 0.0665 0.94244 0.45812 1.9359 0.86349 2.1907 0.80832 3.2361-0.14245 2.6983zm35.922-6.6526c3.7301-0.41128 6.5264-1.0125 6.5264-1.4032 0-0.5418-2.4062-0.73716-11.642-0.94517-10.242-0.23069-29.878 0.42215-30.603 1.0175-0.24254 0.1991-0.44098 0.57451-0.44098 0.83424 0 0.60105 2.1533 0.68651 19.579 0.77705 7.3731 0.0383 14.834-0.0879 16.581-0.28043zm33.195 6.7614c-0.52151-0.84379-0.93342-5.7817-0.62424-7.4828 0.25848-1.4222 0.2263-1.839-0.15332-1.9846-0.2643-0.10141-3.8564 0.0238-7.9826 0.27833-10.084 0.62196-11.383 0.6192-11.383-0.0242 0-0.71586 1.4513-0.9533 8.8284-1.4444 11.758-0.78267 34.516 0.085 34.996 1.3342 0.38618 1.0064-0.48966 1.1091-5.3715 0.62989-2.7164-0.26667-7.5939-0.59638-10.839-0.73269l-5.9-0.24784-0.39415 1.0169c-0.34354 0.88632-0.29909 4.3728 0.10057 7.8851 0.10111 0.88853-0.85037 1.4635-1.2776 0.77215zm-268.76-0.25853c-0.64926-0.64926 1.2932-4.2284 3.0012-5.5302 4.8339-3.6839 13.014-5.4696 23.315-5.0894 6.8425 0.25254 11.511 1.2285 15.334 3.2056 2.6744 1.383 5.186 4.5867 4.9339 6.2934-0.16379 1.1087-0.92411 1.151-1.4127 0.0786-0.4867-1.0682-0.0787-1.0724-6.9868 0.0716-5.3485 0.88569-23.084 0.89444-29.104 0.0144-2.3283-0.3404-4.9078-0.71603-5.7322-0.83472-1.4586-0.21003-1.5048-0.18619-1.7198 0.8889-0.20458 1.0229-1.0437 1.4873-1.6292 0.90178zm31.835-1.9151c5.1389-0.44093 11.6-1.4102 11.825-1.774 0.27472-0.4445-2.6172-2.3931-4.7527-3.2024-4.0653-1.5407-8.2929-2.1874-14.481-2.215-6.026-0.0269-9.2232 0.35396-13.582 1.6179-3.6253 1.0512-7.8074 3.3493-7.202 3.9576 0.31302 0.31449 6.9909 1.2564 11.216 1.5819 5.4408 0.41921 12.327 0.43303 16.977 0.0341zm78.18 1.7136c-4.2679-0.37618-9.7326-1.4629-12.303-2.4467-2.1764-0.83284-3.8542-2.2106-3.5758-2.9362 0.29545-0.76991 3.965-2.5694 6.8556-3.362 6.3106-1.7302 20.418-2.7731 31.492-2.3282 6.3987 0.25708 6.6302 0.29199 6.5264 0.98416-0.10568 0.70473-0.29463 0.71643-10.515 0.65162-10.582-0.0671-16.698 0.26574-22.401 1.2189-3.9062 0.65289-7.2319 1.5572-7.2319 1.9664 0 0.16949 8.666 0.30629 19.403 0.30629 19.168 0 19.403 9e-3 19.403 0.70556 0 0.69699-0.24509 0.70591-20.197 0.73528-19.875 0.0292-20.174 0.04-18.785 0.67651 1.7344 0.79498 5.6497 1.6171 10.27 2.1565 3.6509 0.42621 18.683 0.60935 26.242 0.31972 4.2559-0.16306 4.4134-0.14344 4.5153 0.56247 0.0998 0.69193-0.10973 0.74383-3.8806 0.96111-5.4296 0.31285-21.537 0.20585-25.818-0.17151zm195.4-0.30028c-2.1343-0.14514-4.6457-0.2841-5.5808-0.30878-1.5508-0.0409-1.6903-0.11461-1.5873-0.83863 0.0743-0.5221 0.33595-0.77501 0.76457-0.73901 0.35843 0.0301 4.9472 0.25127 10.197 0.49147 14.537 0.66506 27.347 0.1058 29.61-1.2927 1.4582-0.90126-8.703-1.5174-25.313-1.535-6.3216-7e-3 -11.845-0.17397-13.053-0.39528-2.0886-0.38282-3.328-1.1-3.328-1.9257 0-0.94494 4.9065-2.3418 11.042-3.1437 6.7612-0.88364 23.527-0.67666 30.868 0.38106 1.1482 0.16545 1.4895 0.35825 1.4038 0.79324-0.13882 0.705-0.96488 0.71059-9.61 0.0651-6.852-0.51161-19.088-0.34125-23.12 0.32192-3.4678 0.5703-7.4083 1.5217-7.4083 1.7886 0 0.48676 5.1232 0.68712 17.639 0.68985 18.122 4e-3 22.931 0.55374 22.931 2.6219 0 1.1086-0.92738 1.7427-3.7042 2.5329-1.7947 0.5107-4.0756 0.61408-14.993 0.6795-7.082 0.0424-14.623-0.0416-16.757-0.18673zm-159.15-3.0003c0.83268-7.0848 6.721-12.781 15.92-15.402 3.7465-1.0673 11.791-1.1602 15.346-0.17721 7.1382 1.9741 12.136 6.3183 14.289 12.421 1.079 3.0582 1.1417 4.3939 0.20606 4.3939-0.50521 0-0.73096-0.33392-0.89927-1.3301-0.3823-2.2629-0.47522-2.2987-3.3869-1.3071-5.9388 2.0226-15.585 3.2468-22.38 2.8401-6.6521-0.39822-13.13-1.7015-16.132-3.2456-1.0676-0.54915-1.0097-0.64256-1.5029 2.4254-0.16712 1.0394-0.37088 1.3229-0.95084 1.3229-0.68721 0-0.7224-0.13393-0.51001-1.9411zm33.736-1.0488c3.7656-0.68544 9.8778-2.5317 9.8778-2.9838 0-0.79393-3.0722-4.7491-4.6938-6.0429-4.706-3.7545-11.474-5.4361-18.393-4.5697-7.5068 0.94006-13.978 4.481-17.046 9.3274-0.84749 1.3388-0.85458 1.4002-0.21578 1.8678 1.0242 0.74978 5.9675 2.1775 9.48 2.7381 4.3511 0.69436 16.386 0.5012 20.99-0.33691zm-55.21-51.768c-31.244-1.3217-66.183-10.944-95.426-26.281-21.35-11.198-38.978-24.178-55.056-40.543-13.198-13.433-22.498-26.064-30.355-41.225-17.749-34.251-19.434-69.564-4.7466-99.483 6.0053-12.233 14.303-22.898 24.89-31.988 31.169-26.763 78.884-37.901 130.43-30.446 61.471 8.8906 119.91 44.068 150.89 90.832 4.9331 7.4453 6.758 10.569 10.1 17.286 13.399 26.933 16.979 54.425 10.372 79.641-7.5395 28.772-28.12 52.481-58.088 66.918-15.761 7.5924-32.522 12.241-52.19 14.474-5.1736 0.58738-19.711 1.3289-22.886 1.1673-1.0672-0.0543-4.639-0.21288-7.9375-0.35241zm27.869-20.235c29.222-2.5297 54.827-12.435 73.36-28.379 13.879-11.94 23.536-27.256 27.88-44.215 1.7589-6.8675 2.3352-11.23 2.5511-19.31 0.33796-12.648-1.3159-23.396-5.4824-35.628-3.8196-11.214-8.1198-19.812-15.423-30.838-6.5184-9.8415-13.207-17.831-22.472-26.843-33.394-32.481-80.851-53.549-128.32-56.967-7.5298-0.54212-25.623-0.24734-32.103 0.52304-36.405 4.328-65.277 19.195-82.856 42.666-8.549 11.414-13.739 24.015-16.131 39.162-0.68198 4.3195-0.94337 15.615-0.47458 20.509 2.102 21.941 11.049 43.459 26.477 63.676 23.554 30.868 59.448 54.949 100.5 67.428 14.09 4.283 29.927 7.2676 44.45 8.3771 5.976 0.45654 21.967 0.36404 28.046-0.16224zm-19.403-48.209c-31.707-1.943-65.285-16.27-88.851-37.911-3.6831-3.3822-6.1181-5.9218-10.249-10.69-12.419-14.333-19.908-29.912-22.47-46.743-0.6821-4.4802-0.50972-14.083 0.33894-18.881 6.483-36.653 45.238-58.701 93.892-53.416 38.594 4.1922 76.219 24.824 97.851 53.658 9.4318 12.571 15.194 25.317 17.537 38.79 1.0901 6.2689 1.0952 15.405 0.012 21.442-3.4795 19.39-15.897 34.954-35.496 44.49-7.9959 3.8905-15.27 6.2146-24.694 7.8903-7.932 1.4103-18.643 1.9376-27.869 1.3722zm-2.7934-91.287c0.91049 0 1.9114-1.3606 1.9114-2.5983 0-3.183-5.3472-5.7262-7.8691-3.7425-0.49977 0.39311-1.0068 1.024-1.1268 1.402-0.29724 0.93653 0.7552 3.0366 1.9471 3.8853 1.0525 0.74944 3.4017 1.4224 4.1672 1.1938 0.25841-0.0772 0.69497-0.14033 0.97014-0.14033z" fill="#9c9fa3" />
         <path d="m27.049 360.25c-8.2865-0.95482-14.917-3.9518-16.198-7.3218-0.76701-2.0174-0.77689-2.553-0.04706-2.553 0.49086 0 0.76115 0.30726 0.90559 1.0294 0.88524 4.4262 9.9745 7.79 21.049 7.79 11.361 0 21.315-3.6229 22.498-8.1879 0.16676-0.64356 0.5653-1.2106 0.89556-1.2742 1.5243-0.29356-0.18511 3.6123-2.3486 5.3662-2.7167 2.2024-6.505 3.6796-11.873 4.6296-3.7678 0.66679-11.324 0.93167-14.882 0.52169zm-57.36-0.7271c-6.3128-0.82016-12.986-3.3588-15.538-5.9111-4.9189-4.9189-0.59628-10.614 10.12-13.332 12.182-3.0901 28.648-1.0671 34.895 4.287 1.8625 1.5964 2.5484 2.8748 2.5484 4.75 0 1.7145-0.59874 2.9743-2.0852 4.3875-1.268 1.2056-1.3341 1.4846-0.42007 1.7747 0.36837 0.11692 1.34 0.69811 2.1592 1.2915 1.3336 0.96605 1.4333 1.1352 0.95248 1.6159-0.48078 0.48079-0.69751 0.42861-2.071-0.49864-2.8266-1.9082-3.4236-2.014-5.6394-0.9996-5.4758 2.5069-16.739 3.6976-24.921 2.6346zm11.777-1.4001c4.562-0.36732 10.723-1.5665 10.723-2.0871 0-0.15287-0.77547-0.38081-1.7233-0.50653-3.4454-0.45706-7.4367-1.7316-15.563-4.9695-8.617-3.4336-12.265-4.5372-16.342-4.9446-2.0553-0.20532-2.5122-0.14578-3.1229 0.40691-4.2152 3.8147-0.29337 8.4795 9.1465 10.879 5.8424 1.4853 9.9304 1.7811 16.882 1.2214zm16.276-4.7898c3.6586-2.7906 3.2977-5.8182-1.0266-8.6131-7.1403-4.615-23.617-5.703-34.465-2.276-1.5627 0.49367-2.9314 1.0434-3.0416 1.2216-0.11015 0.17823 0.39945 0.42403 1.1324 0.54624 3.5979 0.59983 7.5032 1.8608 14.819 4.7845 6.9601 2.7817 12.152 4.487 15.265 5.0141 0.48507 0.0821 2.0576 0.17094 3.4945 0.19736 2.3144 0.0426 2.7506-0.0572 3.8224-0.87476zm110.85 4.0096c-0.70558-1.4914-1.0432-2.7544-1.0434-3.9034-3.1e-4 -1.9258 1.2458-5.1807 1.9834-5.1807 0.62756 0 0.61468 0.66354-0.0434 2.2386-0.94463 2.2608-0.74883 2.379 1.8521 1.1178 5.4498-2.6426 10.775-3.3859 25.877-3.6119 11.842-0.17725 13.802-0.0247 13.154 1.0237-0.16285 0.2635-2.1948 0.30615-6.6245 0.13905-11.133-0.41996-23.355 0.62328-29.039 2.4786-3.3633 1.0979-4.5526 1.8464-3.9183 2.466 0.85956 0.83949 4.2465 1.9346 8.3614 2.7035 3.7493 0.70059 5.2647 0.76641 17.942 0.77922 10.557 0.0107 13.847 0.11498 13.847 0.43899-7e-5 0.77198-2.5259 0.94969-13.758 0.96801-14.881 0.0243-21.236-0.77789-26.194-3.306-2.2758-1.1606-2.4484-0.9531-1.128 1.3568 0.8665 1.5159 0.92697 2.4965 0.15395 2.4965-0.20835 0-0.84821-0.99219-1.4219-2.2049zm189.81 1.4585c-6.1651-1.5584-18.107-3.0999-31.044-4.0072-9.195-0.64486-9.1722-0.6446-9.1722-0.10389 0 0.23878 0.34589 1.2687 0.76866 2.2887 0.78074 1.8836 0.72881 2.46-0.18986 2.1075-0.67293-0.25823-1.9899-3.8216-1.9899-5.3841 0-1.7152 0.86699-3.6137 1.8337-4.0155 2.1583-0.89704 33.766-1.4574 39.766-0.70498 3.2876 0.41224 5.069 1.1371 4.9004 1.9941-0.34904 1.7734-4.7047 2.8535-12.634 3.1328-8.7839 0.30941-9.1269 0.48218-2.8222 1.4216 6.0684 0.90415 13.769 2.5032 14.239 2.957 0.38107 0.36749-0.0268 1.0738-0.58981 1.0218-0.2311-0.0213-1.6108-0.33975-3.066-0.70761zm-2.293-6.3196c1.7462-0.22683 3.7306-0.6536 4.4097-0.94837l1.2347-0.53595-1.0583-0.31504c-2.6894-0.80058-12.475-1.0586-24.8-0.65396-6.8492 0.22487-13.517 0.51403-14.817 0.64257-2.0984 0.2075-2.3761 0.32274-2.4763 1.0275-0.0964 0.67915 0.0564 0.80049 1.0583 0.84044 0.6441 0.0257 3.6317 0.16701 6.6391 0.31407 7.4534 0.36446 25.916 0.13454 29.81-0.37123zm31.675 6.1209c-0.15268-0.54736-0.2776-2.7812-0.2776-4.9641v-3.9689l-2.9986 1e-3c-2.9253 1e-3 -10.486 0.47354-14.552 0.90946-1.8514 0.19849-2.0285 0.15732-2.0285-0.47171 0-0.59341 0.33091-0.72048 2.3812-0.9144 10.878-1.0289 25.233-1.1214 34.85-0.22448 5.5413 0.51682 6.1608 0.64666 6.1608 1.2912 0 0.48162-0.37733 0.52682-2.734 0.32753-7.8353-0.66262-11.928-0.90299-15.498-0.91023-3.7821-8e-3 -3.9557 0.0248-4.2055 0.78574-0.22825 0.69553-0.24102 3.8787-0.0307 7.6393 0.0837 1.4959-0.6876 1.8573-1.0663 0.49961zm-268.57-0.10144c0-1.1725 1.2505-3.3255 2.6403-4.5458 4.2701-3.7492 14.144-6.0593 23.818-5.5725 9.5202 0.47906 16.735 3.0469 18.855 6.7105 1.0847 1.8745 1.2735 3.1629 0.4864 3.3197-0.39293 0.0782-0.62869-0.1546-0.70555-0.69686-0.13828-0.97552 0.0471-0.97778-6.6418 0.0807-7.34 1.1615-21.619 1.1867-29.633 0.0524-3.0074-0.42566-5.8165-0.86889-6.2424-0.98495-0.65115-0.17746-0.82304-0.023-1.0806 0.97102-0.35141 1.3561-1.4965 1.8656-1.4965 0.66578zm37.924-1.9208c6.7632-1.0844 6.6356-0.99467 4.1362-2.9065-2.9071-2.2236-8.743-3.649-16.015-3.9113-7.8692-0.2839-15.024 0.89198-19.631 3.226-1.9592 0.99282-3.5001 2.1804-3.2088 2.4732 0.31487 0.31634 3.7345 0.89421 8.5305 1.4415 5.7801 0.6596 21.249 0.46886 26.187-0.32291zm73.907 2.2462c-7.9204-0.6314-13.553-1.9147-16.316-3.7174-0.7276-0.47469-1.3229-1.0967-1.3229-1.3822 0-0.28554 0.59531-0.90962 1.3229-1.3868 2.8436-1.8652 9.3762-3.3693 17.727-4.0818 4.4036-0.37572 23.668-0.47592 24.959-0.12982 0.43657 0.11699 0.79375 0.45409 0.79375 0.74911 0 0.47016-0.86048 0.50624-6.9674 0.29218-7.7065-0.27013-19.105 0.20951-24.591 1.0348-3.9364 0.59218-8.9177 1.8506-9.2123 2.3273-0.11181 0.18092 8.1682 0.31314 19.609 0.31314 18.669 0 19.795 0.0353 19.683 0.61736-0.11104 0.57697-1.4457 0.6289-20.399 0.79375-19.558 0.17011-20.228 0.19786-18.809 0.77936 0.80876 0.33164 2.4756 0.83245 3.7042 1.1129 5.4698 1.2487 8.8308 1.4591 23.312 1.4591 10.477 0 14.376 0.10845 14.376 0.39985 0 0.21992-0.43656 0.4953-0.97014 0.61196-1.7306 0.37837-22.724 0.54014-26.899 0.20728zm194.2-0.37025c-7.2404-0.3694-7.9375-0.47754-7.9375-1.2312 0-0.481 0.65543-0.51142 5.5562-0.25787 9.1866 0.47528 29.536 0.3607 32.215-0.1814 2.4612-0.49796 3.4591-0.92778 3.0663-1.3206-0.68996-0.68995-4.8209-0.92266-20.906-1.1777-18.832-0.29859-20.344-0.44535-20.565-1.9962-0.12227-0.85484 0.63497-1.2674 3.8861-2.1174 4.5082-1.1786 8.0559-1.5757 15.974-1.788 7.3303-0.19655 14.785 0.0917 20.871 0.80708 1.5461 0.18171 1.8829 0.34268 1.8829 0.8999 0 0.59558-0.18341 0.65332-1.4993 0.47196-10.813-1.4903-29.004-1.1356-36.336 0.70862-5.0932 1.281-3.0441 1.4864 17.198 1.7241 15.076 0.17704 19.01 0.45949 20.571 1.4771 1.7262 1.1253 0.13191 2.6659-3.6376 3.5151-3.0503 0.68716-20.696 0.9585-30.339 0.46653zm-159.78-1.3399c-0.43486-0.70361 0.8577-5.471 1.9986-7.3712 2.662-4.4341 8.1526-8.073 14.558-9.6486 4.0397-0.99363 10.425-1.0723 14.101-0.17378 7.7794 1.9016 13.804 7.5884 15.351 14.489 0.2444 1.0907 0.26253 1.8441 0.0495 2.0572-0.55051 0.55051-1.0267-0.0104-1.2796-1.5074-0.13078-0.77408-0.38069-1.4957-0.55535-1.6037-0.17462-0.10794-1.788 0.27189-3.5852 0.84406-5.1865 1.6512-9.265 2.239-16.857 2.4297-8.0707 0.20272-13.194-0.38262-17.984-2.0546-4.2041-1.4675-4-1.5004-4.4241 0.71268-0.35162 1.8345-0.90957 2.5767-1.3731 1.8266zm27.317-1.8074c7.1692-0.62219 15.679-2.6015 16.12-3.7492 0.27887-0.72672-1.8473-3.7886-3.9919-5.7486-5.8162-5.3157-15.853-6.766-25.275-3.6521-4.6288 1.5298-9.3913 5.0711-10.998 8.1777-0.30201 0.58405-0.54912 1.2171-0.54912 1.4068 0 0.4591 3.376 1.7008 6.8756 2.5288 5.2026 1.231 11.415 1.5923 17.819 1.0365zm-53.446-52.923c-49.718-3.9153-96.956-23.449-134.23-55.507-4.9839-4.2863-15.987-15.328-20.257-20.328-18.648-21.837-30.695-46.163-34.767-70.203-2.1332-12.594-2.0012-25.66 0.38456-38.046 3.7521-19.48 14.693-38.615 30.121-52.682 12.66-11.543 28.729-20.719 46.554-26.587 23.981-7.8941 51.026-10.354 79.034-7.19 46.673 5.2734 92.219 25.346 126.75 55.86 5.2761 4.6628 15.988 15.566 19.786 20.138 20.771 25.009 32.507 51.008 34.993 77.52 0.54313 5.7914 0.24549 19.632-0.52406 24.37-2.8742 17.695-9.0711 32.004-19.964 46.1-3.1471 4.0722-12.485 13.453-16.513 16.587-21.446 16.692-45.974 26.072-77.143 29.503-5.7767 0.6359-28.181 0.94-34.219 0.46447zm32.456-19.948c29.222-2.5297 54.827-12.435 73.36-28.379 13.879-11.94 23.536-27.256 27.88-44.215 1.7589-6.8675 2.3352-11.23 2.5511-19.31 0.33796-12.648-1.3159-23.396-5.4824-35.628-3.8196-11.214-8.1198-19.812-15.423-30.838-6.5184-9.8415-13.207-17.831-22.472-26.843-33.394-32.481-80.851-53.549-128.32-56.967-7.5298-0.54212-25.623-0.24734-32.103 0.52304-36.405 4.328-65.277 19.195-82.856 42.666-8.549 11.414-13.739 24.015-16.131 39.162-0.68198 4.3195-0.94337 15.615-0.47458 20.509 2.102 21.941 11.049 43.459 26.477 63.676 23.554 30.868 59.448 54.949 100.5 67.428 14.09 4.283 29.927 7.2676 44.45 8.3771 5.976 0.45654 21.967 0.36404 28.046-0.16224zm-13.935-48.029c-28.301-0.7429-57.181-10.504-80.874-27.333-22.615-16.064-38.685-37.554-44.32-59.268-4.1453-15.974-2.5708-31.992 4.4316-45.083 15.24-28.492 53.321-42.248 96.597-34.894 29.37 4.9909 58.035 19.663 78.493 40.177 22.444 22.505 32.779 49.998 27.864 74.118-5.1691 25.365-26.79 44.273-57.438 50.229-7.2161 1.4024-9.0838 1.5926-20.345 2.0722-0.77611 0.0331-2.7605 0.0247-4.4097-0.0186zm-8.2614-91.467c0.91049 0 1.9114-1.3606 1.9114-2.5983 0-3.183-5.3472-5.7262-7.8691-3.7425-0.49977 0.39311-1.0068 1.024-1.1268 1.402-0.29724 0.93653 0.7552 3.0366 1.9471 3.8853 1.0525 0.74944 3.4017 1.4224 4.1672 1.1938 0.25841-0.0772 0.69497-0.14033 0.97014-0.14033z" fill="#6997cc" />
         <path d="m27.049 360.25c-8.2865-0.95482-14.917-3.9518-16.198-7.3218-0.76701-2.0174-0.77689-2.553-0.04706-2.553 0.49086 0 0.76115 0.30726 0.90559 1.0294 0.88524 4.4262 9.9745 7.79 21.049 7.79 11.361 0 21.315-3.6229 22.498-8.1879 0.16676-0.64356 0.5653-1.2106 0.89556-1.2742 1.5243-0.29356-0.18511 3.6123-2.3486 5.3662-2.7167 2.2024-6.505 3.6796-11.873 4.6296-3.7678 0.66679-11.324 0.93167-14.882 0.52169zm-57.36-0.7271c-6.3128-0.82016-12.986-3.3588-15.538-5.9111-4.9189-4.9189-0.59628-10.614 10.12-13.332 12.182-3.0901 28.648-1.0671 34.895 4.287 1.8625 1.5964 2.5484 2.8748 2.5484 4.75 0 1.7145-0.59874 2.9743-2.0852 4.3875-1.268 1.2056-1.3341 1.4846-0.42007 1.7747 0.36837 0.11692 1.34 0.69811 2.1592 1.2915 1.3336 0.96605 1.4333 1.1352 0.95248 1.6159-0.48078 0.48079-0.69751 0.42861-2.071-0.49864-2.8266-1.9082-3.4236-2.014-5.6394-0.9996-5.4758 2.5069-16.739 3.6976-24.921 2.6346zm11.777-1.4001c4.562-0.36732 10.723-1.5665 10.723-2.0871 0-0.15287-0.77547-0.38081-1.7233-0.50653-3.4454-0.45706-7.4367-1.7316-15.563-4.9695-8.617-3.4336-12.265-4.5372-16.342-4.9446-2.0553-0.20532-2.5122-0.14578-3.1229 0.40691-4.2152 3.8147-0.29337 8.4795 9.1465 10.879 5.8424 1.4853 9.9304 1.7811 16.882 1.2214zm16.276-4.7898c3.6586-2.7906 3.2977-5.8182-1.0266-8.6131-7.1403-4.615-23.617-5.703-34.465-2.276-1.5627 0.49367-2.9314 1.0434-3.0416 1.2216-0.11015 0.17823 0.39945 0.42403 1.1324 0.54624 3.5979 0.59983 7.5032 1.8608 14.819 4.7845 6.9601 2.7817 12.152 4.487 15.265 5.0141 0.48507 0.0821 2.0576 0.17094 3.4945 0.19736 2.3144 0.0426 2.7506-0.0572 3.8224-0.87476zm110.85 4.0096c-0.70558-1.4914-1.0432-2.7544-1.0434-3.9034-3.1e-4 -1.9258 1.2458-5.1807 1.9834-5.1807 0.62756 0 0.61468 0.66354-0.0434 2.2386-0.94463 2.2608-0.74883 2.379 1.8521 1.1178 5.4498-2.6426 10.775-3.3859 25.877-3.6119 11.842-0.17725 13.802-0.0247 13.154 1.0237-0.16285 0.2635-2.1948 0.30615-6.6245 0.13905-11.133-0.41996-23.355 0.62328-29.039 2.4786-3.3633 1.0979-4.5526 1.8464-3.9183 2.466 0.85956 0.83949 4.2465 1.9346 8.3614 2.7035 3.7493 0.70059 5.2647 0.76641 17.942 0.77922 10.557 0.0107 13.847 0.11498 13.847 0.43899-7e-5 0.77198-2.5259 0.94969-13.758 0.96801-14.881 0.0243-21.236-0.77789-26.194-3.306-2.2758-1.1606-2.4484-0.9531-1.128 1.3568 0.8665 1.5159 0.92697 2.4965 0.15395 2.4965-0.20835 0-0.84821-0.99219-1.4219-2.2049zm189.81 1.4585c-6.1651-1.5584-18.107-3.0999-31.044-4.0072-9.195-0.64486-9.1722-0.6446-9.1722-0.10389 0 0.23878 0.34589 1.2687 0.76866 2.2887 0.78074 1.8836 0.72881 2.46-0.18986 2.1075-0.67293-0.25823-1.9899-3.8216-1.9899-5.3841 0-1.7152 0.86699-3.6137 1.8337-4.0155 2.1583-0.89704 33.766-1.4574 39.766-0.70498 3.2876 0.41224 5.069 1.1371 4.9004 1.9941-0.34904 1.7734-4.7047 2.8535-12.634 3.1328-8.7839 0.30941-9.1269 0.48218-2.8222 1.4216 6.0684 0.90415 13.769 2.5032 14.239 2.957 0.38107 0.36749-0.0268 1.0738-0.58981 1.0218-0.2311-0.0213-1.6108-0.33975-3.066-0.70761zm-2.293-6.3196c1.7462-0.22683 3.7306-0.6536 4.4097-0.94837l1.2347-0.53595-1.0583-0.31504c-2.6894-0.80058-12.475-1.0586-24.8-0.65396-6.8492 0.22487-13.517 0.51403-14.817 0.64257-2.0984 0.2075-2.3761 0.32274-2.4763 1.0275-0.0964 0.67915 0.0564 0.80049 1.0583 0.84044 0.6441 0.0257 3.6317 0.16701 6.6391 0.31407 7.4534 0.36446 25.916 0.13454 29.81-0.37123zm31.675 6.1209c-0.15268-0.54736-0.2776-2.7812-0.2776-4.9641v-3.9689l-2.9986 1e-3c-2.9253 1e-3 -10.486 0.47354-14.552 0.90946-1.8514 0.19849-2.0285 0.15732-2.0285-0.47171 0-0.59341 0.33091-0.72048 2.3812-0.9144 10.878-1.0289 25.233-1.1214 34.85-0.22448 5.5413 0.51682 6.1608 0.64666 6.1608 1.2912 0 0.48162-0.37733 0.52682-2.734 0.32753-7.8353-0.66262-11.928-0.90299-15.498-0.91023-3.7821-8e-3 -3.9557 0.0248-4.2055 0.78574-0.22825 0.69553-0.24102 3.8787-0.0307 7.6393 0.0837 1.4959-0.6876 1.8573-1.0663 0.49961zm-268.57-0.10144c0-1.1725 1.2505-3.3255 2.6403-4.5458 4.2701-3.7492 14.144-6.0593 23.818-5.5725 9.5202 0.47906 16.735 3.0469 18.855 6.7105 1.0847 1.8745 1.2735 3.1629 0.4864 3.3197-0.39293 0.0782-0.62869-0.1546-0.70555-0.69686-0.13828-0.97552 0.0471-0.97778-6.6418 0.0807-7.34 1.1615-21.619 1.1867-29.633 0.0524-3.0074-0.42566-5.8165-0.86889-6.2424-0.98495-0.65115-0.17746-0.82304-0.023-1.0806 0.97102-0.35141 1.3561-1.4965 1.8656-1.4965 0.66578zm37.924-1.9208c6.7632-1.0844 6.6356-0.99467 4.1362-2.9065-2.9071-2.2236-8.743-3.649-16.015-3.9113-7.8692-0.2839-15.024 0.89198-19.631 3.226-1.9592 0.99282-3.5001 2.1804-3.2088 2.4732 0.31487 0.31634 3.7345 0.89421 8.5305 1.4415 5.7801 0.6596 21.249 0.46886 26.187-0.32291zm73.907 2.2462c-7.9204-0.6314-13.553-1.9147-16.316-3.7174-0.7276-0.47469-1.3229-1.0967-1.3229-1.3822 0-0.28554 0.59531-0.90962 1.3229-1.3868 2.8436-1.8652 9.3762-3.3693 17.727-4.0818 4.4036-0.37572 23.668-0.47592 24.959-0.12982 0.43657 0.11699 0.79375 0.45409 0.79375 0.74911 0 0.47016-0.86048 0.50624-6.9674 0.29218-7.7065-0.27013-19.105 0.20951-24.591 1.0348-3.9364 0.59218-8.9177 1.8506-9.2123 2.3273-0.11181 0.18092 8.1682 0.31314 19.609 0.31314 18.669 0 19.795 0.0353 19.683 0.61736-0.11104 0.57697-1.4457 0.6289-20.399 0.79375-19.558 0.17011-20.228 0.19786-18.809 0.77936 0.80876 0.33164 2.4756 0.83245 3.7042 1.1129 5.4698 1.2487 8.8308 1.4591 23.312 1.4591 10.477 0 14.376 0.10845 14.376 0.39985 0 0.21992-0.43656 0.4953-0.97014 0.61196-1.7306 0.37837-22.724 0.54014-26.899 0.20728zm194.2-0.37025c-7.2404-0.3694-7.9375-0.47754-7.9375-1.2312 0-0.481 0.65543-0.51142 5.5562-0.25787 9.1866 0.47528 29.536 0.3607 32.215-0.1814 2.4612-0.49796 3.4591-0.92778 3.0663-1.3206-0.68996-0.68995-4.8209-0.92266-20.906-1.1777-18.832-0.29859-20.344-0.44535-20.565-1.9962-0.12227-0.85484 0.63497-1.2674 3.8861-2.1174 4.5082-1.1786 8.0559-1.5757 15.974-1.788 7.3303-0.19655 14.785 0.0917 20.871 0.80708 1.5461 0.18171 1.8829 0.34268 1.8829 0.8999 0 0.59558-0.18341 0.65332-1.4993 0.47196-10.813-1.4903-29.004-1.1356-36.336 0.70862-5.0932 1.281-3.0441 1.4864 17.198 1.7241 15.076 0.17704 19.01 0.45949 20.571 1.4771 1.7262 1.1253 0.13191 2.6659-3.6376 3.5151-3.0503 0.68716-20.696 0.9585-30.339 0.46653zm-159.78-1.3399c-0.43486-0.70361 0.8577-5.471 1.9986-7.3712 2.662-4.4341 8.1526-8.073 14.558-9.6486 4.0397-0.99363 10.425-1.0723 14.101-0.17378 7.7794 1.9016 13.804 7.5884 15.351 14.489 0.2444 1.0907 0.26253 1.8441 0.0495 2.0572-0.55051 0.55051-1.0267-0.0104-1.2796-1.5074-0.13078-0.77408-0.38069-1.4957-0.55535-1.6037-0.17462-0.10794-1.788 0.27189-3.5852 0.84406-5.1865 1.6512-9.265 2.239-16.857 2.4297-8.0707 0.20272-13.194-0.38262-17.984-2.0546-4.2041-1.4675-4-1.5004-4.4241 0.71268-0.35162 1.8345-0.90957 2.5767-1.3731 1.8266zm27.317-1.8074c7.1692-0.62219 15.679-2.6015 16.12-3.7492 0.27887-0.72672-1.8473-3.7886-3.9919-5.7486-5.8162-5.3157-15.853-6.766-25.275-3.6521-4.6288 1.5298-9.3913 5.0711-10.998 8.1777-0.30201 0.58405-0.54912 1.2171-0.54912 1.4068 0 0.4591 3.376 1.7008 6.8756 2.5288 5.2026 1.231 11.415 1.5923 17.819 1.0365zm-53.446-52.923c-49.718-3.9153-96.956-23.449-134.23-55.507-4.9839-4.2863-15.987-15.328-20.257-20.328-18.648-21.837-30.695-46.163-34.767-70.203-2.1332-12.594-2.0012-25.66 0.38456-38.046 3.7521-19.48 14.693-38.615 30.121-52.682 12.66-11.543 28.729-20.719 46.554-26.587 23.981-7.8941 51.026-10.354 79.034-7.19 46.673 5.2734 92.219 25.346 126.75 55.86 5.2761 4.6628 15.988 15.566 19.786 20.138 20.771 25.009 32.507 51.008 34.993 77.52 0.54313 5.7914 0.24549 19.632-0.52406 24.37-2.8742 17.695-9.0711 32.004-19.964 46.1-3.1471 4.0722-12.485 13.453-16.513 16.587-21.446 16.692-45.974 26.072-77.143 29.503-5.7767 0.6359-28.181 0.94-34.219 0.46447zm32.456-19.864c0.58208-0.088 2.0902-0.26016 3.3514-0.38258 18.523-1.7979 37.897-7.6577 52.562-15.898 25.977-14.596 42.157-36.588 46.983-63.856 1.0141-5.7309 1.2731-18.861 0.49742-25.224-1.65-13.535-5.2753-25.254-11.841-38.276-7.2355-14.351-15.661-25.946-28.039-38.586-33.31-34.015-81.55-56.168-130.72-60.027-6.0731-0.47674-21.781-0.47477-27.517 0.0035-24.913 2.0773-46.797 9.1746-64.378 20.879-6.3524 4.229-9.8093 7.0713-15.359 12.628-13.322 13.339-21.421 29.179-24.407 47.74-0.67883 4.2188-0.80554 6.3329-0.79748 13.306 0.01369 11.845 1.1544 19.168 4.8082 30.868 12.773 40.898 50.846 79.335 99.075 100.02 22.855 9.8019 44.125 15.034 69.321 17.053 2.2419 0.17963 25.045-0.0328 26.458-0.24645zm-13.935-48.113c-28.301-0.7429-57.181-10.504-80.874-27.333-22.615-16.064-38.685-37.554-44.32-59.268-4.1453-15.974-2.5708-31.992 4.4316-45.083 15.24-28.492 53.321-42.248 96.597-34.894 29.37 4.9909 58.035 19.663 78.493 40.177 22.444 22.505 32.779 49.998 27.864 74.118-5.1691 25.365-26.79 44.273-57.438 50.229-7.2161 1.4024-9.0838 1.5926-20.345 2.0722-0.77611 0.0331-2.7605 0.0247-4.4097-0.0186zm8.9958-35.572c3.9767-0.3325 9.5624-1.5183 14.118-2.9972 12.353-4.0099 21.537-11.521 26.451-21.632 2.9974-6.1677 3.5105-8.5974 3.5109-16.625 2.8e-4 -5.8442-0.10566-7.1321-0.82695-10.054-4.04-16.367-16.328-32.008-33.987-43.262-4.3786-2.7905-13.628-7.3812-18.378-9.1216-19.297-7.0705-38.534-8.0071-54.605-2.6585-15.494 5.1566-25.895 15.684-29.111 29.466-0.51862 2.2222-0.65525 4.1724-0.64257 9.1722 0.0145 5.731 0.1085 6.7015 0.96403 9.956 5.4443 20.71 22.896 39.218 46.998 49.842 14.976 6.6012 29.989 9.2123 45.508 7.9146zm-16.404-20.826c-24.56-2.5072-47.28-20.304-51.182-40.09-0.60585-3.0721-0.43669-8.9218 0.34593-11.962 2.7542-10.7 12.146-18.229 25.687-20.59 4.4459-0.77531 12.812-0.69231 17.817 0.17677 22.518 3.9102 42.24 19.648 46.865 37.397 5.6342 21.626-12.617 37.816-39.532 35.068zm-0.3201-35.262c3.4627-1.7906 0.44027-6.8623-4.0896-6.8623-3.6251 0-4.7953 2.617-2.3738 5.3092 0.9759 1.085 3.1165 2.0554 4.5962 2.0837 0.4462 8e-3 1.2865-0.23025 1.8672-0.53058z" fill="#6f8aa9" />
         <path d="m29.054 360.39c-4.3256-0.42628-7.3894-1.0066-10.135-1.9194-4.6358-1.5415-7.0504-3.3274-8.1911-6.0583-0.71035-1.7005-0.69065-2.0398 0.11841-2.0398 0.47831 0 0.72971 0.33806 0.89108 1.1982 0.23882 1.273 2.449 3.6028 4.3113 4.5447 8.2732 4.1842 25.861 4.0172 34.448-0.32704 2.1803-1.103 4.3776-3.3119 4.7591-4.7843 0.17924-0.69172 0.56126-1.2098 0.9468-1.2841 0.55758-0.10738 0.61401 0.0371 0.41102 1.052-0.82802 4.1401-6.3201 7.4529-14.8 8.9273-3.0405 0.52863-10.376 0.92574-12.76 0.69078zm-58.032-0.70721c-15.092-1.8783-22.584-8.254-16.92-14.399 7.5911-8.2354 35.815-8.6343 45.156-0.63824 1.7726 1.5173 2.4555 2.8172 2.4555 4.6744 0 1.7491-0.38693 2.564-2.0702 4.36-0.70918 0.75668-1.1057 1.4321-0.88811 1.5128 1.1795 0.43725 3.6638 2.2925 3.6638 2.7361 0 0.9396-0.68611 0.96128-1.869 0.059-0.64218-0.48981-1.7696-1.1421-2.5053-1.4495-1.2976-0.54217-1.4137-0.52731-3.8703 0.49538-4.1013 1.7074-9.0245 2.5365-15.906 2.6787-3.3066 0.0683-6.5677 0.0551-7.2468-0.0294zm11.289-1.5636c2.2313-0.20064 5.3195-0.67686 6.8627-1.0583 2.9339-0.72516 4.1909-1.3919 2.6447-1.4029-2.959-0.0209-8.1236-1.6072-17.798-5.4664-8.1167-3.2379-11.356-4.2026-15.379-4.5796l-2.6539-0.24869-1.1257 1.2821c-3.3976 3.8696 0.8666 8.2002 10.274 10.434 5.7722 1.3705 10.39 1.6501 17.176 1.0399zm16.05-5.3137c6.5478-6.0355-4.743-12.434-21.871-12.394-6.4709 0.0151-10.863 0.74198-16.044 2.6551-1.5915 0.58771-1.8093 0.76172-1.2347 0.98621 0.38373 0.14992 1.1165 0.28373 1.6284 0.29737 1.7391 0.0463 7.1639 1.8135 14.062 4.5808 10.794 4.3301 14.041 5.2269 19.146 5.2886 2.7375 0.0331 2.7444 0.0308 4.3124-1.4145zm110.22 4.4453c-0.99109-2.0132-1.1066-2.5422-0.94319-4.3215 0.18504-2.0155 1.1814-4.6733 1.752-4.6733 0.6031 0 0.66524 1.0236 0.12551 2.0673-0.30508 0.58996-0.55469 1.3956-0.55469 1.7904 0 0.68765 0.085 0.67532 2.0285-0.29424 5.6858-2.8365 13.482-3.913 28.355-3.915 8.984-1e-3 10.892 0.14819 10.892 0.85308 0 0.30686-2.7488 0.41264-10.672 0.41067-13.518-4e-3 -20.704 0.7988-26.426 2.9501-3.6017 1.354-3.344 2.19 1.0996 3.5677 5.4177 1.6797 8.1625 1.9096 22.857 1.9142 10.019 3e-3 13.847 0.11413 13.847 0.4013-8e-5 0.63102-1.5126 0.78701-10.098 1.0414-14.618 0.43314-25.592-0.87058-30.384-3.6096-0.82462-0.47136-1.4993-0.68631-1.4993-0.47765 0 0.20865 0.40256 1.1738 0.89459 2.1448 0.83789 1.6535 0.89129 2.4445 0.16503 2.4445-0.17042 0-0.81806-1.0323-1.4392-2.294zm191.67 1.9325c-1.3337-0.54284-9.8049-2.0562-15.605-2.7879-5.5786-0.70371-15.364-1.568-22.49-1.9863-4.5182-0.26527-4.41-0.35212-3.2001 2.567 0.42277 1.02 0.65649 1.9668 0.5194 2.1039-0.67286 0.67283-2.6992-3.124-2.6992-5.0576 0-1.5579 0.80021-3.6962 1.5658-4.1841 1.9359-1.2337 38.25-1.6014 42.469-0.43 2.2867 0.63502 2.8399 1.0995 2.3153 1.9442-1.0392 1.6733-5.2072 2.5038-13.982 2.786-3.832 0.12326-6.9674 0.33367-6.9674 0.46758 0 0.13392 1.6272 0.43841 3.616 0.67665 3.9479 0.47293 11.754 1.8726 14.552 2.6092 1.0712 0.28201 1.7639 0.6612 1.7639 0.96564 0 0.61806-0.79626 0.7577-1.8575 0.32576zm-4.0257-6.6691c2.927-0.41327 5.3541-1.0709 5.3541-1.4507 0-0.46666-1.531-0.6924-7.4083-1.0923-4.3864-0.29847-8.9993-0.29031-18.719 0.0332-15.577 0.51835-16.552 0.61565-16.949 1.6912-0.25665 0.69548-0.17421 0.79939 0.66586 0.8393 0.52734 0.025 3.34 0.16626 6.2504 0.31381 6.9589 0.3528 27.519 0.12954 30.806-0.33451zm31.78 6.4624c-0.36781-0.4431-0.49657-1.7277-0.49657-4.9537v-4.3554l-3.3514 7e-4c-3.3571 7.1e-4 -11.377 0.50324-14.585 0.91391-1.5351 0.1965-1.696 0.15214-1.5832-0.43628 0.15561-0.81166 1.4758-0.98306 11.935-1.5495 7.6311-0.41326 17.631-0.26024 24.694 0.37787 5.8867 0.5318 6.7028 0.68324 6.7028 1.2438 0 0.61533 0.50098 0.61666-7.232-0.0192-3.4925-0.28717-8.284-0.52426-10.648-0.52687-4.7952-5e-3 -4.4595-0.19915-4.8782 2.8175-0.12121 0.87312-0.0439 2.6838 0.17184 4.0238 0.41335 2.5677 0.1354 3.5059-0.72986 2.4635zm-268.65-0.30639c-0.30986-0.80748 1.1853-3.5545 2.6205-4.8146 7.0354-6.1772 28.555-7.4034 38.616-2.2005 1.431 0.74002 3.744 2.9 4.3404 4.0535 0.67247 1.3004 0.66032 2.7781-0.0228 2.7781-0.29105 0-0.52917-0.30813-0.52917-0.68474 0-0.3766-0.14346-0.7734-0.3188-0.88176-0.17533-0.10836-2.1994 0.12465-4.4979 0.51781-6.8297 1.1682-15.597 1.5907-23.112 1.1138-5.6466-0.35838-11.422-1.0259-14.459-1.6712-0.82664-0.17563-0.98441-0.0522-1.3503 1.0564-0.43511 1.3184-0.95041 1.6119-1.2875 0.73331zm38.146-2.0866c4.8619-0.77539 5.4681-0.92301 5.4681-1.3317 0-1.1433-4.5518-3.4709-8.9161-4.5594-3.69-0.9203-13.153-1.3018-17.597-0.70944-5.7921 0.7721-10.896 2.5218-13.352 4.5769-1.4356 1.2016-1.2574 1.2546 7.9386 2.3609 5.3214 0.64021 21.633 0.43231 26.458-0.33722zm74.083 2.2413c-10.316-0.78428-18.482-3.1426-18.099-5.2264 0.15066-0.81769 4.1742-2.7385 7.5039-3.5823 5.4329-1.3768 10.175-1.811 21.945-2.0096 12.23-0.20629 15.285-0.0398 15.285 0.83321 0 0.46653-0.93613 0.50268-7.4965 0.28951-8.7348-0.28381-19.284 0.24482-25.303 1.268-3.7004 0.62905-7.0383 1.4905-7.9467 2.0508-0.19403 0.11969 8.5372 0.29699 19.403 0.394 17.247 0.15399 19.756 0.24359 19.756 0.70556 0 0.46219-2.5674 0.55149-20.285 0.70555-21.766 0.18927-21.782 0.19107-15.699 1.7558 5.33 1.371 8.6702 1.5956 23.724 1.5956 10.499 0 14.552 0.10996 14.552 0.39482-2e-5 0.21714-0.59535 0.49484-1.323 0.61709-2.3121 0.38849-21.615 0.54308-26.017 0.20837zm194.56-0.38356c-7.746-0.34678-8.8194-0.49834-8.8194-1.2453 0-0.47038 0.38209-0.52198 2.5576-0.34539 5.9314 0.48146 29.744 0.66795 32.897 0.25763 3.7787-0.4918 5.5542-1.0091 5.3692-1.5642-0.26656-0.79963-3.1414-0.97686-20.539-1.2662-18.971-0.31549-20.697-0.4842-20.924-2.045-0.0959-0.66132 0.24018-0.86796 2.6458-1.627 5.4449-1.718 9.6127-2.1568 20.571-2.1655 6.0878-5e-3 11.898 0.18331 14.728 0.47696 4.2376 0.43966 4.6743 0.54939 4.6743 1.1746 0 0.56328-0.1777 0.65469-0.97014 0.49907-2.6596-0.52232-11.323-1.0052-18.256-1.0177-8.2012-0.0147-12.844 0.38901-17.903 1.5568-6.301 1.4544-4.0275 1.7228 17.374 2.0514 17.815 0.27351 19.342 0.4127 20.235 1.8449 0.55209 0.88472-0.59274 1.9606-2.7469 2.5814-4.0875 1.178-16.014 1.4998-30.894 0.83363zm-160.62-1.2591c-0.35962-0.59333 0.52469-4.5172 1.4387-6.3838 4.5229-9.2369 19.686-14.14 31.435-10.165 7.0769 2.3943 11.775 7.5635 13.261 14.59 0.20595 0.97417 0.14231 1.1465-0.42344 1.1465-0.49601 0-0.75057-0.38239-0.99815-1.4993-0.39892-1.7996-0.65948-1.8246-5.0129-0.47964-5.7266 1.7692-8.7611 2.1346-17.721 2.1341-7.2998-3.6e-4 -8.7279-0.0959-11.953-0.79964-2.0147-0.43955-4.6248-1.19-5.8004-1.6677-1.1756-0.47767-2.2561-0.74817-2.4012-0.6011-0.14514 0.14707-0.39401 1.0484-0.55306 2.003-0.2668 1.6013-0.85864 2.4033-1.2712 1.7226zm27.976-1.8976c2.2313-0.20748 5.2476-0.60306 6.7028-0.87908 3.6385-0.69012 8.4902-2.2727 8.7081-2.8406 0.45032-1.1735-3.2259-5.5499-6.3874-7.6039-8.4233-5.4725-22.939-4.274-30.64 2.5299-1.8219 1.6094-3.783 4.2265-3.783 5.0483 0 1.1665 6.8818 3.144 12.997 3.7346 4.4746 0.43218 7.8395 0.43509 12.403 0.0107zm-53.622-52.899c-62.789-4.7232-122.51-35.162-159.36-81.22-16.576-20.719-27.226-44.011-30.848-67.467-0.90343-5.8503-1.2867-20.37-0.6724-25.472 1.7907-14.872 5.5732-26.832 12.06-38.136 31.352-54.633 111.93-74.586 192.58-47.685 27.738 9.2529 54.048 23.938 75.847 42.334 6.064 5.1173 16.216 15.095 21.239 20.874 17.244 19.84 28.781 41.16 34.133 63.08 3.826 15.668 4.2601 31.902 1.2505 46.766-6.0317 29.79-26.482 55.266-56.593 70.502-16.819 8.5105-34.871 13.647-55.945 15.919-6.164 0.66454-27.346 0.9818-33.69 0.5046zm32.985-19.928c32.016-2.9733 58.882-14.451 77.609-33.156 14.074-14.058 22.304-30.885 24.932-50.976 0.71974-5.5036 0.52656-17.604-0.37737-23.636-4.9152-32.803-24.67-64.296-56.08-89.405-19.297-15.425-40.416-26.823-64.781-34.961-16.192-5.4086-30.498-8.4007-48.331-10.109-6.7948-0.65092-24.804-0.54059-31.75 0.1945-44.592 4.7195-77.939 24.867-93.505 56.493-13.982 28.408-10.953 63.271 8.3039 95.583 10.648 17.866 26.06 34.682 44.632 48.698 32.48 24.512 73.636 39.604 113.95 41.784 6.936 0.3752 18.342 0.14675 25.4-0.50876zm-24.694-48.707c-17.512-1.7597-35.471-7.0176-51.638-15.119-36.9-18.491-61.956-49.443-65.696-81.158-0.57533-4.8783-0.22758-13.825 0.72408-18.629 4.2118-21.261 19.462-37.994 42.477-46.611 18.527-6.9357 41.53-8.1302 64.627-3.356 22.699 4.6917 44.03 14.735 62.775 29.558 5.439 4.3009 16.05 14.957 20.037 20.122 13.153 17.04 19.667 34.129 19.644 51.535-0.0215 15.86-5.5143 29.377-16.541 40.705-11.807 12.129-27.259 19.363-48.011 22.475-6.5824 0.98722-20.927 1.2285-28.399 0.47773zm23.283-35.403c12.144-2.1703 21.778-6.7848 28.754-13.773 8.3618-8.3762 12.229-19.354 10.962-31.115-3.2262-29.939-35.05-57.565-73.293-63.625-4.7991-0.76048-16.007-1.0693-20.402-0.56208-17.105 1.9743-29.914 8.6327-37.761 19.628-4.6107 6.4613-7.3198 16.231-6.6961 24.149 1.2492 15.858 10.23 31.348 25.512 44.004 13.72 11.362 32.954 19.642 50.168 21.597 1.8433 0.20928 3.8276 0.4394 4.4097 0.51138 3.1904 0.39453 14.354-0.10081 18.344-0.81398zm-20.99-20.374c-3.3296-0.3506-9.3609-1.7055-13.194-2.964-10.298-3.3813-18.937-8.751-26.167-16.264-21.203-22.035-13.543-49.102 15.101-53.355 23.029-3.4194 50.467 10.146 60.671 29.994 4.7344 9.2099 5.3028 18.018 1.6673 25.834-4.1429 8.9069-12.787 14.599-25.025 16.48-3.0274 0.46513-9.8809 0.61013-13.053 0.27614zm-0.3201-35.228c3.4627-1.7906 0.44027-6.8623-4.0896-6.8623-3.6251 0-4.7953 2.617-2.3738 5.3092 0.9759 1.085 3.1165 2.0554 4.5962 2.0837 0.4462 8e-3 1.2865-0.23025 1.8672-0.53058z" fill="#3772b5" />
         <path d="m29.054 360.39c-4.3256-0.42628-7.3894-1.0066-10.135-1.9194-4.6358-1.5415-7.0504-3.3274-8.1911-6.0583-0.71035-1.7005-0.69065-2.0398 0.11841-2.0398 0.47831 0 0.72971 0.33806 0.89108 1.1982 0.23882 1.273 2.449 3.6028 4.3113 4.5447 8.2732 4.1842 25.861 4.0172 34.448-0.32704 2.1803-1.103 4.3776-3.3119 4.7591-4.7843 0.17924-0.69172 0.56126-1.2098 0.9468-1.2841 0.55758-0.10738 0.61401 0.0371 0.41102 1.052-0.82802 4.1401-6.3201 7.4529-14.8 8.9273-3.0405 0.52863-10.376 0.92574-12.76 0.69078zm-58.032-0.70721c-15.092-1.8783-22.584-8.254-16.92-14.399 7.5911-8.2354 35.815-8.6343 45.156-0.63824 1.7726 1.5173 2.4555 2.8172 2.4555 4.6744 0 1.7491-0.38693 2.564-2.0702 4.36-0.70918 0.75668-1.1057 1.4321-0.88811 1.5128 1.1795 0.43725 3.6638 2.2925 3.6638 2.7361 0 0.9396-0.68611 0.96128-1.869 0.059-0.64218-0.48981-1.7696-1.1421-2.5053-1.4495-1.2976-0.54217-1.4137-0.52731-3.8703 0.49538-4.1013 1.7074-9.0245 2.5365-15.906 2.6787-3.3066 0.0683-6.5677 0.0551-7.2468-0.0294zm11.289-1.5636c2.2313-0.20064 5.3195-0.67686 6.8627-1.0583 2.9339-0.72516 4.1909-1.3919 2.6447-1.4029-2.959-0.0209-8.1236-1.6072-17.798-5.4664-8.1167-3.2379-11.356-4.2026-15.379-4.5796l-2.6539-0.24869-1.1257 1.2821c-3.3976 3.8696 0.8666 8.2002 10.274 10.434 5.7722 1.3705 10.39 1.6501 17.176 1.0399zm16.05-5.3137c6.5478-6.0355-4.743-12.434-21.871-12.394-6.4709 0.0151-10.863 0.74198-16.044 2.6551-1.5915 0.58771-1.8093 0.76172-1.2347 0.98621 0.38373 0.14992 1.1165 0.28373 1.6284 0.29737 1.7391 0.0463 7.1639 1.8135 14.062 4.5808 10.794 4.3301 14.041 5.2269 19.146 5.2886 2.7375 0.0331 2.7444 0.0308 4.3124-1.4145zm110.22 4.4453c-0.99109-2.0132-1.1066-2.5422-0.94319-4.3215 0.18504-2.0155 1.1814-4.6733 1.752-4.6733 0.6031 0 0.66524 1.0236 0.12551 2.0673-0.30508 0.58996-0.55469 1.3956-0.55469 1.7904 0 0.68765 0.085 0.67532 2.0285-0.29424 5.6858-2.8365 13.482-3.913 28.355-3.915 8.984-1e-3 10.892 0.14819 10.892 0.85308 0 0.30686-2.7488 0.41264-10.672 0.41067-13.518-4e-3 -20.704 0.7988-26.426 2.9501-3.6017 1.354-3.344 2.19 1.0996 3.5677 5.4177 1.6797 8.1625 1.9096 22.857 1.9142 10.019 3e-3 13.847 0.11413 13.847 0.4013-8e-5 0.63102-1.5126 0.78701-10.098 1.0414-14.618 0.43314-25.592-0.87058-30.384-3.6096-0.82462-0.47136-1.4993-0.68631-1.4993-0.47765 0 0.20865 0.40256 1.1738 0.89459 2.1448 0.83789 1.6535 0.89129 2.4445 0.16503 2.4445-0.17042 0-0.81806-1.0323-1.4392-2.294zm191.67 1.9325c-1.3337-0.54284-9.8049-2.0562-15.605-2.7879-5.5786-0.70371-15.364-1.568-22.49-1.9863-4.5182-0.26527-4.41-0.35212-3.2001 2.567 0.42277 1.02 0.65649 1.9668 0.5194 2.1039-0.67286 0.67283-2.6992-3.124-2.6992-5.0576 0-1.5579 0.80021-3.6962 1.5658-4.1841 1.9359-1.2337 38.25-1.6014 42.469-0.43 2.2867 0.63502 2.8399 1.0995 2.3153 1.9442-1.0392 1.6733-5.2072 2.5038-13.982 2.786-3.832 0.12326-6.9674 0.33367-6.9674 0.46758 0 0.13392 1.6272 0.43841 3.616 0.67665 3.9479 0.47293 11.754 1.8726 14.552 2.6092 1.0712 0.28201 1.7639 0.6612 1.7639 0.96564 0 0.61806-0.79626 0.7577-1.8575 0.32576zm-4.0257-6.6691c2.927-0.41327 5.3541-1.0709 5.3541-1.4507 0-0.46666-1.531-0.6924-7.4083-1.0923-4.3864-0.29847-8.9993-0.29031-18.719 0.0332-15.577 0.51835-16.552 0.61565-16.949 1.6912-0.25665 0.69548-0.17421 0.79939 0.66586 0.8393 0.52734 0.025 3.34 0.16626 6.2504 0.31381 6.9589 0.3528 27.519 0.12954 30.806-0.33451zm31.78 6.4624c-0.36781-0.4431-0.49657-1.7277-0.49657-4.9537v-4.3554l-3.3514 7e-4c-3.3571 7.1e-4 -11.377 0.50324-14.585 0.91391-1.5351 0.1965-1.696 0.15214-1.5832-0.43628 0.15561-0.81166 1.4758-0.98306 11.935-1.5495 7.6311-0.41326 17.631-0.26024 24.694 0.37787 5.8867 0.5318 6.7028 0.68324 6.7028 1.2438 0 0.61533 0.50098 0.61666-7.232-0.0192-3.4925-0.28717-8.284-0.52426-10.648-0.52687-4.7952-5e-3 -4.4595-0.19915-4.8782 2.8175-0.12121 0.87312-0.0439 2.6838 0.17184 4.0238 0.41335 2.5677 0.1354 3.5059-0.72986 2.4635zm-268.65-0.30639c-0.30986-0.80748 1.1853-3.5545 2.6205-4.8146 7.0354-6.1772 28.555-7.4034 38.616-2.2005 1.431 0.74002 3.744 2.9 4.3404 4.0535 0.67247 1.3004 0.66032 2.7781-0.0228 2.7781-0.29105 0-0.52917-0.30813-0.52917-0.68474 0-0.3766-0.14346-0.7734-0.3188-0.88176-0.17533-0.10836-2.1994 0.12465-4.4979 0.51781-6.8297 1.1682-15.597 1.5907-23.112 1.1138-5.6466-0.35838-11.422-1.0259-14.459-1.6712-0.82664-0.17563-0.98441-0.0522-1.3503 1.0564-0.43511 1.3184-0.95041 1.6119-1.2875 0.73331zm38.146-2.0866c4.8619-0.77539 5.4681-0.92301 5.4681-1.3317 0-1.1433-4.5518-3.4709-8.9161-4.5594-3.69-0.9203-13.153-1.3018-17.597-0.70944-5.7921 0.7721-10.896 2.5218-13.352 4.5769-1.4356 1.2016-1.2574 1.2546 7.9386 2.3609 5.3214 0.64021 21.633 0.43231 26.458-0.33722zm74.083 2.2413c-10.316-0.78428-18.482-3.1426-18.099-5.2264 0.15066-0.81769 4.1742-2.7385 7.5039-3.5823 5.4329-1.3768 10.175-1.811 21.945-2.0096 12.23-0.20629 15.285-0.0398 15.285 0.83321 0 0.46653-0.93613 0.50268-7.4965 0.28951-8.7348-0.28381-19.284 0.24482-25.303 1.268-3.7004 0.62905-7.0383 1.4905-7.9467 2.0508-0.19403 0.11969 8.5372 0.29699 19.403 0.394 17.247 0.15399 19.756 0.24359 19.756 0.70556 0 0.46219-2.5674 0.55149-20.285 0.70555-21.766 0.18927-21.782 0.19107-15.699 1.7558 5.33 1.371 8.6702 1.5956 23.724 1.5956 10.499 0 14.552 0.10996 14.552 0.39482-2e-5 0.21714-0.59535 0.49484-1.323 0.61709-2.3121 0.38849-21.615 0.54308-26.017 0.20837zm194.56-0.38356c-7.746-0.34678-8.8194-0.49834-8.8194-1.2453 0-0.47038 0.38209-0.52198 2.5576-0.34539 5.9314 0.48146 29.744 0.66795 32.897 0.25763 3.7787-0.4918 5.5542-1.0091 5.3692-1.5642-0.26656-0.79963-3.1414-0.97686-20.539-1.2662-18.971-0.31549-20.697-0.4842-20.924-2.045-0.0959-0.66132 0.24018-0.86796 2.6458-1.627 5.4449-1.718 9.6127-2.1568 20.571-2.1655 6.0878-5e-3 11.898 0.18331 14.728 0.47696 4.2376 0.43966 4.6743 0.54939 4.6743 1.1746 0 0.56328-0.1777 0.65469-0.97014 0.49907-2.6596-0.52232-11.323-1.0052-18.256-1.0177-8.2012-0.0147-12.844 0.38901-17.903 1.5568-6.301 1.4544-4.0275 1.7228 17.374 2.0514 17.815 0.27351 19.342 0.4127 20.235 1.8449 0.55209 0.88472-0.59274 1.9606-2.7469 2.5814-4.0875 1.178-16.014 1.4998-30.894 0.83363zm-160.62-1.2591c-0.35962-0.59333 0.52469-4.5172 1.4387-6.3838 4.5229-9.2369 19.686-14.14 31.435-10.165 7.0769 2.3943 11.775 7.5635 13.261 14.59 0.20595 0.97417 0.14231 1.1465-0.42344 1.1465-0.49601 0-0.75057-0.38239-0.99815-1.4993-0.39892-1.7996-0.65948-1.8246-5.0129-0.47964-5.7266 1.7692-8.7611 2.1346-17.721 2.1341-7.2998-3.6e-4 -8.7279-0.0959-11.953-0.79964-2.0147-0.43955-4.6248-1.19-5.8004-1.6677-1.1756-0.47767-2.2561-0.74817-2.4012-0.6011-0.14514 0.14707-0.39401 1.0484-0.55306 2.003-0.2668 1.6013-0.85864 2.4033-1.2712 1.7226zm27.976-1.8976c2.2313-0.20748 5.2476-0.60306 6.7028-0.87908 3.6385-0.69012 8.4902-2.2727 8.7081-2.8406 0.45032-1.1735-3.2259-5.5499-6.3874-7.6039-8.4233-5.4725-22.939-4.274-30.64 2.5299-1.8219 1.6094-3.783 4.2265-3.783 5.0483 0 1.1665 6.8818 3.144 12.997 3.7346 4.4746 0.43218 7.8395 0.43509 12.403 0.0107zm-53.622-52.899c-62.789-4.7232-122.51-35.162-159.36-81.22-16.576-20.719-27.226-44.011-30.848-67.467-0.90343-5.8503-1.2867-20.37-0.6724-25.472 1.7907-14.872 5.5732-26.832 12.06-38.136 31.352-54.633 111.93-74.586 192.58-47.685 27.738 9.2529 54.048 23.938 75.847 42.334 6.064 5.1173 16.216 15.095 21.239 20.874 17.244 19.84 28.781 41.16 34.133 63.08 3.826 15.668 4.2601 31.902 1.2505 46.766-6.0317 29.79-26.482 55.266-56.593 70.502-16.819 8.5105-34.871 13.647-55.945 15.919-6.164 0.66454-27.346 0.9818-33.69 0.5046zm32.985-19.928c32.016-2.9733 58.882-14.451 77.609-33.156 14.074-14.058 22.304-30.885 24.932-50.976 0.71974-5.5036 0.52656-17.604-0.37737-23.636-4.9152-32.803-24.67-64.296-56.08-89.405-19.297-15.425-40.416-26.823-64.781-34.961-16.192-5.4086-30.498-8.4007-48.331-10.109-6.7948-0.65092-24.804-0.54059-31.75 0.1945-44.592 4.7195-77.939 24.867-93.505 56.493-13.982 28.408-10.953 63.271 8.3039 95.583 10.648 17.866 26.06 34.682 44.632 48.698 32.48 24.512 73.636 39.604 113.95 41.784 6.936 0.3752 18.342 0.14675 25.4-0.50876zm-24.694-48.707c-17.512-1.7597-35.471-7.0176-51.638-15.119-36.9-18.491-61.956-49.443-65.696-81.158-0.57533-4.8783-0.22758-13.825 0.72408-18.629 4.2118-21.261 19.462-37.994 42.477-46.611 18.527-6.9357 41.53-8.1302 64.627-3.356 22.699 4.6917 44.03 14.735 62.775 29.558 5.439 4.3009 16.05 14.957 20.037 20.122 13.153 17.04 19.667 34.129 19.644 51.535-0.0215 15.86-5.5143 29.377-16.541 40.705-11.807 12.129-27.259 19.363-48.011 22.475-6.5824 0.98722-20.927 1.2285-28.399 0.47773zm23.46-35.414c11.297-2.0983 19.565-5.7949 26.704-11.939 5.1967-4.4726 9.998-12.002 11.741-18.412 7.1517-26.301-14.831-57.936-50.087-72.078-28.963-11.618-59.469-8.5233-75.693 7.6782-3.7122 3.7072-5.6445 6.4273-7.7506 10.911-5.4149 11.527-4.6892 24.659 2.1197 38.354 12.017 24.172 41.532 42.968 72.504 46.172 5.1234 0.5301 15.849 0.17031 20.461-0.68638zm-21.167-20.364c-3.3237-0.34998-9.3573-1.7044-13.17-2.9564-10.294-3.3802-18.977-8.7746-26.191-16.272-7.9076-8.2177-12.144-17.426-12.144-26.394 0-9.9406 5.6316-18.518 15.346-23.373 18.144-9.0683 46.485-2.6664 63.535 14.352 14.056 14.03 17.042 31.138 7.5235 43.101-5.9676 7.4996-16.979 11.887-29.431 11.727-2.3283-0.0299-4.789-0.11288-5.4681-0.18439zm11.2-17.191c3.4778-1.1248 6.762-3.2763 8.7802-5.7521 7.7342-9.4877 1.0311-24.824-14.154-32.383-15.839-7.8847-32.769-4.4004-36.689 7.5507-0.97403 2.9693-0.6263 8.2533 0.75884 11.531 3.0294 7.1685 9.805 13.57 18.101 17.102 5.889 2.5074 9.2854 3.1566 15.707 3.0025 3.8078-0.0914 5.08-0.26977 7.4962-1.0512zm-16.032-8.8594c-6.0887-1.6404-11.532-5.871-13.829-10.749-1.2226-2.596-1.2845-6.5096-0.13728-8.6764 3.4874-6.5869 14.795-7.4404 23.337-1.7616 4.8827 3.246 7.5266 7.2513 7.7546 11.748 0.10522 2.0747-0.0137 2.8392-0.64395 4.1412-1.1194 2.3124-3.5333 4.2888-6.2708 5.1343-2.7107 0.83726-7.4296 0.91279-10.211 0.16343zm7.7847-6.2934c1.657-0.9711 2.6968-2.6494 2.6838-4.3321-0.0208-2.7051-2.6474-5.9095-6.2328-7.6042-4.1191-1.947-7.9837-1.661-10.415 0.77075-1.2173 1.2173-1.3357 1.5053-1.3357 3.2484 0 6.3304 9.5634 11.279 15.3 7.9172z" fill="#585c61" />
         <path d="m26.055 359.87c-7.7535-0.97792-13.581-3.7989-15.045-7.2829-0.54203-1.2899-0.61731-2.2162-0.1801-2.2162 0.16332 0 0.48196 0.61756 0.70811 1.3724 1.1571 3.862 7.4517 6.6542 16.898 7.4959 12.516 1.1152 24.99-2.5747 26.941-7.969 0.46559-1.2876 1.0166-1.6718 1.0166-0.70885 0 0.97337-1.3536 3.2261-2.5422 4.2309-1.6328 1.3803-5.6261 3.2076-8.7467 4.0024-5.3278 1.3569-13.265 1.805-19.05 1.0753zm-58.319-0.88066c-12.792-2.4211-18.495-8.0809-13.549-13.447 7.9547-8.6299 38.107-8.5481 45.741 0.12405 2.3287 2.6455 2.1983 5.1051-0.41424 7.8163-0.96944 1.006-1.3441 1.6193-1.0545 1.7258 0.90682 0.33344 3.745 2.4071 3.88 2.8349 0.2252 0.71326-0.41147 0.51815-2.5901-0.79375-1.1278-0.6791-2.3896-1.2347-2.8041-1.2347s-1.7636 0.41035-2.9978 0.91188c-4.4523 1.8091-7.6556 2.3035-15.869 2.4493-5.6913 0.10099-8.2729 4e-3 -10.341-0.38715zm16.93-0.87639c3.3005-0.44475 8.2276-1.7073 8.2276-2.1082 0-0.29119-0.69736-0.46869-3.5278-0.89792-2.7381-0.41522-6.7367-1.7552-15.084-5.0548-8.1708-3.2299-12.22-4.4106-16.219-4.7294-2.1498-0.17141-2.2215-0.1487-3.2581 1.0319-1.916 2.1822-1.855 3.8511 0.22502 6.1534 2.0966 2.3207 6.8491 4.2945 13.026 5.4099 3.3501 0.60497 12.749 0.71538 16.61 0.19512zm12.426-4.0198c1.3834-0.71537 3.098-2.7628 3.3768-4.0322 0.65282-2.9722-3.0153-6.1266-9.4231-8.1033-8.4334-2.6015-22.305-2.266-30.235 0.73127-1.2502 0.47253-2.3279 1.0237-2.3949 1.2249-0.07012 0.21035 0.81633 0.47189 2.0865 0.61559 2.9141 0.3297 7.5281 1.8305 15.282 4.9705 7.0453 2.8533 10.207 3.8854 14.018 4.5762 3.4611 0.62739 6.0985 0.63359 7.2906 0.0171zm111.65 3.1029c-1.1556-2.362-1.2657-4.5505-0.34955-6.9494 0.9721-2.5454 1.6933-2.1286 0.78809 0.45537-0.40366 1.1523-0.6411 2.1878-0.52763 2.3013 0.11346 0.11347 0.90372-0.19535 1.7561-0.68625 3.8278-2.2044 10.387-3.5094 20.6-4.0987 6.2952-0.3632 19.328-0.0798 19.152 0.41645-0.0563 0.15924-5.6586 0.35626-12.45 0.43783-12.898 0.15493-16.261 0.46353-22.038 2.0222-2.8081 0.75771-5.5016 2.0628-5.4456 2.6386 0.11793 1.2123 5.8666 2.9858 12.138 3.7446 3.6622 0.44313 18.041 0.62694 24.871 0.31793 2.1396-0.0968 3.4961-0.0274 3.4472 0.17639-0.14928 0.62279-6.5603 0.90188-17.029 0.74134-13.187-0.20224-18.163-0.93538-22.754-3.3531-0.97014-0.51082-1.883-0.9826-2.0285-1.0484-0.49965-0.22588-0.26344 0.72094 0.61736 2.4746 0.94916 1.8897 1.0678 2.4035 0.55512 2.4035-0.17976 0-0.76592-0.89744-1.3026-1.9943zm188.44 1.0843c-6.9519-1.6255-20.551-3.2408-33.528-3.9825-2.913-0.16649-5.4405-0.1674-5.6228-2e-3 -0.20246 0.18366-0.0152 1.0629 0.48204 2.2624 0.78221 1.8872 0.80906 2.5872 0.082 2.1378-0.58864-0.36382-1.4677-3.436-1.4663-5.1248 0-0.95845 0.27178-2.0564 0.66788-2.7059 0.64304-1.0545 0.77664-1.1011 3.791-1.3221 8.2183-0.60241 26.348-0.94216 32.237-0.60411 6.3541 0.36478 8.9038 0.89668 9.1 1.8984 0.16319 0.8329-1.7898 1.8852-4.3047 2.3194-3.0107 0.51981-10.939 1.0884-15.563 1.116-4.4878 0.0268-4.1094 0.38762 1.0583 1.0089 5.8764 0.70653 14.336 2.215 17.198 3.0667 0.33955 0.10104 0.61736 0.33176 0.61736 0.51272 0 0.45238-0.68993 0.36797-4.7486-0.58101zm-2.4311-5.4678c3.7535-0.35817 7.1797-1.1852 7.1797-1.7331 0-0.83492-3.1445-1.1497-13.178-1.3193-9.411-0.15907-28.018 0.35775-29.578 0.82157-0.71134 0.21144-1.1943 1.4882-0.73618 1.9463 0.85863 0.85864 28.063 1.0718 36.313 0.28456zm33.068 4.7233c-0.24727-1.5737-0.27856-5.7066-0.0556-7.3413 0.0929-0.68091-0.0824-0.70254-5.019-0.61922-2.8134 0.0475-7.1522 0.25954-9.6417 0.47124-4.1017 0.3488-5.2675 0.29931-4.7658-0.20235 1.0345-1.0345 29.297-1.4725 37.867-0.5868 4.2605 0.44032 5.61 0.77494 4.8814 1.2104-0.16242 0.0971-2.2797-0.0285-4.705-0.27908s-7.3042-0.57038-10.842-0.71067c-6.0911-0.24154-6.4464-0.21996-6.7028 0.40709-0.30177 0.7382-0.36869 6.4413-0.0943 8.0397 0.10612 0.61817 0.0106 1.0834-0.23978 1.1677-0.26014 0.0876-0.51619-0.49623-0.6828-1.5567zm-268.11 0.18472c0.71465-3.5733 5.6856-6.6001 13.623-8.2953 4.5913-0.98054 15.88-0.883 20.461 0.17681 6.0519 1.4 10.335 4.0533 11.31 7.0055 0.22128 0.67048 0.2854 1.3275 0.14248 1.46-0.14291 0.13252-0.32321 0.065-0.40066-0.15-0.46915-1.3025-0.9763-1.5317-2.5783-1.1652-9.1933 2.1032-26.181 2.2595-37.401 0.34412-2.0373-0.3478-3.811-0.57274-3.9416-0.49987-0.1306 0.0729-0.34164 0.60693-0.469 1.1868-0.31665 1.4417-1.0346 1.3813-0.74584-0.0628zm36.554-0.79146c4.0368-0.55596 6.6381-1.0842 6.9691-1.4152 0.44658-0.44657-1.8408-2.2916-4.1749-3.3674-8.3123-3.8314-24.627-3.6548-32.957 0.35664-2.7248 1.3121-4.3566 2.6278-3.8734 3.1227 0.41742 0.42749 6.1107 1.3132 11.458 1.7826 4.9361 0.43328 17.959 0.15678 22.578-0.47938zm73.025 1.5105c-7.9876-0.72011-15.346-2.9725-15.346-4.6974 0-1.6721 6.1285-3.7685 13.951-4.772 7.9976-1.0261 29.97-1.2579 29.97-0.31621 0 0.16828-4.8816 0.30651-10.848 0.30717-11.007 1e-3 -16.465 0.31394-22.069 1.2646-3.6523 0.61944-8.037 1.9359-8.1218 2.4384-0.0389 0.23082 6.8009 0.38429 19.784 0.44392 12.712 0.0584 19.844 0.21584 19.844 0.43812 0 0.22247-7.3748 0.37967-20.549 0.43804-19.791 0.0877-20.515 0.11409-19.63 0.71592 1.3126 0.89186 6.8664 2.2218 11.604 2.7787 4.3528 0.51172 26.455 0.6585 29.192 0.19387 1.1536-0.19577 1.4993-0.14383 1.4993 0.22528 0 0.36004-0.9378 0.53711-3.759 0.70972-5.0982 0.31194-21.387 0.20468-25.522-0.16806zm194.22-0.37393c-3.0961-0.17315-5.7023-0.38779-5.7914-0.47697-0.5268-0.52679 1.1688-0.56524 9.0262-0.20466 17.512 0.80363 28.9 0.31411 31.496-1.3538 0.85781-0.55128-5e-3 -1.0567-2.4848-1.4561-1.241-0.19986-9.9599-0.48469-19.375-0.63296-14.788-0.23287-17.303-0.3495-18.473-0.8565-0.76006-0.32946-1.2898-0.77954-1.2076-1.026 0.21135-0.63412 4.1824-1.8752 8.1779-2.5558 4.8075-0.81892 13.77-1.1724 21.433-0.84542 6.5249 0.27846 12.576 0.82827 12.922 1.1741 0.51097 0.51096-0.56113 0.56223-4.0464 0.19349-6.2264-0.65875-19.532-0.86689-24.661-0.38578-5.9004 0.55347-12.146 1.8444-12.146 2.5104 0 0.63429 2.6582 0.77979 19.05 1.0428 10.347 0.16599 18.251 0.44146 19.397 0.67609 5.1577 1.0559 2.8987 3.4802-3.9487 4.2376-3.9818 0.44042-21.194 0.4168-29.367-0.0403zm-157.74-2.844c0.62832-5.0501 4.6696-9.9394 10.541-12.754 4.8043-2.3025 7.2628-2.8321 13.132-2.8287 5.753 3e-3 8.0615 0.50735 12.223 2.6685 4.7768 2.4809 8.9616 7.9091 9.6834 12.561 0.33052 2.1298-0.39148 1.9212-0.91585-0.26459-0.23272-0.97014-0.58656-1.7639-0.78627-1.7639-0.1997 0-1.4564 0.3944-2.7928 0.87644-6.0794 2.193-16.467 3.3277-24.354 2.6605-5.4528-0.46118-9.8255-1.3422-12.937-2.6063l-2.2006-0.89418-0.31444 0.77549c-0.17294 0.42652-0.41111 1.3708-0.52927 2.0984-0.34354 2.1155-1.0186 1.6385-0.74888-0.52917zm29.856 0.0695c5.5587-0.69066 11.764-2.2248 13.176-3.2574 0.63006-0.46072 0.6253-0.52937-0.14185-2.0331-2.0045-3.929-7.0966-7.5554-12.691-9.038-3.3573-0.88969-10.208-0.79608-13.935 0.19041-3.6882 0.97622-8.0126 3.1374-10.283 5.139-1.8319 1.6151-4.0047 4.5219-4.0047 5.3575 0 0.97006 6.193 2.9748 11.16 3.6127 3.4808 0.447 13.218 0.4638 16.719 0.0289zm-53.419-52.903c-40.885-2.5627-81.332-16.344-115.72-39.427-11.645-7.8175-21.041-15.583-31.447-25.99-8.3075-8.3079-12.228-12.811-18.359-21.089-20.503-27.682-30.458-59.562-27.473-87.985 5.4718-52.105 49.346-89.239 113.76-96.284 11.205-1.2254 30.565-1.0492 43.392 0.39502 68.386 7.6999 133.21 47.659 163.83 100.98 14.208 24.747 20.149 51.138 16.97 75.387-1.9972 15.235-7.9717 30.471-16.878 43.039-4.9452 6.9786-13.26 15.717-20.165 21.191-20.644 16.367-47.026 26.223-78.315 29.26-6.8204 0.66183-22.849 0.94394-29.597 0.52094zm31.185-19.734c32.544-3.3038 59.001-14.797 77.692-33.749 12.952-13.133 20.88-28.608 23.926-46.701 1.0733-6.3754 1.3203-17.864 0.531-24.694-2.1036-18.205-8.8259-35.934-20.131-53.093-27.299-41.434-78.192-73.03-132.32-82.152-12.309-2.0741-17.299-2.4685-31.54-2.4924-13.563-0.0228-16.988 0.18622-26.282 1.6038-35.043 5.3452-63.106 21.506-79.265 45.646-10.481 15.657-15.489 34.934-14.069 54.151 1.0863 14.704 4.6455 27.463 11.661 41.804 10.421 21.301 26.864 40.725 48.688 57.512 30.419 23.398 70.764 39.069 108.48 42.135 2.5224 0.20503 5.3005 0.4334 6.1736 0.50748 3.001 0.25463 22.757-0.10233 26.458-0.47805zm-20.99-48.756c-18.334-1.191-36.544-6.1293-54.328-14.734-14.802-7.1613-26.921-15.759-38.286-27.161-9.2754-9.3053-15.608-17.916-20.647-28.076-9.0251-18.197-10.892-36.154-5.4522-52.445 4.3406-13 13.487-24.238 26.089-32.054 24.958-15.479 61.13-17.595 96.132-5.6222 40.805 13.958 72.447 43.491 82.235 76.754 2.3509 7.9893 3.3514 17.324 2.6427 24.656-1.7914 18.537-10.925 33.543-26.985 44.335-11.249 7.5599-25.179 12.295-41.293 14.037-4.8128 0.5202-14.554 0.66993-20.108 0.30909zm13.464-34.688c18.667-1.2459 34.926-10.751 41.711-24.385 3.0738-6.1768 4.0715-11.1 3.8173-18.835-0.14267-4.3405-0.36943-6.1942-1.0998-8.9896-3.0308-11.6-8.955-21.305-18.964-31.066-7.5021-7.3158-14.347-12.122-24.112-16.928-6.5761-3.2367-10.707-4.8508-17.196-6.7185-28.389-8.1712-56.612-1.9744-69.556 15.272-3.7951 5.0567-6.0449 10.257-7.1396 16.503-0.66778 3.8103-0.48994 11.7 0.34987 15.522 2.9218 13.297 11.374 26.403 23.801 36.906 13.534 11.439 30.804 19.272 48.554 22.02 4.1329 0.63993 12.295 1.1763 15.189 0.99809 0.97014-0.0597 3.0603-0.19512 4.6448-0.30087zm-14.428-21.398c-20.344-1.8899-40.199-14.362-48.376-30.388-6.0001-11.759-4.9948-23.654 2.6935-31.873 6.4828-6.9302 15.671-10.374 27.773-10.411 10.118-0.0306 18.971 2.2128 28.928 7.3304 13.551 6.9649 24.033 18.653 27.167 30.291 1.1605 4.3093 1.3201 9.8098 0.39673 13.668-2.4091 10.065-10.24 17.191-22.254 20.252-3.0701 0.78207-4.7259 0.97666-11.13 1.3081-1.1642 0.0602-3.5028-0.0192-5.197-0.17662zm9.1094-16.538c5.5094-1.4091 9.8441-4.7316 11.905-9.1252 0.93019-1.983 1.1146-2.8395 1.2322-5.7232 0.10141-2.4858-0.0219-3.9458-0.46196-5.4681-3.4994-12.106-17.536-21.932-32.307-22.617-18.576-0.86049-27.888 13.263-18.364 27.853 5.2241 8.0026 15.705 14.333 26.129 15.781 3.1736 0.44089 8.6713 0.11622 11.866-0.70074zm-13.133-9.1746c-6.3625-1.1412-12.77-5.5587-15.166-10.456-1.161-2.373-1.5287-5.9588-0.82854-8.0804 0.64338-1.9495 2.8557-4.1477 5.2604-5.2268 5.9428-2.667 14.941-0.70578 20.706 4.5127 4.8919 4.4285 6.5328 9.7182 4.3451 14.007-0.94643 1.8552-3.5304 3.9822-5.6816 4.677-2.2933 0.74065-6.2278 0.99913-8.6354 0.56729zm5.9276-6.2213c4.8115-2.8101 2.9288-9.4326-3.521-12.385-2.2522-1.0311-5.622-1.384-7.7406-0.81072-1.9062 0.51582-3.7996 2.3774-4.112 4.0429-0.41776 2.2268 0.3464 4.0106 2.7341 6.3822 1.7339 1.7222 2.6386 2.318 4.4673 2.9416 2.8221 0.96246 6.3586 0.88859 8.1723-0.17069z" fill="#010101" />
      </g>
   </g>
</svg>