<?xml version="1.0" encoding="UTF-8" standalone="no"?>
<svg
   xmlns:dc="http://purl.org/dc/elements/1.1/"
   xmlns:cc="http://creativecommons.org/ns#"
   xmlns:rdf="http://www.w3.org/1999/02/22-rdf-syntax-ns#"
   xmlns:svg="http://www.w3.org/2000/svg"
   xmlns="http://www.w3.org/2000/svg"
   xmlns:sodipodi="http://sodipodi.sourceforge.net/DTD/sodipodi-0.dtd"
   xmlns:inkscape="http://www.inkscape.org/namespaces/inkscape"
   version="1.1"
   width="52"
   height="24"
   viewBox="0 0 52 24"
   id="svg4"
   sodipodi:docname="uknown.svg"
   inkscape:version="0.92.4 (5da689c313, 2019-01-14)">
  <metadata
     id="metadata10">
    <rdf:RDF>
      <cc:Work
         rdf:about="">
        <dc:format>image/svg+xml</dc:format>
        <dc:type
           rdf:resource="http://purl.org/dc/dcmitype/StillImage" />
        <dc:title></dc:title>
      </cc:Work>
    </rdf:RDF>
  </metadata>
  <defs
     id="defs8" />
  <sodipodi:namedview
     pagecolor="#ffffff"
     bordercolor="#666666"
     borderopacity="1"
     objecttolerance="10"
     gridtolerance="10"
     guidetolerance="10"
     inkscape:pageopacity="0"
     inkscape:pageshadow="2"
     inkscape:window-width="1920"
     inkscape:window-height="1001"
     id="namedview6"
     showgrid="false"
     inkscape:zoom="10"
     inkscape:cx="-16.65"
     inkscape:cy="15.865118"
     inkscape:window-x="-9"
     inkscape:window-y="1341"
     inkscape:window-maximized="1"
     inkscape:current-layer="svg4" />
  <path
     d="M 17.25,18 H 6.75 V 4 h 10.5 M 14,21 h -4 v -1 h 4 M 16,1 H 8 A 3,3 0 0 0 5,4 v 16 a 3,3 0 0 0 3,3 h 8 a 3,3 0 0 0 3,-3 V 4 A 3,3 0 0 0 16,1 Z"
     id="path2"
     inkscape:connector-curvature="0" />
  <path
     inkscape:connector-curvature="0"
     d="m 30.6,1.2 h 16 a 1,1 0 0 1 1,1 v 4 a 1,1 0 0 1 -1,1 h -16 a 1,1 0 0 1 -1,-1 v -4 a 1,1 0 0 1 1,-1 m 0,8 h 16 a 1,1 0 0 1 1,1 v 4 a 1,1 0 0 1 -1,1 h -16 a 1,1 0 0 1 -1,-1 v -4 a 1,1 0 0 1 1,-1 m 0,8 h 16 a 1,1 0 0 1 1,1 v 4 a 1,1 0 0 1 -1,1 h -16 a 1,1 0 0 1 -1,-1 v -4 a 1,1 0 0 1 1,-1 m 5,-12 h 1 v -2 h -1 v 2 m 0,8 h 1 v -2 h -1 v 2 m 0,8 h 1 v -2 h -1 v 2 m -4,-18 v 2 h 2 v -2 h -2 m 0,8 v 2 h 2 v -2 h -2 m 0,8 v 2 h 2 v -2 z"
     id="path2-1" />
  <text
     xml:space="preserve"
     style="font-style:normal;font-weight:normal;font-size:10.55363464px;line-height:1.25;font-family:sans-serif;letter-spacing:0px;word-spacing:0px;fill:#ffcc00;fill-opacity:1;stroke:none;stroke-width:0.26384085;"
     x="21.332203"
     y="15.940657"
     id="text12"
     transform="scale(0.99010293,1.009996)"><tspan
       sodipodi:role="line"
       id="tspan10"
       x="21.332203"
       y="15.940657"
       style="stroke-width:0.26384085;-inkscape-font-specification:Arial;font-family:Arial;font-weight:normal;font-style:normal;font-stretch:normal;font-variant:normal;fill:#ffcc00;">?</tspan></text>
</svg>
