<?xml version="1.0" encoding="UTF-8"?>
<svg version="1.1" viewBox="0 0 52 24" xmlns="http://www.w3.org/2000/svg">
   <path d="m17.25 18h-10.5v-14h10.5m-3.25 17h-4v-1h4m2-19h-8a3 3 0 0 0-3 3v16a3 3 0 0 0 3 3h8a3 3 0 0 0 3-3v-16a3 3 0 0 0-3-3z" />
   <path d="m30.6 1.2h16a1 1 0 0 1 1 1v4a1 1 0 0 1-1 1h-16a1 1 0 0 1-1-1v-4a1 1 0 0 1 1-1m0 8h16a1 1 0 0 1 1 1v4a1 1 0 0 1-1 1h-16a1 1 0 0 1-1-1v-4a1 1 0 0 1 1-1m0 8h16a1 1 0 0 1 1 1v4a1 1 0 0 1-1 1h-16a1 1 0 0 1-1-1v-4a1 1 0 0 1 1-1m5-12h1v-2h-1v2m0 8h1v-2h-1v2m0 8h1v-2h-1v2m-4-18v2h2v-2h-2m0 8v2h2v-2h-2m0 8v2h2v-2z" />
   <text transform="scale(.9901 1.01)" x="21.332203" y="15.940657" fill="#ffcc00" font-family="sans-serif" font-size="10.554px" letter-spacing="0px" stroke-width=".26384" word-spacing="0px" style="line-height:1.25" xml:space="preserve">
      <tspan x="21.332203" y="15.940657" fill="#ffcc00" font-family="Arial" stroke-width=".26384">?</tspan>
   </text>
</svg>