<?xml version="1.0" encoding="UTF-8" standalone="no"?>
<svg
   xmlns:dc="http://purl.org/dc/elements/1.1/"
   xmlns:cc="http://creativecommons.org/ns#"
   xmlns:rdf="http://www.w3.org/1999/02/22-rdf-syntax-ns#"
   xmlns:svg="http://www.w3.org/2000/svg"
   xmlns="http://www.w3.org/2000/svg"
   xmlns:sodipodi="http://sodipodi.sourceforge.net/DTD/sodipodi-0.dtd"
   xmlns:inkscape="http://www.inkscape.org/namespaces/inkscape"
   width="24"
   height="24"
   viewBox="0 0 24 24"
   version="1.1"
   id="svg6"
   sodipodi:docname="unlockdevice.svg"
   inkscape:version="0.92.4 (5da689c313, 2019-01-14)">
  <metadata
     id="metadata12">
    <rdf:RDF>
      <cc:Work
         rdf:about="">
        <dc:format>image/svg+xml</dc:format>
        <dc:type
           rdf:resource="http://purl.org/dc/dcmitype/StillImage" />
        <dc:title></dc:title>
      </cc:Work>
    </rdf:RDF>
  </metadata>
  <defs
     id="defs10" />
  <sodipodi:namedview
     pagecolor="#ffffff"
     bordercolor="#666666"
     borderopacity="1"
     objecttolerance="10"
     gridtolerance="10"
     guidetolerance="10"
     inkscape:pageopacity="0"
     inkscape:pageshadow="2"
     inkscape:window-width="1920"
     inkscape:window-height="1017"
     id="namedview8"
     showgrid="false"
     inkscape:zoom="9.8333333"
     inkscape:cx="0.86440678"
     inkscape:cy="12"
     inkscape:window-x="-8"
     inkscape:window-y="-8"
     inkscape:window-maximized="1"
     inkscape:current-layer="svg6" />
  <path
     d="M0 0h24v24H0z"
     fill="none"
     id="path2" />
  <path
     d="M17 1.01L7 1c-1.1 0-2 .9-2 2v18c0 1.1.9 2 2 2h10c1.1 0 2-.9 2-2V3c0-1.1-.9-1.99-2-1.99zM17 19H7V5h10v14z"
     id="path4" />
  <g
     inkscape:groupmode="layer"
     id="layer1"
     inkscape:label="Layer 1"
     style="display:inline">
    <path
       inkscape:connector-curvature="0"
       d="m 11.957627,14.009081 c 0.408171,0 0.74213,-0.333959 0.74213,-0.74213 0,-0.408172 -0.333959,-0.742131 -0.74213,-0.742131 -0.408173,0 -0.742131,0.333959 -0.742131,0.742131 0,0.408171 0.333958,0.74213 0.742131,0.74213 z m 2.226392,-3.339589 h -0.371066 v -0.74213 c 0,-1.02414 -0.831187,-1.855327 -1.855326,-1.855327 -1.024141,0 -1.855327,0.831187 -1.855327,1.855327 h 0.705024 c 0,-0.634522 0.51578,-1.150302 1.150303,-1.150302 0.634521,0 1.150301,0.51578 1.150301,1.150302 v 0.74213 H 9.731234 c -0.408171,0 -0.742131,0.33396 -0.742131,0.742131 v 3.710654 c 0,0.408171 0.33396,0.742131 0.742131,0.742131 h 4.452785 c 0.408171,0 0.74213,-0.33396 0.74213,-0.742131 v -3.710654 c 0,-0.408171 -0.333959,-0.742131 -0.74213,-0.742131 z m 0,4.452785 H 9.731234 v -3.710654 h 4.452785 z"
       id="path4-49"
       style="stroke-width:0.37106535" />
  </g>
</svg>
