<?xml version="1.0" encoding="UTF-8"?>
<svg version="1.1" viewBox="0 0 24 24" xmlns="http://www.w3.org/2000/svg">
   <path d="M0 0h24v24H0z" fill="none" />
   <path d="M17 1.01L7 1c-1.1 0-2 .9-2 2v18c0 1.1.9 2 2 2h10c1.1 0 2-.9 2-2V3c0-1.1-.9-1.99-2-1.99zM17 19H7V5h10v14z" />
   <g>
      <path d="m11.958 14.009c0.40817 0 0.74213-0.33396 0.74213-0.74213 0-0.40817-0.33396-0.74213-0.74213-0.74213-0.40817 0-0.74213 0.33396-0.74213 0.74213 0 0.40817 0.33396 0.74213 0.74213 0.74213zm2.2264-3.3396h-0.37107v-0.74213c0-1.0241-0.83119-1.8553-1.8553-1.8553-1.0241 0-1.8553 0.83119-1.8553 1.8553h0.70502c0-0.63452 0.51578-1.1503 1.1503-1.1503 0.63452 0 1.1503 0.51578 1.1503 1.1503v0.74213h-3.3767c-0.40817 0-0.74213 0.33396-0.74213 0.74213v3.7107c0 0.40817 0.33396 0.74213 0.74213 0.74213h4.4528c0.40817 0 0.74213-0.33396 0.74213-0.74213v-3.7107c0-0.40817-0.33396-0.74213-0.74213-0.74213zm0 4.4528h-4.4528v-3.7107h4.4528z" stroke-width=".37107" />
   </g>
</svg>